Crimson-Semibold-Italic.ufo
<glyph name="quotedbl" format="1">
  <advance width="334"/>
  <unicode hex="0022"/>
  <outline>
    <contour>
      <point x="329" y="698" type="curve" smooth="yes"/>
      <point x="357" y="698"/>
      <point x="368" y="692"/>
      <point x="357" y="633" type="curve" smooth="yes"/>
      <point x="346" y="577"/>
      <point x="314" y="516"/>
      <point x="295" y="449" type="curve" smooth="yes"/>
      <point x="292" y="439"/>
      <point x="281" y="434"/>
      <point x="274" y="434" type="curve" smooth="yes"/>
      <point x="267" y="434"/>
      <point x="258" y="439"/>
      <point x="259" y="447" type="curve" smooth="yes"/>
      <point x="268" y="537"/>
      <point x="259" y="590"/>
      <point x="259" y="636" type="curve"/>
      <point x="262" y="654"/>
      <point x="293" y="698"/>
    </contour>
    <contour>
      <point x="177" y="698" type="curve" smooth="yes"/>
      <point x="205" y="698"/>
      <point x="216" y="692"/>
      <point x="205" y="633" type="curve" smooth="yes"/>
      <point x="194" y="577"/>
      <point x="162" y="516"/>
      <point x="143" y="449" type="curve" smooth="yes"/>
      <point x="140" y="439"/>
      <point x="129" y="434"/>
      <point x="122" y="434" type="curve" smooth="yes"/>
      <point x="115" y="434"/>
      <point x="106" y="439"/>
      <point x="107" y="447" type="curve" smooth="yes"/>
      <point x="116" y="537"/>
      <point x="107" y="590"/>
      <point x="107" y="636" type="curve"/>
      <point x="110" y="654"/>
      <point x="141" y="698"/>
    </contour>
  </outline>
</glyph>
<glyph name="numbersign" format="1">
  <advance width="460"/>
  <unicode hex="0023"/>
  <outline>
    <contour>
      <point x="360" y="374" type="curve"/>
      <point x="360" y="374"/>
      <point x="422" y="374"/>
      <point x="436" y="374" type="curve" smooth="yes"/>
      <point x="441" y="374"/>
      <point x="442" y="373"/>
      <point x="442" y="370" type="curve"/>
      <point x="442" y="354"/>
      <point x="428" y="316"/>
      <point x="418" y="316" type="curve"/>
      <point x="342" y="316" type="line"/>
      <point x="313" y="232" type="line"/>
      <point x="388" y="232" type="line"/>
      <point x="392" y="232"/>
      <point x="394" y="232"/>
      <point x="394" y="228" type="curve"/>
      <point x="394" y="212"/>
      <point x="380" y="174"/>
      <point x="370" y="174" type="curve"/>
      <point x="294" y="174" type="line"/>
      <point x="244" y="24" type="line"/>
      <point x="244" y="22"/>
      <point x="237" y="17"/>
      <point x="209" y="17" type="curve" smooth="yes"/>
      <point x="199" y="17"/>
      <point x="187" y="19"/>
      <point x="186" y="21" type="curve"/>
      <point x="187" y="25"/>
      <point x="212" y="98"/>
      <point x="212" y="99" type="curve" smooth="yes"/>
      <point x="212" y="101"/>
      <point x="240" y="174"/>
      <point x="240" y="174" type="curve"/>
      <point x="154" y="174" type="line"/>
      <point x="104" y="24" type="line"/>
      <point x="104" y="22"/>
      <point x="97" y="17"/>
      <point x="69" y="17" type="curve" smooth="yes"/>
      <point x="59" y="17"/>
      <point x="47" y="19"/>
      <point x="46" y="21" type="curve"/>
      <point x="47" y="25"/>
      <point x="72" y="98"/>
      <point x="72" y="99" type="curve" smooth="yes"/>
      <point x="72" y="101"/>
      <point x="100" y="174"/>
      <point x="100" y="174" type="curve"/>
      <point x="24" y="174" type="line"/>
      <point x="20" y="174"/>
      <point x="18" y="174"/>
      <point x="18" y="178" type="curve"/>
      <point x="18" y="194"/>
      <point x="32" y="232"/>
      <point x="42" y="232" type="curve"/>
      <point x="118" y="232" type="line"/>
      <point x="147" y="316" type="line"/>
      <point x="72" y="316" type="line"/>
      <point x="68" y="316"/>
      <point x="66" y="316"/>
      <point x="66" y="320" type="curve"/>
      <point x="66" y="336"/>
      <point x="80" y="374"/>
      <point x="90" y="374" type="curve"/>
      <point x="166" y="374" type="line"/>
      <point x="216" y="524" type="line"/>
      <point x="216" y="526"/>
      <point x="226" y="531"/>
      <point x="254" y="531" type="curve" smooth="yes"/>
      <point x="264" y="531"/>
      <point x="273" y="528"/>
      <point x="274" y="526" type="curve"/>
      <point x="273" y="522"/>
      <point x="248" y="450"/>
      <point x="248" y="449" type="curve" smooth="yes"/>
      <point x="248" y="447"/>
      <point x="220" y="374"/>
      <point x="220" y="374" type="curve"/>
      <point x="306" y="374" type="line"/>
      <point x="356" y="524" type="line"/>
      <point x="356" y="526"/>
      <point x="366" y="531"/>
      <point x="394" y="531" type="curve" smooth="yes"/>
      <point x="404" y="531"/>
      <point x="413" y="528"/>
      <point x="414" y="526" type="curve"/>
      <point x="413" y="522"/>
      <point x="388" y="450"/>
      <point x="388" y="449" type="curve" smooth="yes"/>
      <point x="388" y="447"/>
      <point x="360" y="374"/>
    </contour>
    <contour>
      <point x="287" y="316" type="line"/>
      <point x="202" y="316" type="line"/>
      <point x="173" y="232" type="line"/>
      <point x="258" y="232" type="line"/>
    </contour>
  </outline>
</glyph>
<glyph name="dollar" format="1">
  <advance width="470"/>
  <unicode hex="0024"/>
  <outline>
    <contour>
      <point x="136" y="-58" type="line"/>
      <point x="128" y="-58"/>
      <point x="103" y="-53"/>
      <point x="105" y="-46" type="curve" smooth="yes"/>
      <point x="118.994" y="-4.01696" type="line"/>
      <point x="84.2741" y="0.964663"/>
      <point x="50.8283" y="8.76087"/>
      <point x="24" y="15" type="curve"/>
      <point x="21" y="53"/>
      <point x="25" y="138"/>
      <point x="30" y="172" type="curve" smooth="yes"/>
      <point x="33" y="178"/>
      <point x="48" y="183"/>
      <point x="54" y="183" type="curve" smooth="yes"/>
      <point x="62" y="183"/>
      <point x="67" y="179"/>
      <point x="68" y="175" type="curve" smooth="yes"/>
      <point x="68" y="138.719"/>
      <point x="81.6856" y="70.0904"/>
      <point x="134.57" y="42.7097" type="curve"/>
      <point x="212.3" y="275.899" type="line"/>
      <point x="139.477" y="327.153"/>
      <point x="78.2315" y="374.194"/>
      <point x="97" y="471" type="curve" smooth="yes"/>
      <point x="116" y="570"/>
      <point x="221" y="643"/>
      <point x="313" y="643" type="curve" smooth="yes"/>
      <point x="320.11" y="643"/>
      <point x="327.24" y="642.656"/>
      <point x="334.348" y="642.043" type="curve"/>
      <point x="348" y="683" type="line"/>
      <point x="356" y="683"/>
      <point x="381" y="680"/>
      <point x="379" y="673" type="curve" smooth="yes"/>
      <point x="367.202" y="637.51" type="line"/>
      <point x="398.228" y="631.83"/>
      <point x="427.45" y="623.092"/>
      <point x="451" y="618" type="curve"/>
      <point x="447" y="572"/>
      <point x="442" y="528"/>
      <point x="432" y="470" type="curve" smooth="yes"/>
      <point x="429" y="464"/>
      <point x="427" y="464"/>
      <point x="423" y="464" type="curve" smooth="yes"/>
      <point x="417" y="464"/>
      <point x="399" y="464"/>
      <point x="399" y="472" type="curve" smooth="yes"/>
      <point x="400.496" y="504.914"/>
      <point x="387.444" y="561.329"/>
      <point x="350.634" y="587.668" type="curve"/>
      <point x="279.763" y="374.471" type="line"/>
      <point x="283.502" y="371.611"/>
      <point x="287.256" y="368.79"/>
      <point x="291" y="366" type="curve" smooth="yes"/>
      <point x="352" y="320"/>
      <point x="429" y="274"/>
      <point x="409" y="169" type="curve" smooth="yes"/>
      <point x="389" y="63"/>
      <point x="280" y="-9"/>
      <point x="182" y="-9" type="curve" smooth="yes"/>
      <point x="172.343" y="-9"/>
      <point x="162.533" y="-8.56842"/>
      <point x="152.687" y="-7.8027" type="curve"/>
    </contour>
    <contour>
      <point x="166.09" y="32.5162" type="line"/>
      <point x="172.344" y="31.525"/>
      <point x="178.974" y="31"/>
      <point x="186" y="31" type="curve" smooth="yes"/>
      <point x="236" y="31"/>
      <point x="291" y="61"/>
      <point x="305" y="132" type="curve" smooth="yes"/>
      <point x="316.21" y="189.65"/>
      <point x="276.13" y="228.067"/>
      <point x="240.202" y="255.464" type="curve"/>
    </contour>
    <contour>
      <point x="320.526" y="600.579" type="line"/>
      <point x="315.619" y="601.508"/>
      <point x="310.447" y="602"/>
      <point x="305" y="602" type="curve" smooth="yes"/>
      <point x="255" y="602"/>
      <point x="211" y="576"/>
      <point x="199" y="512" type="curve" smooth="yes"/>
      <point x="190.074" y="464.394"/>
      <point x="217.112" y="427.855"/>
      <point x="252.54" y="396.619" type="curve"/>
    </contour>
  </outline>
</glyph>
<glyph name="percent" format="1">
  <advance width="662"/>
  <unicode hex="0025"/>
  <outline>
    <contour>
      <point x="492" y="286" type="curve"/>
      <point x="433" y="286"/>
      <point x="396" y="185"/>
      <point x="399" y="109" type="curve"/>
      <point x="400" y="75"/>
      <point x="412" y="25"/>
      <point x="447" y="25" type="curve"/>
      <point x="506" y="25"/>
      <point x="538" y="128"/>
      <point x="536" y="202" type="curve"/>
      <point x="535" y="236"/>
      <point x="525" y="286"/>
    </contour>
    <contour>
      <point x="500" y="314" type="curve"/>
      <point x="568" y="314"/>
      <point x="611" y="272"/>
      <point x="614" y="198" type="curve"/>
      <point x="617" y="102"/>
      <point x="528" y="-4"/>
      <point x="436" y="-4" type="curve"/>
      <point x="368" y="-4"/>
      <point x="324" y="44"/>
      <point x="322" y="110" type="curve"/>
      <point x="319" y="206"/>
      <point x="406" y="314"/>
    </contour>
    <contour>
      <point x="241" y="630" type="curve"/>
      <point x="182" y="630"/>
      <point x="145" y="529"/>
      <point x="148" y="453" type="curve"/>
      <point x="149" y="419"/>
      <point x="161" y="369"/>
      <point x="196" y="369" type="curve"/>
      <point x="255" y="369"/>
      <point x="287" y="472"/>
      <point x="285" y="546" type="curve"/>
      <point x="284" y="580"/>
      <point x="274" y="630"/>
    </contour>
    <contour>
      <point x="249" y="658" type="curve"/>
      <point x="317" y="658"/>
      <point x="360" y="616"/>
      <point x="363" y="542" type="curve"/>
      <point x="366" y="446"/>
      <point x="277" y="340"/>
      <point x="185" y="340" type="curve"/>
      <point x="117" y="340"/>
      <point x="73" y="388"/>
      <point x="71" y="454" type="curve"/>
      <point x="68" y="550"/>
      <point x="155" y="658"/>
    </contour>
    <contour>
      <point x="618" y="634" type="curve"/>
      <point x="96" y="-7" type="line"/>
      <point x="94" y="-9"/>
      <point x="69" y="-10"/>
      <point x="62" y="-4" type="curve"/>
      <point x="58" y="-3"/>
      <point x="56" y="0"/>
      <point x="56" y="5" type="curve"/>
      <point x="578" y="648" type="line"/>
      <point x="580" y="650"/>
      <point x="599" y="649"/>
      <point x="604" y="643" type="curve"/>
      <point x="610" y="642"/>
      <point x="616" y="640"/>
    </contour>
  </outline>
</glyph>
<glyph name="ampersand" format="1">
  <advance width="795"/>
  <unicode hex="0026"/>
  <outline>
    <contour>
      <point x="434" y="536" type="curve" smooth="yes"/>
      <point x="480" y="536"/>
      <point x="520" y="500"/>
      <point x="520" y="454" type="curve" smooth="yes"/>
      <point x="520" y="325.975"/>
      <point x="338.81" y="266.457"/>
      <point x="236.165" y="240.609" type="curve"/>
      <point x="239.96" y="110.63"/>
      <point x="309.142" y="36"/>
      <point x="418" y="36" type="curve" smooth="yes"/>
      <point x="510" y="36"/>
      <point x="606" y="99"/>
      <point x="606" y="192" type="curve" smooth="yes"/>
      <point x="606" y="209"/>
      <point x="598" y="230"/>
      <point x="592" y="236" type="curve"/>
      <point x="540" y="218"/>
      <point x="476" y="191"/>
      <point x="476" y="147" type="curve" smooth="yes"/>
      <point x="476" y="135"/>
      <point x="477" y="130"/>
      <point x="479" y="122" type="curve"/>
      <point x="475" y="120"/>
      <point x="463" y="124"/>
      <point x="457" y="130" type="curve" smooth="yes"/>
      <point x="450" y="137"/>
      <point x="440" y="154"/>
      <point x="440" y="180" type="curve" smooth="yes"/>
      <point x="440" y="240"/>
      <point x="482" y="264"/>
      <point x="562" y="306" type="curve" smooth="yes"/>
      <point x="642" y="346"/>
      <point x="737" y="410"/>
      <point x="733" y="544" type="curve"/>
      <point x="742" y="545"/>
      <point x="752" y="540"/>
      <point x="756" y="537" type="curve" smooth="yes"/>
      <point x="774" y="516"/>
      <point x="792" y="480"/>
      <point x="792" y="436" type="curve" smooth="yes"/>
      <point x="792" y="354"/>
      <point x="732" y="296"/>
      <point x="662" y="262" type="curve"/>
      <point x="666" y="254"/>
      <point x="669" y="240"/>
      <point x="669" y="225" type="curve" smooth="yes"/>
      <point x="669" y="97"/>
      <point x="530" y="-5"/>
      <point x="386" y="-5" type="curve" smooth="yes"/>
      <point x="257.112" y="-5"/>
      <point x="133.139" y="61.8413"/>
      <point x="131.027" y="215.015" type="curve"/>
      <point x="83.5287" y="201.799"/>
      <point x="48" y="186.053"/>
      <point x="48" y="154" type="curve" smooth="yes"/>
      <point x="48" y="136"/>
      <point x="58" y="130"/>
      <point x="68" y="120" type="curve" smooth="yes"/>
      <point x="79" y="110"/>
      <point x="88" y="100"/>
      <point x="88" y="84" type="curve" smooth="yes"/>
      <point x="88" y="53"/>
      <point x="66" y="36"/>
      <point x="39" y="36" type="curve" smooth="yes"/>
      <point x="27" y="36"/>
      <point x="18" y="37"/>
      <point x="10" y="41" type="curve"/>
      <point x="-2" y="57"/>
      <point x="-8" y="85"/>
      <point x="-8" y="102" type="curve" smooth="yes"/>
      <point x="-8" y="169"/>
      <point x="34" y="221"/>
      <point x="110" y="245" type="curve" smooth="yes"/>
      <point x="116.729" y="247.097"/>
      <point x="124.497" y="249.294"/>
      <point x="133.07" y="251.643" type="curve"/>
      <point x="150.462" y="390.752"/>
      <point x="275.471" y="536"/>
    </contour>
    <contour>
      <point x="237.043" y="282.206" type="curve"/>
      <point x="317.783" y="310.363"/>
      <point x="400" y="355.233"/>
      <point x="400" y="436" type="curve" smooth="yes"/>
      <point x="400" y="468"/>
      <point x="384" y="488"/>
      <point x="356" y="488" type="curve" smooth="yes"/>
      <point x="293.615" y="488"/>
      <point x="244.696" y="392.891"/>
    </contour>
  </outline>
</glyph>
<glyph name="quotesingle" format="1">
  <advance width="182"/>
  <unicode hex="0027"/>
  <outline>
    <contour>
      <point x="177" y="698" type="curve" smooth="yes"/>
      <point x="205" y="698"/>
      <point x="216" y="692"/>
      <point x="205" y="633" type="curve" smooth="yes"/>
      <point x="194" y="577"/>
      <point x="162" y="516"/>
      <point x="143" y="449" type="curve" smooth="yes"/>
      <point x="140" y="439"/>
      <point x="129" y="434"/>
      <point x="122" y="434" type="curve" smooth="yes"/>
      <point x="115" y="434"/>
      <point x="106" y="439"/>
      <point x="107" y="447" type="curve" smooth="yes"/>
      <point x="116" y="537"/>
      <point x="107" y="590"/>
      <point x="107" y="636" type="curve"/>
      <point x="110" y="654"/>
      <point x="141" y="698"/>
    </contour>
  </outline>
</glyph>
<glyph name="parenleft" format="1">
  <advance width="268"/>
  <unicode hex="0028"/>
  <outline>
    <contour>
      <point x="299" y="748" type="curve"/>
      <point x="305" y="746"/>
      <point x="307" y="739"/>
      <point x="307" y="735" type="curve"/>
      <point x="239" y="664"/>
      <point x="86" y="418"/>
      <point x="108" y="164" type="curve" smooth="yes"/>
      <point x="120" y="23"/>
      <point x="154" y="-54"/>
      <point x="210" y="-109" type="curve"/>
      <point x="210" y="-112"/>
      <point x="211" y="-119"/>
      <point x="205" y="-121" type="curve"/>
      <point x="141" y="-99"/>
      <point x="58" y="4"/>
      <point x="43" y="177" type="curve" smooth="yes"/>
      <point x="17" y="474"/>
      <point x="211" y="676"/>
    </contour>
  </outline>
</glyph>
<glyph name="asterisk" format="1">
  <advance width="412"/>
  <unicode hex="002A"/>
  <outline>
    <contour>
      <point x="262" y="515" type="curve" smooth="yes"/>
      <point x="287" y="515"/>
      <point x="330" y="634"/>
      <point x="384" y="634" type="curve" smooth="yes"/>
      <point x="398" y="634"/>
      <point x="409" y="625"/>
      <point x="409" y="606" type="curve" smooth="yes"/>
      <point x="409" y="546"/>
      <point x="277" y="524"/>
      <point x="277" y="492" type="curve" smooth="yes"/>
      <point x="277" y="465"/>
      <point x="400" y="480"/>
      <point x="400" y="422" type="curve" smooth="yes"/>
      <point x="400" y="400"/>
      <point x="378" y="380"/>
      <point x="358" y="380" type="curve" smooth="yes"/>
      <point x="315" y="380"/>
      <point x="285" y="464"/>
      <point x="260" y="464" type="curve" smooth="yes"/>
      <point x="237" y="464"/>
      <point x="250" y="397"/>
      <point x="232" y="340" type="curve" smooth="yes"/>
      <point x="223" y="310"/>
      <point x="204" y="300"/>
      <point x="190" y="300" type="curve" smooth="yes"/>
      <point x="176" y="300"/>
      <point x="162" y="313"/>
      <point x="162" y="330" type="curve" smooth="yes"/>
      <point x="162" y="370"/>
      <point x="229" y="438"/>
      <point x="229" y="464" type="curve" smooth="yes"/>
      <point x="229" y="469"/>
      <point x="227" y="472"/>
      <point x="220" y="472" type="curve" smooth="yes"/>
      <point x="199" y="472"/>
      <point x="137" y="430"/>
      <point x="99" y="430" type="curve" smooth="yes"/>
      <point x="82" y="430"/>
      <point x="68" y="441"/>
      <point x="68" y="457" type="curve" smooth="yes"/>
      <point x="68" y="470"/>
      <point x="76" y="504"/>
      <point x="130" y="504" type="curve" smooth="yes"/>
      <point x="159" y="504"/>
      <point x="188" y="496"/>
      <point x="208" y="496" type="curve" smooth="yes"/>
      <point x="230" y="496"/>
      <point x="232" y="503"/>
      <point x="232" y="510" type="curve" smooth="yes"/>
      <point x="232" y="534"/>
      <point x="180" y="577"/>
      <point x="180" y="620" type="curve" smooth="yes"/>
      <point x="180" y="645"/>
      <point x="198" y="664"/>
      <point x="219" y="664" type="curve" smooth="yes"/>
      <point x="252" y="664"/>
      <point x="252" y="622"/>
      <point x="252" y="582" type="curve" smooth="yes"/>
      <point x="252" y="576"/>
      <point x="248" y="515"/>
    </contour>
  </outline>
</glyph>
<glyph name="hyphen" format="1">
  <advance width="366"/>
  <unicode hex="002D"/>
  <outline>
    <contour>
      <point x="72" y="264" type="curve" smooth="yes"/>
      <point x="300" y="276" type="line" smooth="yes"/>
      <point x="305" y="276"/>
      <point x="306" y="269"/>
      <point x="306" y="264" type="curve" smooth="yes"/>
      <point x="306" y="251"/>
      <point x="291" y="208"/>
      <point x="281" y="207" type="curve" smooth="yes"/>
      <point x="55" y="196" type="line" smooth="yes"/>
      <point x="52" y="196"/>
      <point x="50" y="203"/>
      <point x="50" y="211" type="curve" smooth="yes"/>
      <point x="50" y="222"/>
      <point x="61" y="263"/>
    </contour>
  </outline>
</glyph>
<glyph name="period" format="1">
  <advance width="212"/>
  <unicode hex="002E"/>
  <outline>
    <contour>
      <point x="7" y="46" type="curve" smooth="yes"/>
      <point x="11" y="83"/>
      <point x="45" y="115"/>
      <point x="79" y="115" type="curve"/>
      <point x="109" y="115"/>
      <point x="128" y="90"/>
      <point x="125" y="58" type="curve" smooth="yes"/>
      <point x="121" y="21"/>
      <point x="89" y="-12"/>
      <point x="55" y="-12" type="curve"/>
      <point x="24" y="-12"/>
      <point x="3" y="14"/>
    </contour>
  </outline>
</glyph>
<glyph name="slash" format="1">
  <advance width="393"/>
  <unicode hex="002F"/>
  <outline>
    <contour>
      <point x="458" y="755" type="curve"/>
      <point x="34" y="-12" type="line" smooth="yes"/>
      <point x="31" y="-17"/>
      <point x="7" y="-34"/>
      <point x="-16" y="-34" type="curve" smooth="yes"/>
      <point x="-20" y="-34"/>
      <point x="-27" y="-30"/>
      <point x="-28" y="-28" type="curve"/>
      <point x="397" y="739" type="line" smooth="yes"/>
      <point x="402" y="747"/>
      <point x="428" y="761"/>
      <point x="446" y="761" type="curve" smooth="yes"/>
      <point x="452" y="761"/>
      <point x="456" y="758"/>
    </contour>
  </outline>
</glyph>
<glyph name="zero" format="1">
  <advance width="468"/>
  <unicode hex="0030"/>
  <outline>
    <contour>
      <point x="188.521" y="236" type="curve" smooth="yes"/>
      <point x="173.521" y="128"/>
      <point x="191.521" y="32"/>
      <point x="241.521" y="32" type="curve" smooth="yes"/>
      <point x="313.521" y="32"/>
      <point x="388.521" y="204"/>
      <point x="404.521" y="394" type="curve" smooth="yes"/>
      <point x="420.521" y="488"/>
      <point x="407.521" y="605"/>
      <point x="351.521" y="605" type="curve" smooth="yes"/>
      <point x="281.521" y="605"/>
      <point x="204.521" y="438"/>
    </contour>
    <contour>
      <point x="85.5215" y="307" type="curve" smooth="yes"/>
      <point x="121.521" y="491"/>
      <point x="240.521" y="641"/>
      <point x="358.521" y="641" type="curve" smooth="yes"/>
      <point x="488.521" y="641"/>
      <point x="539.521" y="498"/>
      <point x="505.521" y="326" type="curve" smooth="yes"/>
      <point x="471.521" y="154"/>
      <point x="357.521" y="-4"/>
      <point x="231.521" y="-4" type="curve" smooth="yes"/>
      <point x="112.521" y="-4"/>
      <point x="51.5215" y="135"/>
    </contour>
  </outline>
</glyph>
<glyph name="two" format="1">
  <advance width="468"/>
  <unicode hex="0032"/>
  <outline>
    <contour>
      <point x="497.188" y="501" type="curve" smooth="yes"/>
      <point x="497.188" y="413"/>
      <point x="444.188" y="348"/>
      <point x="370.188" y="278" type="curve" smooth="yes"/>
      <point x="282.188" y="195"/>
      <point x="161.188" y="92"/>
      <point x="163.188" y="92" type="curve"/>
      <point x="334.188" y="92" type="line" smooth="yes"/>
      <point x="388.188" y="92"/>
      <point x="413.188" y="125"/>
      <point x="429.188" y="162" type="curve" smooth="yes"/>
      <point x="431.188" y="167"/>
      <point x="436.188" y="170"/>
      <point x="443.188" y="170" type="curve" smooth="yes"/>
      <point x="449.188" y="170"/>
      <point x="458.188" y="166"/>
      <point x="460.188" y="164" type="curve"/>
      <point x="436.188" y="114"/>
      <point x="390.188" y="18"/>
      <point x="382.188" y="0" type="curve"/>
      <point x="382.188" y="0"/>
      <point x="57.1885" y="0"/>
      <point x="50.1885" y="0" type="curve"/>
      <point x="47.1885" y="1"/>
      <point x="43.1885" y="9"/>
      <point x="43.1885" y="18" type="curve"/>
      <point x="98.1885" y="68"/>
      <point x="226.188" y="202"/>
      <point x="284.188" y="270" type="curve" smooth="yes"/>
      <point x="349.188" y="346"/>
      <point x="381.188" y="412"/>
      <point x="381.188" y="477" type="curve" smooth="yes"/>
      <point x="381.188" y="531"/>
      <point x="351.188" y="567"/>
      <point x="299.188" y="567" type="curve" smooth="yes"/>
      <point x="233.188" y="567"/>
      <point x="180.188" y="506"/>
      <point x="169.188" y="492" type="curve"/>
      <point x="161.188" y="492"/>
      <point x="152.188" y="504"/>
      <point x="152.188" y="510" type="curve"/>
      <point x="163.188" y="535"/>
      <point x="255.188" y="642"/>
      <point x="352.188" y="642" type="curve" smooth="yes"/>
      <point x="425.188" y="642"/>
      <point x="497.188" y="589"/>
    </contour>
  </outline>
</glyph>
<glyph name="three" format="1">
  <advance width="468"/>
  <unicode hex="0033"/>
  <outline>
    <contour>
      <point x="357.504" y="642" type="curve" smooth="yes"/>
      <point x="404.504" y="642"/>
      <point x="470.504" y="611"/>
      <point x="470.504" y="524" type="curve" smooth="yes"/>
      <point x="470.504" y="448"/>
      <point x="395.504" y="396"/>
      <point x="350.504" y="376" type="curve"/>
      <point x="406.504" y="369"/>
      <point x="462.504" y="307"/>
      <point x="462.504" y="240" type="curve" smooth="yes"/>
      <point x="462.504" y="86"/>
      <point x="289.504" y="-5"/>
      <point x="189.504" y="-5" type="curve" smooth="yes"/>
      <point x="131.504" y="-5"/>
      <point x="92.5039" y="8"/>
      <point x="69.5039" y="24" type="curve"/>
      <point x="65.5039" y="29"/>
      <point x="60.5039" y="43"/>
      <point x="60.5039" y="54" type="curve" smooth="yes"/>
      <point x="60.5039" y="96"/>
      <point x="88.5039" y="116"/>
      <point x="110.504" y="116" type="curve" smooth="yes"/>
      <point x="144.504" y="116"/>
      <point x="150.504" y="86"/>
      <point x="162.504" y="68" type="curve" smooth="yes"/>
      <point x="176.504" y="46"/>
      <point x="201.504" y="34"/>
      <point x="226.504" y="34" type="curve" smooth="yes"/>
      <point x="283.504" y="34"/>
      <point x="354.504" y="105"/>
      <point x="354.504" y="218" type="curve" smooth="yes"/>
      <point x="354.504" y="285"/>
      <point x="324.504" y="324"/>
      <point x="260.504" y="324" type="curve" smooth="yes"/>
      <point x="243.504" y="324"/>
      <point x="220.504" y="319"/>
      <point x="208.504" y="316" type="curve"/>
      <point x="205.504" y="321"/>
      <point x="204.504" y="327"/>
      <point x="204.504" y="332" type="curve" smooth="yes"/>
      <point x="204.504" y="336"/>
      <point x="206.504" y="345"/>
      <point x="208.504" y="348" type="curve"/>
      <point x="280.504" y="359"/>
      <point x="376.504" y="412"/>
      <point x="376.504" y="494" type="curve" smooth="yes"/>
      <point x="376.504" y="552"/>
      <point x="342.504" y="576"/>
      <point x="300.504" y="576" type="curve" smooth="yes"/>
      <point x="242.504" y="576"/>
      <point x="196.504" y="517"/>
      <point x="186.504" y="509" type="curve"/>
      <point x="179.504" y="509"/>
      <point x="173.504" y="523"/>
      <point x="174.504" y="532" type="curve"/>
      <point x="208.504" y="580"/>
      <point x="281.504" y="642"/>
    </contour>
  </outline>
</glyph>
<glyph name="seven" format="1">
  <advance width="468"/>
  <unicode hex="0037"/>
  <outline>
    <contour>
      <point x="107.339" y="14" type="curve"/>
      <point x="198.339" y="127"/>
      <point x="403.339" y="446"/>
      <point x="464.339" y="542" type="curve"/>
      <point x="241.339" y="542" type="line" smooth="yes"/>
      <point x="199.339" y="542"/>
      <point x="173.339" y="496"/>
      <point x="155.339" y="461" type="curve" smooth="yes"/>
      <point x="153.339" y="458"/>
      <point x="151.339" y="457"/>
      <point x="145.339" y="456" type="curve" smooth="yes"/>
      <point x="137.339" y="455"/>
      <point x="128.339" y="460"/>
      <point x="124.339" y="463" type="curve"/>
      <point x="143.339" y="507"/>
      <point x="189.339" y="602"/>
      <point x="201.339" y="635" type="curve"/>
      <point x="478.339" y="635" type="line" smooth="yes"/>
      <point x="506.339" y="635"/>
      <point x="545.339" y="638"/>
      <point x="551.339" y="638" type="curve" smooth="yes"/>
      <point x="557.339" y="638"/>
      <point x="556.339" y="631"/>
      <point x="555.339" y="626" type="curve" smooth="yes"/>
      <point x="553.339" y="615"/>
      <point x="537.339" y="592"/>
      <point x="517.339" y="562" type="curve" smooth="yes"/>
      <point x="157.339" y="-6" type="line"/>
      <point x="154.339" y="-8"/>
      <point x="149.339" y="-8"/>
      <point x="145.339" y="-8" type="curve" smooth="yes"/>
      <point x="135.339" y="-8"/>
      <point x="104.339" y="0"/>
    </contour>
  </outline>
</glyph>
<glyph name="eight" format="1">
  <advance width="468"/>
  <unicode hex="0038"/>
  <outline>
    <contour>
      <point x="358.586" y="642" type="curve" smooth="yes"/>
      <point x="440.586" y="642"/>
      <point x="516.586" y="597"/>
      <point x="496.586" y="492" type="curve" smooth="yes"/>
      <point x="482.586" y="422"/>
      <point x="415.586" y="376"/>
      <point x="362.586" y="350" type="curve"/>
      <point x="358.586" y="348"/>
      <point x="359.586" y="346"/>
      <point x="361.586" y="344" type="curve" smooth="yes"/>
      <point x="415.586" y="301"/>
      <point x="467.586" y="234"/>
      <point x="453.586" y="164" type="curve" smooth="yes"/>
      <point x="431.586" y="56"/>
      <point x="325.586" y="-8"/>
      <point x="230.586" y="-8" type="curve" smooth="yes"/>
      <point x="128.586" y="-8"/>
      <point x="58.5859" y="64"/>
      <point x="77.5859" y="161" type="curve" smooth="yes"/>
      <point x="94.5859" y="249"/>
      <point x="181.586" y="290"/>
      <point x="227.586" y="314" type="curve" smooth="yes"/>
      <point x="230.586" y="316"/>
      <point x="231.586" y="319"/>
      <point x="229.586" y="320" type="curve" smooth="yes"/>
      <point x="195.586" y="348"/>
      <point x="152.586" y="408"/>
      <point x="166.586" y="482" type="curve" smooth="yes"/>
      <point x="183.586" y="567"/>
      <point x="266.586" y="642"/>
    </contour>
    <contour>
      <point x="347.586" y="608" type="curve" smooth="yes"/>
      <point x="307.586" y="608"/>
      <point x="268.586" y="564"/>
      <point x="261.586" y="500" type="curve" smooth="yes"/>
      <point x="255.586" y="440"/>
      <point x="296.586" y="400"/>
      <point x="328.586" y="374" type="curve" smooth="yes"/>
      <point x="330.586" y="373"/>
      <point x="331.586" y="372"/>
      <point x="333.586" y="372" type="curve" smooth="yes"/>
      <point x="335.586" y="372"/>
      <point x="336.586" y="372"/>
      <point x="338.586" y="374" type="curve" smooth="yes"/>
      <point x="372.586" y="406"/>
      <point x="399.586" y="448"/>
      <point x="405.586" y="502" type="curve" smooth="yes"/>
      <point x="411.586" y="548"/>
      <point x="395.586" y="608"/>
    </contour>
    <contour>
      <point x="244.586" y="28" type="curve" smooth="yes"/>
      <point x="297.586" y="28"/>
      <point x="338.586" y="73"/>
      <point x="348.586" y="129" type="curve" smooth="yes"/>
      <point x="363.586" y="215"/>
      <point x="271.586" y="282"/>
      <point x="261.586" y="290" type="curve" smooth="yes"/>
      <point x="259.586" y="291"/>
      <point x="258.586" y="291"/>
      <point x="256.586" y="291" type="curve" smooth="yes"/>
      <point x="255.586" y="291"/>
      <point x="254.586" y="291"/>
      <point x="253.586" y="290" type="curve" smooth="yes"/>
      <point x="214.586" y="256"/>
      <point x="190.586" y="216"/>
      <point x="180.586" y="154" type="curve" smooth="yes"/>
      <point x="166.586" y="74"/>
      <point x="199.586" y="28"/>
    </contour>
  </outline>
</glyph>
<glyph name="semicolon" format="1">
  <advance width="237"/>
  <unicode hex="003B"/>
  <outline>
    <contour>
      <point x="-19" y="-112" type="curve"/>
      <point x="-10" y="-106"/>
      <point x="51" y="-54"/>
      <point x="51" y="-9" type="curve" smooth="yes"/>
      <point x="51" y="20"/>
      <point x="26" y="23"/>
      <point x="26" y="62" type="curve" smooth="yes"/>
      <point x="26" y="110"/>
      <point x="64" y="132"/>
      <point x="97" y="132" type="curve" smooth="yes"/>
      <point x="107" y="132"/>
      <point x="126" y="125"/>
      <point x="130" y="119" type="curve"/>
      <point x="132" y="114"/>
      <point x="132" y="105"/>
      <point x="132" y="98" type="curve" smooth="yes"/>
      <point x="132" y="60"/>
      <point x="122" y="12"/>
      <point x="101" y="-24" type="curve" smooth="yes"/>
      <point x="73" y="-72"/>
      <point x="41" y="-101"/>
      <point x="-4" y="-131" type="curve"/>
      <point x="-10" y="-130"/>
      <point x="-19" y="-121"/>
    </contour>
    <contour>
      <point x="204" y="384" type="curve" smooth="yes"/>
      <point x="200" y="346"/>
      <point x="166" y="312"/>
      <point x="132" y="312" type="curve"/>
      <point x="100" y="312"/>
      <point x="80" y="340"/>
      <point x="84" y="372" type="curve" smooth="yes"/>
      <point x="88" y="410"/>
      <point x="122" y="441"/>
      <point x="156" y="441" type="curve"/>
      <point x="186" y="441"/>
      <point x="208" y="416"/>
    </contour>
  </outline>
</glyph>
<glyph name="at" format="1">
  <advance width="760"/>
  <unicode hex="0040"/>
  <outline>
    <contour>
      <point x="504" y="118" type="line" smooth="yes"/>
      <point x="494" y="70"/>
      <point x="506" y="50"/>
      <point x="532" y="50" type="curve" smooth="yes"/>
      <point x="592" y="50"/>
      <point x="672" y="163"/>
      <point x="672" y="284" type="curve" smooth="yes"/>
      <point x="672" y="436"/>
      <point x="599" y="538"/>
      <point x="440" y="538" type="curve" smooth="yes"/>
      <point x="286" y="538"/>
      <point x="77" y="381"/>
      <point x="77" y="141" type="curve" smooth="yes"/>
      <point x="77" y="66"/>
      <point x="104" y="-13"/>
      <point x="168" y="-69" type="curve" smooth="yes"/>
      <point x="184" y="-82"/>
      <point x="202" y="-92"/>
      <point x="210" y="-96" type="curve"/>
      <point x="204" y="-101"/>
      <point x="193" y="-104"/>
      <point x="177" y="-104" type="curve" smooth="yes"/>
      <point x="161" y="-104"/>
      <point x="128" y="-85"/>
      <point x="110" y="-68" type="curve" smooth="yes"/>
      <point x="60" y="-19"/>
      <point x="29" y="54"/>
      <point x="29" y="136" type="curve" smooth="yes"/>
      <point x="29" y="388"/>
      <point x="244" y="579"/>
      <point x="452" y="579" type="curve" smooth="yes"/>
      <point x="637" y="579"/>
      <point x="726" y="445"/>
      <point x="726" y="298" type="curve" smooth="yes"/>
      <point x="726" y="84"/>
      <point x="555" y="-12"/>
      <point x="482" y="-12" type="curve" smooth="yes"/>
      <point x="433" y="-12"/>
      <point x="406" y="18"/>
      <point x="406" y="58" type="curve" smooth="yes"/>
      <point x="406" y="64"/>
      <point x="407" y="74"/>
      <point x="409" y="88" type="curve" smooth="yes"/>
      <point x="411" y="102"/>
      <point x="413" y="104"/>
      <point x="414" y="110" type="curve"/>
      <point x="393" y="74"/>
      <point x="329" y="-6"/>
      <point x="270" y="-6" type="curve"/>
      <point x="211" y="-6"/>
      <point x="180" y="53"/>
      <point x="180" y="122" type="curve"/>
      <point x="180" y="284"/>
      <point x="344" y="441"/>
      <point x="476" y="441" type="curve" smooth="yes"/>
      <point x="512" y="441"/>
      <point x="546" y="433"/>
      <point x="566" y="426" type="curve"/>
    </contour>
    <contour>
      <point x="427" y="391" type="curve"/>
      <point x="355" y="391"/>
      <point x="280" y="267"/>
      <point x="280" y="151" type="curve" smooth="yes"/>
      <point x="280" y="96"/>
      <point x="295" y="67"/>
      <point x="323" y="67" type="curve"/>
      <point x="365" y="67"/>
      <point x="425" y="179"/>
      <point x="445" y="277" type="curve" smooth="yes"/>
      <point x="465" y="378" type="line"/>
      <point x="457" y="387"/>
      <point x="441" y="391"/>
    </contour>
  </outline>
</glyph>
<glyph name="B" format="1">
  <advance width="578"/>
  <unicode hex="0042"/>
  <outline>
    <contour>
      <point x="240" y="371" type="line"/>
      <point x="311" y="371" type="line" smooth="yes"/>
      <point x="367" y="371"/>
      <point x="410" y="421"/>
      <point x="423" y="487" type="curve" smooth="yes"/>
      <point x="441" y="579"/>
      <point x="405" y="622"/>
      <point x="339" y="622" type="curve" smooth="yes"/>
      <point x="323" y="622"/>
      <point x="296" y="621"/>
      <point x="290" y="611" type="curve" smooth="yes"/>
      <point x="283" y="599"/>
      <point x="279" y="573"/>
      <point x="273" y="543" type="curve" smooth="yes"/>
    </contour>
    <contour>
      <point x="232" y="333" type="line"/>
      <point x="189" y="114" type="line" smooth="yes"/>
      <point x="187" y="104"/>
      <point x="180" y="60"/>
      <point x="185" y="50" type="curve" smooth="yes"/>
      <point x="193" y="36"/>
      <point x="219" y="35"/>
      <point x="248" y="35" type="curve" smooth="yes"/>
      <point x="304" y="35"/>
      <point x="376" y="64"/>
      <point x="398" y="176" type="curve" smooth="yes"/>
      <point x="413" y="251"/>
      <point x="400" y="333"/>
      <point x="284" y="333" type="curve" smooth="yes"/>
    </contour>
    <contour>
      <point x="380" y="660" type="curve" smooth="yes"/>
      <point x="466" y="660"/>
      <point x="560" y="621"/>
      <point x="538" y="506" type="curve" smooth="yes"/>
      <point x="522" y="428"/>
      <point x="445" y="380"/>
      <point x="414" y="368" type="curve" smooth="yes"/>
      <point x="409" y="366"/>
      <point x="408" y="363"/>
      <point x="410" y="362" type="curve"/>
      <point x="455" y="358"/>
      <point x="541" y="298"/>
      <point x="521" y="196" type="curve" smooth="yes"/>
      <point x="509" y="134"/>
      <point x="461" y="72"/>
      <point x="405" y="38" type="curve" smooth="yes"/>
      <point x="347" y="2"/>
      <point x="278" y="-3"/>
      <point x="208" y="-3" type="curve" smooth="yes"/>
      <point x="188" y="-3"/>
      <point x="11" y="-3"/>
      <point x="-7" y="-3" type="curve"/>
      <point x="-10" y="3"/>
      <point x="-5" y="24"/>
      <point x="-0" y="30" type="curve"/>
      <point x="12" y="30"/>
      <point x="59" y="34"/>
      <point x="65" y="46" type="curve" smooth="yes"/>
      <point x="75" y="64"/>
      <point x="80" y="94"/>
      <point x="87" y="130" type="curve" smooth="yes"/>
      <point x="164" y="528" type="line" smooth="yes"/>
      <point x="171" y="564"/>
      <point x="178" y="594"/>
      <point x="175" y="612" type="curve" smooth="yes"/>
      <point x="173" y="624"/>
      <point x="128" y="628"/>
      <point x="116" y="628" type="curve"/>
      <point x="113" y="634"/>
      <point x="116" y="655"/>
      <point x="122" y="661" type="curve"/>
      <point x="162" y="659"/>
      <point x="205" y="657"/>
      <point x="243" y="657" type="curve" smooth="yes"/>
      <point x="281" y="657"/>
      <point x="326" y="660"/>
    </contour>
  </outline>
</glyph>
<glyph name="G" format="1">
  <advance width="682"/>
  <unicode hex="0047"/>
  <outline>
    <contour>
      <point x="454" y="667" type="curve" smooth="yes"/>
      <point x="513" y="666"/>
      <point x="581" y="651"/>
      <point x="632" y="639" type="curve"/>
      <point x="631" y="615"/>
      <point x="622" y="515"/>
      <point x="620" y="494" type="curve" smooth="yes"/>
      <point x="619" y="487"/>
      <point x="611" y="483"/>
      <point x="604" y="483" type="curve"/>
      <point x="600" y="483"/>
      <point x="592" y="483"/>
      <point x="588" y="489" type="curve"/>
      <point x="590" y="549"/>
      <point x="549" y="628"/>
      <point x="449" y="628" type="curve" smooth="yes"/>
      <point x="305" y="628"/>
      <point x="175" y="489"/>
      <point x="175" y="275" type="curve" smooth="yes"/>
      <point x="175" y="169"/>
      <point x="222" y="32"/>
      <point x="358" y="32" type="curve" smooth="yes"/>
      <point x="399" y="32"/>
      <point x="426" y="42"/>
      <point x="444" y="54" type="curve" smooth="yes"/>
      <point x="449" y="57"/>
      <point x="452" y="62"/>
      <point x="454" y="70" type="curve" smooth="yes"/>
      <point x="458" y="91"/>
      <point x="472" y="162"/>
      <point x="476" y="186" type="curve"/>
      <point x="481" y="211"/>
      <point x="486" y="229"/>
      <point x="484" y="248" type="curve" smooth="yes"/>
      <point x="482" y="266"/>
      <point x="431" y="270"/>
      <point x="420" y="270" type="curve"/>
      <point x="416" y="272"/>
      <point x="420" y="298"/>
      <point x="426" y="303" type="curve"/>
      <point x="468" y="301"/>
      <point x="513" y="297"/>
      <point x="555" y="297" type="curve" smooth="yes"/>
      <point x="593" y="297"/>
      <point x="626" y="301"/>
      <point x="664" y="303" type="curve"/>
      <point x="666" y="294"/>
      <point x="661" y="272"/>
      <point x="657" y="270" type="curve"/>
      <point x="648" y="270"/>
      <point x="610" y="264"/>
      <point x="602" y="255" type="curve" smooth="yes"/>
      <point x="595" y="245"/>
      <point x="587" y="220"/>
      <point x="582" y="196" type="curve"/>
      <point x="578" y="178"/>
      <point x="568" y="118"/>
      <point x="564" y="101" type="curve"/>
      <point x="561" y="86"/>
      <point x="565" y="76"/>
      <point x="565" y="68" type="curve" smooth="yes"/>
      <point x="564" y="59"/>
      <point x="552" y="49"/>
      <point x="536" y="41" type="curve" smooth="yes"/>
      <point x="488" y="17"/>
      <point x="434" y="-8"/>
      <point x="330" y="-8" type="curve" smooth="yes"/>
      <point x="156" y="-8"/>
      <point x="55" y="129"/>
      <point x="55" y="270" type="curve" smooth="yes"/>
      <point x="55" y="521"/>
      <point x="262" y="669"/>
    </contour>
  </outline>
</glyph>
<glyph name="I" format="1">
  <advance width="333"/>
  <unicode hex="0049"/>
  <outline>
    <contour>
      <point x="243" y="656" type="curve" smooth="yes"/>
      <point x="280" y="656"/>
      <point x="326" y="659"/>
      <point x="364" y="662" type="curve"/>
      <point x="368" y="656"/>
      <point x="364" y="635"/>
      <point x="358" y="629" type="curve"/>
      <point x="346" y="629"/>
      <point x="299" y="624"/>
      <point x="293" y="612" type="curve" smooth="yes"/>
      <point x="283" y="594"/>
      <point x="277" y="564"/>
      <point x="270" y="528" type="curve" smooth="yes"/>
      <point x="193" y="130" type="line" smooth="yes"/>
      <point x="186" y="94"/>
      <point x="180" y="64"/>
      <point x="183" y="46" type="curve" smooth="yes"/>
      <point x="185" y="34"/>
      <point x="229" y="29"/>
      <point x="241" y="29" type="curve"/>
      <point x="244" y="23"/>
      <point x="241" y="2"/>
      <point x="235" y="-4" type="curve"/>
      <point x="199" y="-1"/>
      <point x="153" y="2"/>
      <point x="115" y="2" type="curve" smooth="yes"/>
      <point x="78" y="2"/>
      <point x="31" y="-1"/>
      <point x="-7" y="-4" type="curve"/>
      <point x="-10" y="2"/>
      <point x="-5" y="23"/>
      <point x="-0" y="29" type="curve"/>
      <point x="12" y="29"/>
      <point x="59" y="34"/>
      <point x="65" y="46" type="curve" smooth="yes"/>
      <point x="75" y="64"/>
      <point x="80" y="94"/>
      <point x="87" y="130" type="curve" smooth="yes"/>
      <point x="165" y="528" type="line" smooth="yes"/>
      <point x="172" y="564"/>
      <point x="178" y="594"/>
      <point x="175" y="612" type="curve" smooth="yes"/>
      <point x="173" y="624"/>
      <point x="128" y="629"/>
      <point x="116" y="629" type="curve"/>
      <point x="113" y="635"/>
      <point x="117" y="656"/>
      <point x="123" y="662" type="curve"/>
      <point x="160" y="659"/>
      <point x="205" y="656"/>
    </contour>
  </outline>
</glyph>
<glyph name="K" format="1">
  <advance width="650"/>
  <unicode hex="004B"/>
  <outline>
    <contour>
      <point x="501" y="106" type="curve" smooth="yes"/>
      <point x="549" y="37"/>
      <point x="588" y="30"/>
      <point x="616" y="28" type="curve"/>
      <point x="620" y="22"/>
      <point x="612" y="0"/>
      <point x="611" y="-2" type="curve"/>
      <point x="567" y="-3"/>
      <point x="541" y="-3"/>
      <point x="513" y="1" type="curve" smooth="yes"/>
      <point x="457" y="3"/>
      <point x="425" y="22"/>
      <point x="391" y="72" type="curve" smooth="yes"/>
      <point x="372" y="100"/>
      <point x="302" y="209"/>
      <point x="244" y="303" type="curve" smooth="yes"/>
      <point x="242" y="306"/>
      <point x="239" y="306"/>
      <point x="236" y="306" type="curve" smooth="yes"/>
      <point x="232" y="306"/>
      <point x="228" y="304"/>
      <point x="226" y="302" type="curve"/>
      <point x="193" y="130" type="line" smooth="yes"/>
      <point x="186" y="94"/>
      <point x="180" y="64"/>
      <point x="183" y="46" type="curve" smooth="yes"/>
      <point x="185" y="34"/>
      <point x="229" y="29"/>
      <point x="241" y="29" type="curve"/>
      <point x="244" y="23"/>
      <point x="241" y="2"/>
      <point x="235" y="-4" type="curve"/>
      <point x="199" y="-1"/>
      <point x="153" y="2"/>
      <point x="115" y="2" type="curve" smooth="yes"/>
      <point x="78" y="2"/>
      <point x="31" y="-1"/>
      <point x="-7" y="-4" type="curve"/>
      <point x="-10" y="2"/>
      <point x="-5" y="23"/>
      <point x="-0" y="29" type="curve"/>
      <point x="12" y="29"/>
      <point x="59" y="34"/>
      <point x="65" y="46" type="curve" smooth="yes"/>
      <point x="75" y="64"/>
      <point x="80" y="94"/>
      <point x="87" y="130" type="curve" smooth="yes"/>
      <point x="164" y="528" type="line" smooth="yes"/>
      <point x="171" y="564"/>
      <point x="178" y="594"/>
      <point x="175" y="612" type="curve" smooth="yes"/>
      <point x="173" y="624"/>
      <point x="128" y="629"/>
      <point x="116" y="629" type="curve"/>
      <point x="113" y="635"/>
      <point x="117" y="656"/>
      <point x="123" y="662" type="curve"/>
      <point x="160" y="659"/>
      <point x="205" y="656"/>
      <point x="243" y="656" type="curve" smooth="yes"/>
      <point x="280" y="656"/>
      <point x="326" y="659"/>
      <point x="364" y="662" type="curve"/>
      <point x="368" y="656"/>
      <point x="364" y="635"/>
      <point x="358" y="629" type="curve"/>
      <point x="346" y="629"/>
      <point x="298" y="624"/>
      <point x="292" y="612" type="curve" smooth="yes"/>
      <point x="282" y="594"/>
      <point x="277" y="564"/>
      <point x="270" y="528" type="curve" smooth="yes"/>
      <point x="233" y="338" type="line"/>
      <point x="268" y="362"/>
      <point x="316" y="402"/>
      <point x="352" y="434" type="curve" smooth="yes"/>
      <point x="430" y="503"/>
      <point x="446" y="515"/>
      <point x="499" y="573" type="curve" smooth="yes"/>
      <point x="509" y="583"/>
      <point x="515" y="597"/>
      <point x="517" y="605" type="curve" smooth="yes"/>
      <point x="521" y="628"/>
      <point x="479" y="629"/>
      <point x="469" y="629" type="curve"/>
      <point x="467" y="636"/>
      <point x="470" y="653"/>
      <point x="475" y="662" type="curve"/>
      <point x="509" y="660"/>
      <point x="553" y="656"/>
      <point x="587" y="656" type="curve" smooth="yes"/>
      <point x="628" y="656"/>
      <point x="660" y="659"/>
      <point x="696" y="662" type="curve"/>
      <point x="697" y="656"/>
      <point x="694" y="633"/>
      <point x="688" y="630" type="curve"/>
      <point x="679" y="629"/>
      <point x="621" y="625"/>
      <point x="582" y="589" type="curve"/>
      <point x="533" y="542"/>
      <point x="432" y="453"/>
      <point x="341" y="371" type="curve" smooth="yes"/>
      <point x="334" y="365"/>
      <point x="334" y="360"/>
      <point x="337" y="355" type="curve" smooth="yes"/>
      <point x="398" y="256"/>
      <point x="446" y="182"/>
    </contour>
  </outline>
</glyph>
<glyph name="L" format="1">
  <advance width="538"/>
  <unicode hex="004C"/>
  <outline>
    <contour>
      <point x="192" y="130" type="line" smooth="yes"/>
      <point x="190" y="120"/>
      <point x="180" y="66"/>
      <point x="184" y="54" type="curve" smooth="yes"/>
      <point x="190" y="42"/>
      <point x="212" y="39"/>
      <point x="244" y="39" type="curve"/>
      <point x="302" y="39" type="line" smooth="yes"/>
      <point x="337" y="39"/>
      <point x="377" y="47"/>
      <point x="405" y="68" type="curve" smooth="yes"/>
      <point x="431" y="87"/>
      <point x="453" y="117"/>
      <point x="478" y="166" type="curve" smooth="yes"/>
      <point x="480" y="170"/>
      <point x="486" y="172"/>
      <point x="493" y="172" type="curve" smooth="yes"/>
      <point x="502" y="172"/>
      <point x="515" y="169"/>
      <point x="517" y="166" type="curve"/>
      <point x="489" y="112"/>
      <point x="449" y="41"/>
      <point x="434" y="-3" type="curve"/>
      <point x="370" y="-3"/>
      <point x="240" y="-1"/>
      <point x="115" y="-1" type="curve" smooth="yes"/>
      <point x="60" y="-1"/>
      <point x="18" y="-3"/>
      <point x="-7" y="-3" type="curve"/>
      <point x="-10" y="3"/>
      <point x="-5" y="24"/>
      <point x="-0" y="30" type="curve"/>
      <point x="12" y="30"/>
      <point x="59" y="34"/>
      <point x="65" y="46" type="curve" smooth="yes"/>
      <point x="75" y="64"/>
      <point x="80" y="94"/>
      <point x="87" y="130" type="curve" smooth="yes"/>
      <point x="164" y="528" type="line" smooth="yes"/>
      <point x="171" y="564"/>
      <point x="178" y="594"/>
      <point x="175" y="612" type="curve" smooth="yes"/>
      <point x="173" y="624"/>
      <point x="128" y="629"/>
      <point x="116" y="629" type="curve"/>
      <point x="113" y="635"/>
      <point x="116" y="656"/>
      <point x="122" y="662" type="curve"/>
      <point x="159" y="659"/>
      <point x="205" y="656"/>
      <point x="243" y="656" type="curve" smooth="yes"/>
      <point x="281" y="656"/>
      <point x="326" y="659"/>
      <point x="364" y="662" type="curve"/>
      <point x="368" y="656"/>
      <point x="363" y="635"/>
      <point x="357" y="629" type="curve"/>
      <point x="345" y="629"/>
      <point x="298" y="624"/>
      <point x="292" y="612" type="curve" smooth="yes"/>
      <point x="282" y="594"/>
      <point x="277" y="564"/>
      <point x="270" y="528" type="curve" smooth="yes"/>
    </contour>
  </outline>
</glyph>
<glyph name="M" format="1">
  <advance width="855"/>
  <unicode hex="004D"/>
  <outline>
    <contour>
      <point x="235" y="656" type="curve" smooth="yes"/>
      <point x="267" y="656"/>
      <point x="292" y="660"/>
      <point x="322" y="662" type="curve"/>
      <point x="332" y="598"/>
      <point x="384" y="366"/>
      <point x="418" y="192" type="curve"/>
      <point x="418" y="191"/>
      <point x="420" y="190"/>
      <point x="421" y="190" type="curve" smooth="yes"/>
      <point x="422" y="190"/>
      <point x="425" y="193"/>
      <point x="426" y="195" type="curve" smooth="yes"/>
      <point x="426" y="195"/>
      <point x="588" y="484"/>
      <point x="620" y="544" type="curve"/>
      <point x="644" y="588"/>
      <point x="678" y="660"/>
      <point x="678" y="660" type="curve"/>
      <point x="696" y="658"/>
      <point x="746" y="656"/>
      <point x="764" y="656" type="curve" smooth="yes"/>
      <point x="796" y="656"/>
      <point x="841" y="660"/>
      <point x="872" y="662" type="curve"/>
      <point x="874" y="658"/>
      <point x="872" y="632"/>
      <point x="869" y="628" type="curve"/>
      <point x="859" y="628"/>
      <point x="818" y="622"/>
      <point x="809" y="614" type="curve"/>
      <point x="801" y="606"/>
      <point x="795" y="594"/>
      <point x="792" y="574" type="curve"/>
      <point x="786" y="539"/>
      <point x="730" y="210"/>
      <point x="720" y="146" type="curve"/>
      <point x="714" y="107"/>
      <point x="709" y="72"/>
      <point x="713" y="47" type="curve" smooth="yes"/>
      <point x="715" y="33"/>
      <point x="764" y="30"/>
      <point x="771" y="30" type="curve"/>
      <point x="773" y="21"/>
      <point x="771" y="2"/>
      <point x="767" y="-4" type="curve"/>
      <point x="730" y="-2"/>
      <point x="691" y="3"/>
      <point x="650" y="3" type="curve" smooth="yes"/>
      <point x="607" y="3"/>
      <point x="562" y="-2"/>
      <point x="519" y="-4" type="curve"/>
      <point x="517" y="-1"/>
      <point x="521" y="22"/>
      <point x="525" y="30" type="curve"/>
      <point x="536" y="30"/>
      <point x="579" y="34"/>
      <point x="591" y="44" type="curve" smooth="yes"/>
      <point x="597" y="50"/>
      <point x="604" y="71"/>
      <point x="606" y="83" type="curve" smooth="yes"/>
      <point x="608" y="95"/>
      <point x="613" y="126"/>
      <point x="616" y="142" type="curve" smooth="yes"/>
      <point x="681" y="531" type="line" smooth="yes"/>
      <point x="682" y="535"/>
      <point x="685" y="554"/>
      <point x="678" y="554" type="curve" smooth="yes"/>
      <point x="676" y="554"/>
      <point x="675" y="552"/>
      <point x="672" y="547" type="curve" smooth="yes"/>
      <point x="394" y="44" type="line" smooth="yes"/>
      <point x="389" y="35"/>
      <point x="362" y="-1"/>
      <point x="348" y="-2" type="curve" smooth="yes"/>
      <point x="345" y="-2"/>
      <point x="343" y="-1"/>
      <point x="340" y="0" type="curve"/>
      <point x="230" y="554" type="line"/>
      <point x="184" y="341"/>
      <point x="150" y="188"/>
      <point x="131" y="104" type="curve" smooth="yes"/>
      <point x="128" y="88"/>
      <point x="125" y="62"/>
      <point x="125" y="54" type="curve" smooth="yes"/>
      <point x="127" y="36"/>
      <point x="190" y="30"/>
      <point x="197" y="30" type="curve"/>
      <point x="199" y="24"/>
      <point x="196" y="2"/>
      <point x="192" y="-4" type="curve"/>
      <point x="155" y="-2"/>
      <point x="128" y="3"/>
      <point x="87" y="3" type="curve" smooth="yes"/>
      <point x="44" y="3"/>
      <point x="16" y="-2"/>
      <point x="-27" y="-4" type="curve"/>
      <point x="-29" y="0"/>
      <point x="-26" y="19"/>
      <point x="-21" y="28" type="curve"/>
      <point x="-10" y="28"/>
      <point x="48" y="36"/>
      <point x="61" y="56" type="curve" smooth="yes"/>
      <point x="69" y="68"/>
      <point x="82" y="107"/>
      <point x="86" y="125" type="curve" smooth="yes"/>
      <point x="128" y="303"/>
      <point x="181" y="544"/>
      <point x="188" y="576" type="curve" smooth="yes"/>
      <point x="190" y="586"/>
      <point x="192" y="599"/>
      <point x="190" y="608" type="curve"/>
      <point x="187" y="620"/>
      <point x="145" y="629"/>
      <point x="131" y="629" type="curve"/>
      <point x="128" y="633"/>
      <point x="136" y="660"/>
      <point x="138" y="662" type="curve"/>
      <point x="180" y="660"/>
      <point x="192" y="656"/>
    </contour>
  </outline>
</glyph>
<glyph name="O" format="1">
  <advance width="707"/>
  <unicode hex="004F"/>
  <outline>
    <contour>
      <point x="404" y="626" type="curve"/>
      <point x="272" y="626"/>
      <point x="174" y="444"/>
      <point x="174" y="256" type="curve" smooth="yes"/>
      <point x="174" y="141"/>
      <point x="211" y="30"/>
      <point x="327" y="30" type="curve"/>
      <point x="471" y="30"/>
      <point x="556" y="230"/>
      <point x="556" y="402" type="curve" smooth="yes"/>
      <point x="556" y="508"/>
      <point x="520" y="626"/>
    </contour>
    <contour>
      <point x="420" y="666" type="curve" smooth="yes"/>
      <point x="581" y="666"/>
      <point x="675" y="530"/>
      <point x="675" y="386" type="curve" smooth="yes"/>
      <point x="675" y="141"/>
      <point x="486" y="-10"/>
      <point x="307" y="-10" type="curve" smooth="yes"/>
      <point x="156" y="-10"/>
      <point x="55" y="117"/>
      <point x="55" y="269" type="curve" smooth="yes"/>
      <point x="55" y="509"/>
      <point x="246" y="666"/>
    </contour>
  </outline>
</glyph>
<glyph name="Q" format="1">
  <advance width="701"/>
  <unicode hex="0051"/>
  <outline>
    <contour>
      <point x="425" y="667" type="curve" smooth="yes"/>
      <point x="589" y="667"/>
      <point x="691" y="524"/>
      <point x="671" y="360" type="curve" smooth="yes"/>
      <point x="656" y="176"/>
      <point x="525" y="51"/>
      <point x="395" y="7" type="curve"/>
      <point x="475" y="-39"/>
      <point x="501" y="-77"/>
      <point x="597" y="-77" type="curve" smooth="yes"/>
      <point x="627" y="-77"/>
      <point x="649" y="-72"/>
      <point x="656" y="-70" type="curve"/>
      <point x="663" y="-70"/>
      <point x="671" y="-74"/>
      <point x="673" y="-80" type="curve"/>
      <point x="639" y="-100"/>
      <point x="569" y="-138"/>
      <point x="512" y="-138" type="curve" smooth="yes"/>
      <point x="409" y="-138"/>
      <point x="345" y="-45"/>
      <point x="228" y="-4" type="curve" smooth="yes"/>
      <point x="109" y="38"/>
      <point x="38" y="150"/>
      <point x="54" y="294" type="curve" smooth="yes"/>
      <point x="72" y="512"/>
      <point x="261" y="667"/>
    </contour>
    <contour>
      <point x="404" y="627" type="curve" smooth="yes"/>
      <point x="265" y="627"/>
      <point x="187" y="447"/>
      <point x="174" y="297" type="curve" smooth="yes"/>
      <point x="159" y="162"/>
      <point x="201" y="30"/>
      <point x="321" y="30" type="curve" smooth="yes"/>
      <point x="459" y="30"/>
      <point x="539" y="210"/>
      <point x="552" y="360" type="curve" smooth="yes"/>
      <point x="567" y="495"/>
      <point x="521" y="627"/>
    </contour>
  </outline>
</glyph>
<glyph name="S" format="1">
  <advance width="486"/>
  <unicode hex="0053"/>
  <outline>
    <contour>
      <point x="321" y="668" type="curve" smooth="yes"/>
      <point x="377" y="668"/>
      <point x="416" y="654"/>
      <point x="468" y="642" type="curve"/>
      <point x="462" y="598"/>
      <point x="452" y="531"/>
      <point x="444" y="487" type="curve"/>
      <point x="441" y="482"/>
      <point x="436" y="480"/>
      <point x="432" y="480" type="curve" smooth="yes"/>
      <point x="428" y="480"/>
      <point x="411" y="480"/>
      <point x="409" y="488" type="curve"/>
      <point x="413" y="556"/>
      <point x="390" y="630"/>
      <point x="312" y="630" type="curve" smooth="yes"/>
      <point x="253" y="630"/>
      <point x="211" y="589"/>
      <point x="205" y="530" type="curve" smooth="yes"/>
      <point x="199" y="458"/>
      <point x="264" y="414"/>
      <point x="315" y="372" type="curve" smooth="yes"/>
      <point x="368" y="329"/>
      <point x="438" y="290"/>
      <point x="426" y="184" type="curve" smooth="yes"/>
      <point x="416" y="67"/>
      <point x="294" y="-10"/>
      <point x="193" y="-10" type="curve" smooth="yes"/>
      <point x="134" y="-10"/>
      <point x="79" y="9"/>
      <point x="33" y="25" type="curve"/>
      <point x="26" y="74"/>
      <point x="30" y="165"/>
      <point x="33" y="185" type="curve"/>
      <point x="37" y="190"/>
      <point x="54" y="195"/>
      <point x="60" y="195" type="curve" smooth="yes"/>
      <point x="66" y="195"/>
      <point x="70" y="193"/>
      <point x="71" y="188" type="curve"/>
      <point x="70" y="139"/>
      <point x="107" y="30"/>
      <point x="200" y="30" type="curve" smooth="yes"/>
      <point x="252" y="30"/>
      <point x="309" y="63"/>
      <point x="316" y="138" type="curve" smooth="yes"/>
      <point x="323" y="210"/>
      <point x="261" y="253"/>
      <point x="216" y="290" type="curve" smooth="yes"/>
      <point x="157" y="339"/>
      <point x="90" y="379"/>
      <point x="100" y="482" type="curve" smooth="yes"/>
      <point x="110" y="591"/>
      <point x="227" y="668"/>
    </contour>
  </outline>
</glyph>
<glyph name="W" format="1">
  <advance width="862"/>
  <unicode hex="0057"/>
  <outline>
    <contour>
      <point x="188" y="656" type="curve" smooth="yes"/>
      <point x="228" y="656"/>
      <point x="272" y="659"/>
      <point x="310" y="662" type="curve"/>
      <point x="312" y="656"/>
      <point x="308" y="633"/>
      <point x="303" y="629" type="curve"/>
      <point x="293" y="629"/>
      <point x="245" y="624"/>
      <point x="242" y="593" type="curve" smooth="yes"/>
      <point x="241" y="588"/>
      <point x="242" y="563"/>
      <point x="245" y="534" type="curve" smooth="yes"/>
      <point x="256" y="430"/>
      <point x="274" y="272"/>
      <point x="280" y="198" type="curve"/>
      <point x="280" y="198"/>
      <point x="474" y="595"/>
      <point x="492" y="627" type="curve"/>
      <point x="502" y="646"/>
      <point x="520" y="662"/>
      <point x="530" y="662" type="curve" smooth="yes"/>
      <point x="534" y="662"/>
      <point x="536" y="657"/>
      <point x="538" y="646" type="curve"/>
      <point x="553" y="551"/>
      <point x="593" y="279"/>
      <point x="605" y="180" type="curve"/>
      <point x="605" y="180"/>
      <point x="758" y="506"/>
      <point x="766" y="522" type="curve"/>
      <point x="777" y="547"/>
      <point x="791" y="578"/>
      <point x="795" y="598" type="curve" smooth="yes"/>
      <point x="799" y="623"/>
      <point x="745" y="629"/>
      <point x="733" y="629" type="curve"/>
      <point x="729" y="633"/>
      <point x="734" y="656"/>
      <point x="740" y="662" type="curve"/>
      <point x="778" y="659"/>
      <point x="806" y="656"/>
      <point x="844" y="656" type="curve" smooth="yes"/>
      <point x="886" y="656"/>
      <point x="905" y="660"/>
      <point x="943" y="662" type="curve"/>
      <point x="945" y="656"/>
      <point x="940" y="633"/>
      <point x="936" y="629" type="curve"/>
      <point x="926" y="629"/>
      <point x="887" y="623"/>
      <point x="869" y="607" type="curve" smooth="yes"/>
      <point x="853" y="591"/>
      <point x="836" y="566"/>
      <point x="818" y="528" type="curve"/>
      <point x="771" y="434"/>
      <point x="626" y="128"/>
      <point x="578" y="36" type="curve"/>
      <point x="568" y="14"/>
      <point x="546" y="-6"/>
      <point x="534" y="-6" type="curve" smooth="yes"/>
      <point x="528" y="-6"/>
      <point x="525" y="2"/>
      <point x="523" y="8" type="curve"/>
      <point x="512" y="102"/>
      <point x="468" y="366"/>
      <point x="456" y="463" type="curve"/>
      <point x="456" y="463"/>
      <point x="284" y="110"/>
      <point x="247" y="38" type="curve"/>
      <point x="240" y="24"/>
      <point x="217" y="-6"/>
      <point x="205" y="-6" type="curve" smooth="yes"/>
      <point x="199" y="-6"/>
      <point x="196" y="2"/>
      <point x="194" y="8" type="curve"/>
      <point x="135" y="521" type="line" smooth="yes"/>
      <point x="132" y="556"/>
      <point x="131" y="572"/>
      <point x="121" y="602" type="curve" smooth="yes"/>
      <point x="114" y="622"/>
      <point x="77" y="629"/>
      <point x="65" y="629" type="curve"/>
      <point x="62" y="633"/>
      <point x="67" y="658"/>
      <point x="71" y="662" type="curve"/>
      <point x="109" y="659"/>
      <point x="147" y="656"/>
    </contour>
  </outline>
</glyph>
<glyph name="X" format="1">
  <advance width="639"/>
  <unicode hex="0058"/>
  <outline>
    <contour>
      <point x="231" y="656" type="curve" smooth="yes"/>
      <point x="277" y="656"/>
      <point x="321" y="660"/>
      <point x="359" y="662" type="curve"/>
      <point x="360" y="656"/>
      <point x="356" y="629"/>
      <point x="351" y="629" type="curve"/>
      <point x="338" y="629"/>
      <point x="297" y="622"/>
      <point x="293" y="602" type="curve" smooth="yes"/>
      <point x="291" y="595"/>
      <point x="293" y="585"/>
      <point x="297" y="576" type="curve" smooth="yes"/>
      <point x="370" y="403" type="line"/>
      <point x="432" y="471"/>
      <point x="512" y="558"/>
      <point x="532" y="588" type="curve" smooth="yes"/>
      <point x="534" y="592"/>
      <point x="538" y="597"/>
      <point x="538" y="601" type="curve" smooth="yes"/>
      <point x="540" y="613"/>
      <point x="519" y="628"/>
      <point x="477" y="628" type="curve"/>
      <point x="473" y="628"/>
      <point x="477" y="656"/>
      <point x="482" y="662" type="curve"/>
      <point x="517" y="658"/>
      <point x="559" y="656"/>
      <point x="593" y="656" type="curve" smooth="yes"/>
      <point x="641" y="656"/>
      <point x="675" y="659"/>
      <point x="701" y="662" type="curve"/>
      <point x="703" y="656"/>
      <point x="699" y="631"/>
      <point x="693" y="628" type="curve"/>
      <point x="686" y="628"/>
      <point x="633" y="626"/>
      <point x="591" y="582" type="curve" smooth="yes"/>
      <point x="385" y="365" type="line"/>
      <point x="411" y="301"/>
      <point x="505" y="79"/>
      <point x="511" y="71" type="curve"/>
      <point x="527" y="39"/>
      <point x="573" y="29"/>
      <point x="595" y="29" type="curve"/>
      <point x="597" y="22"/>
      <point x="593" y="1"/>
      <point x="589" y="-4" type="curve"/>
      <point x="552" y="-2"/>
      <point x="506" y="2"/>
      <point x="468" y="2" type="curve" smooth="yes"/>
      <point x="416" y="2"/>
      <point x="377" y="-2"/>
      <point x="325" y="-4" type="curve"/>
      <point x="321" y="1"/>
      <point x="327" y="29"/>
      <point x="332" y="29" type="curve" smooth="yes"/>
      <point x="342" y="29"/>
      <point x="387" y="40"/>
      <point x="391" y="58" type="curve" smooth="yes"/>
      <point x="392" y="61"/>
      <point x="391" y="66"/>
      <point x="390" y="69" type="curve" smooth="yes"/>
      <point x="299" y="286" type="line"/>
      <point x="255" y="236"/>
      <point x="145" y="112"/>
      <point x="118" y="74" type="curve" smooth="yes"/>
      <point x="114" y="68"/>
      <point x="109" y="62"/>
      <point x="108" y="58" type="curve" smooth="yes"/>
      <point x="105" y="43"/>
      <point x="136" y="29"/>
      <point x="176" y="29" type="curve"/>
      <point x="179" y="23"/>
      <point x="176" y="3"/>
      <point x="172" y="-4" type="curve"/>
      <point x="140" y="-2"/>
      <point x="93" y="2"/>
      <point x="59" y="2" type="curve" smooth="yes"/>
      <point x="11" y="2"/>
      <point x="-20" y="-2"/>
      <point x="-58" y="-4" type="curve"/>
      <point x="-60" y="2"/>
      <point x="-55" y="24"/>
      <point x="-51" y="29" type="curve"/>
      <point x="-44" y="29"/>
      <point x="19" y="32"/>
      <point x="55" y="72" type="curve" smooth="yes"/>
      <point x="281" y="327" type="line"/>
      <point x="192" y="542" type="line" smooth="yes"/>
      <point x="180" y="574"/>
      <point x="167" y="601"/>
      <point x="150" y="614" type="curve" smooth="yes"/>
      <point x="138" y="624"/>
      <point x="106" y="629"/>
      <point x="95" y="629" type="curve"/>
      <point x="90" y="629"/>
      <point x="96" y="657"/>
      <point x="102" y="662" type="curve"/>
      <point x="147" y="660"/>
      <point x="185" y="656"/>
    </contour>
  </outline>
</glyph>
<glyph name="Z" format="1">
  <advance width="606"/>
  <unicode hex="005A"/>
  <outline>
    <contour>
      <point x="285" y="617" type="line" smooth="yes"/>
      <point x="204" y="617"/>
      <point x="162" y="555"/>
      <point x="128" y="483" type="curve" smooth="yes"/>
      <point x="126" y="480"/>
      <point x="123" y="478"/>
      <point x="116" y="478" type="curve" smooth="yes"/>
      <point x="107" y="478"/>
      <point x="94" y="481"/>
      <point x="92" y="484" type="curve"/>
      <point x="116" y="536"/>
      <point x="139" y="600"/>
      <point x="159" y="666" type="curve"/>
      <point x="175" y="662"/>
      <point x="238" y="658"/>
      <point x="257" y="658" type="curve" smooth="yes"/>
      <point x="412" y="658" type="line" smooth="yes"/>
      <point x="490" y="658"/>
      <point x="541" y="662"/>
      <point x="620" y="668" type="curve"/>
      <point x="624" y="667"/>
      <point x="629" y="650"/>
      <point x="627" y="641" type="curve"/>
      <point x="624" y="633"/>
      <point x="236" y="161"/>
      <point x="132" y="42" type="curve"/>
      <point x="355" y="42" type="line" smooth="yes"/>
      <point x="396" y="42"/>
      <point x="429" y="59"/>
      <point x="455" y="84" type="curve" smooth="yes"/>
      <point x="480" y="108"/>
      <point x="498" y="136"/>
      <point x="517" y="171" type="curve" smooth="yes"/>
      <point x="519" y="174"/>
      <point x="524" y="176"/>
      <point x="530" y="176" type="curve" smooth="yes"/>
      <point x="539" y="176"/>
      <point x="552" y="172"/>
      <point x="554" y="168" type="curve"/>
      <point x="522" y="102"/>
      <point x="494" y="46"/>
      <point x="476" y="0" type="curve"/>
      <point x="2" y="0" type="line"/>
      <point x="-9" y="0"/>
      <point x="-19" y="13"/>
      <point x="-15" y="18" type="curve" smooth="yes"/>
      <point x="485" y="618" type="line"/>
    </contour>
  </outline>
</glyph>
<glyph name="underscore" format="1">
  <advance width="478"/>
  <unicode hex="005F"/>
  <outline>
    <contour>
      <point x="-36" y="-36" type="curve"/>
      <point x="-36" y="-34"/>
      <point x="-23" y="15"/>
      <point x="-12" y="15" type="curve" smooth="yes"/>
      <point x="404" y="15" type="line" smooth="yes"/>
      <point x="407" y="15"/>
      <point x="408" y="13"/>
      <point x="408" y="9" type="curve" smooth="yes"/>
      <point x="408" y="4"/>
      <point x="402" y="-14"/>
      <point x="391" y="-38" type="curve" smooth="yes"/>
      <point x="388" y="-44"/>
      <point x="384" y="-44"/>
      <point x="384" y="-44" type="curve"/>
      <point x="-31" y="-44" type="line"/>
      <point x="-31" y="-44"/>
      <point x="-37" y="-44"/>
    </contour>
  </outline>
</glyph>
<glyph name="c" format="1">
  <advance width="369"/>
  <unicode hex="0063"/>
  <outline>
    <contour>
      <point x="271" y="442" type="curve" smooth="yes"/>
      <point x="307" y="442"/>
      <point x="333" y="428"/>
      <point x="346" y="418" type="curve"/>
      <point x="350" y="412"/>
      <point x="358" y="397"/>
      <point x="358" y="380" type="curve" smooth="yes"/>
      <point x="358" y="354"/>
      <point x="339" y="327"/>
      <point x="313" y="327" type="curve" smooth="yes"/>
      <point x="293" y="327"/>
      <point x="278" y="340"/>
      <point x="270" y="356" type="curve" smooth="yes"/>
      <point x="260" y="372"/>
      <point x="248" y="396"/>
      <point x="222" y="396" type="curve" smooth="yes"/>
      <point x="176" y="396"/>
      <point x="122" y="286"/>
      <point x="122" y="166" type="curve" smooth="yes"/>
      <point x="122" y="114"/>
      <point x="136" y="65"/>
      <point x="188" y="65" type="curve" smooth="yes"/>
      <point x="233" y="65"/>
      <point x="286" y="128"/>
      <point x="289" y="131" type="curve"/>
      <point x="295" y="131"/>
      <point x="302" y="114"/>
      <point x="302" y="108" type="curve"/>
      <point x="289" y="87"/>
      <point x="206" y="-6"/>
      <point x="136" y="-6" type="curve" smooth="yes"/>
      <point x="71" y="-6"/>
      <point x="20" y="42"/>
      <point x="20" y="136" type="curve" smooth="yes"/>
      <point x="20" y="294"/>
      <point x="159" y="442"/>
    </contour>
  </outline>
</glyph>
<glyph name="d" format="1">
  <advance width="469"/>
  <unicode hex="0064"/>
  <outline>
    <contour>
      <point x="292" y="347" type="curve"/>
      <point x="294" y="373"/>
      <point x="284" y="394"/>
      <point x="262" y="394" type="curve" smooth="yes"/>
      <point x="188" y="394"/>
      <point x="115" y="267"/>
      <point x="115" y="151" type="curve" smooth="yes"/>
      <point x="115" y="99"/>
      <point x="128" y="67"/>
      <point x="158" y="67" type="curve" smooth="yes"/>
      <point x="200" y="67"/>
      <point x="264" y="190"/>
      <point x="280" y="278" type="curve"/>
      <point x="280" y="278"/>
      <point x="292" y="341"/>
    </contour>
    <contour>
      <point x="336" y="560" type="line"/>
      <point x="339" y="578"/>
      <point x="345" y="601"/>
      <point x="345" y="612" type="curve" smooth="yes"/>
      <point x="345" y="631"/>
      <point x="300" y="632"/>
      <point x="284" y="632" type="curve"/>
      <point x="281" y="636"/>
      <point x="284" y="653"/>
      <point x="288" y="657" type="curve"/>
      <point x="343" y="662"/>
      <point x="422" y="682"/>
      <point x="444" y="690" type="curve"/>
      <point x="449" y="687"/>
      <point x="450" y="678"/>
      <point x="450" y="672" type="curve" smooth="yes"/>
      <point x="450" y="664"/>
      <point x="442" y="620"/>
      <point x="437" y="596" type="curve" smooth="yes"/>
      <point x="342" y="119" type="line" smooth="yes"/>
      <point x="341" y="115"/>
      <point x="338" y="91"/>
      <point x="338" y="86" type="curve" smooth="yes"/>
      <point x="338" y="77"/>
      <point x="340" y="64"/>
      <point x="350" y="64" type="curve" smooth="yes"/>
      <point x="372" y="64"/>
      <point x="418" y="119"/>
      <point x="421" y="123" type="curve"/>
      <point x="426" y="123"/>
      <point x="433" y="106"/>
      <point x="433" y="100" type="curve"/>
      <point x="419" y="74"/>
      <point x="338" y="-7"/>
      <point x="288" y="-7" type="curve" smooth="yes"/>
      <point x="266" y="-7"/>
      <point x="252" y="8"/>
      <point x="246" y="31" type="curve" smooth="yes"/>
      <point x="243" y="39"/>
      <point x="242" y="56"/>
      <point x="244" y="78" type="curve" smooth="yes"/>
      <point x="246" y="92"/>
      <point x="247" y="105"/>
      <point x="249" y="113" type="curve"/>
      <point x="231" y="79"/>
      <point x="162" y="-6"/>
      <point x="102" y="-6" type="curve" smooth="yes"/>
      <point x="43" y="-6"/>
      <point x="15" y="53"/>
      <point x="15" y="116" type="curve" smooth="yes"/>
      <point x="15" y="278"/>
      <point x="171" y="432"/>
      <point x="298" y="442" type="curve" smooth="yes"/>
      <point x="314" y="442"/>
      <point x="308" y="442"/>
      <point x="314" y="442" type="curve"/>
    </contour>
  </outline>
</glyph>
<glyph name="f" format="1">
  <advance width="304"/>
  <unicode hex="0066"/>
  <outline>
    <contour>
      <point x="336" y="690" type="curve" smooth="yes"/>
      <point x="368" y="690"/>
      <point x="391" y="678"/>
      <point x="400" y="668" type="curve"/>
      <point x="402" y="663"/>
      <point x="404" y="656"/>
      <point x="404" y="648" type="curve" smooth="yes"/>
      <point x="403" y="624"/>
      <point x="391" y="600"/>
      <point x="370" y="600" type="curve" smooth="yes"/>
      <point x="353" y="600"/>
      <point x="341" y="609"/>
      <point x="330" y="623" type="curve" smooth="yes"/>
      <point x="322" y="633"/>
      <point x="313" y="646"/>
      <point x="297" y="646" type="curve" smooth="yes"/>
      <point x="262" y="646"/>
      <point x="244" y="578"/>
      <point x="213" y="419" type="curve"/>
      <point x="313" y="419" type="line" smooth="yes"/>
      <point x="317" y="419"/>
      <point x="318" y="411"/>
      <point x="318" y="406" type="curve" smooth="yes"/>
      <point x="318" y="396"/>
      <point x="313" y="385"/>
      <point x="308" y="377" type="curve"/>
      <point x="205" y="377" type="line"/>
      <point x="205" y="377"/>
      <point x="172" y="176"/>
      <point x="148" y="50" type="curve" smooth="yes"/>
      <point x="116" y="-114"/>
      <point x="12" y="-226"/>
      <point x="-68" y="-226" type="curve" smooth="yes"/>
      <point x="-100" y="-226"/>
      <point x="-123" y="-214"/>
      <point x="-132" y="-204" type="curve"/>
      <point x="-134" y="-197"/>
      <point x="-136" y="-189"/>
      <point x="-136" y="-180" type="curve" smooth="yes"/>
      <point x="-135" y="-157"/>
      <point x="-122" y="-135"/>
      <point x="-102" y="-135" type="curve" smooth="yes"/>
      <point x="-85" y="-135"/>
      <point x="-73" y="-144"/>
      <point x="-62" y="-158" type="curve" smooth="yes"/>
      <point x="-54" y="-168"/>
      <point x="-45" y="-182"/>
      <point x="-29" y="-182" type="curve" smooth="yes"/>
      <point x="10" y="-182"/>
      <point x="22" y="-113"/>
      <point x="53" y="46" type="curve"/>
      <point x="111" y="377" type="line"/>
      <point x="36" y="377" type="line" smooth="yes"/>
      <point x="35" y="377"/>
      <point x="34" y="378"/>
      <point x="34" y="380" type="curve" smooth="yes"/>
      <point x="34" y="390"/>
      <point x="58" y="419"/>
      <point x="81" y="419" type="curve" smooth="yes"/>
      <point x="118" y="419" type="line"/>
      <point x="150" y="583"/>
      <point x="262" y="690"/>
    </contour>
  </outline>
</glyph>
<glyph name="h" format="1">
  <advance width="487"/>
  <unicode hex="0068"/>
  <outline>
    <contour>
      <point x="226" y="596" type="curve"/>
      <point x="226" y="596"/>
      <point x="173" y="326"/>
      <point x="172" y="322" type="curve"/>
      <point x="170" y="316"/>
      <point x="161" y="261"/>
      <point x="160" y="256" type="curve"/>
      <point x="182" y="302"/>
      <point x="286" y="442"/>
      <point x="344" y="442" type="curve"/>
      <point x="392" y="442"/>
      <point x="408" y="414"/>
      <point x="408" y="366" type="curve" smooth="yes"/>
      <point x="408" y="332"/>
      <point x="396" y="278"/>
      <point x="390" y="246" type="curve" smooth="yes"/>
      <point x="364" y="119" type="line" smooth="yes"/>
      <point x="363" y="115"/>
      <point x="360" y="91"/>
      <point x="360" y="86" type="curve" smooth="yes"/>
      <point x="360" y="77"/>
      <point x="362" y="63"/>
      <point x="372" y="63" type="curve" smooth="yes"/>
      <point x="394" y="63"/>
      <point x="439" y="119"/>
      <point x="442" y="123" type="curve"/>
      <point x="447" y="123"/>
      <point x="454" y="106"/>
      <point x="454" y="100" type="curve"/>
      <point x="440" y="74"/>
      <point x="360" y="-7"/>
      <point x="310" y="-7" type="curve" smooth="yes"/>
      <point x="282" y="-7"/>
      <point x="261" y="14"/>
      <point x="261" y="54" type="curve" smooth="yes"/>
      <point x="261" y="65"/>
      <point x="265" y="97"/>
      <point x="269" y="111" type="curve"/>
      <point x="298" y="253" type="line" smooth="yes"/>
      <point x="300" y="263"/>
      <point x="308" y="308"/>
      <point x="308" y="318" type="curve" smooth="yes"/>
      <point x="308" y="334"/>
      <point x="304" y="350"/>
      <point x="290" y="350" type="curve" smooth="yes"/>
      <point x="258" y="350"/>
      <point x="159" y="227"/>
      <point x="133" y="105" type="curve"/>
      <point x="130" y="89"/>
      <point x="115" y="23"/>
      <point x="110" y="0" type="curve"/>
      <point x="100" y="-3"/>
      <point x="74" y="-5"/>
      <point x="64" y="-5" type="curve" smooth="yes"/>
      <point x="54" y="-5"/>
      <point x="30" y="-3"/>
      <point x="18" y="0" type="curve"/>
      <point x="21" y="16"/>
      <point x="126" y="557"/>
      <point x="126" y="560" type="curve"/>
      <point x="130" y="578"/>
      <point x="134" y="601"/>
      <point x="134" y="612" type="curve" smooth="yes"/>
      <point x="134" y="631"/>
      <point x="90" y="632"/>
      <point x="74" y="632" type="curve"/>
      <point x="71" y="636"/>
      <point x="74" y="653"/>
      <point x="78" y="657" type="curve"/>
      <point x="133" y="662"/>
      <point x="212" y="682"/>
      <point x="234" y="690" type="curve"/>
      <point x="239" y="687"/>
      <point x="239" y="678"/>
      <point x="239" y="672" type="curve" smooth="yes"/>
      <point x="239" y="664"/>
      <point x="230" y="616"/>
    </contour>
  </outline>
</glyph>
<glyph name="l" format="1">
  <advance width="262"/>
  <unicode hex="006C"/>
  <outline>
    <contour>
      <point x="128" y="560" type="line" smooth="yes"/>
      <point x="132" y="578"/>
      <point x="138" y="601"/>
      <point x="138" y="612" type="curve" smooth="yes"/>
      <point x="138" y="631"/>
      <point x="92" y="632"/>
      <point x="76" y="632" type="curve"/>
      <point x="73" y="636"/>
      <point x="76" y="653"/>
      <point x="80" y="657" type="curve"/>
      <point x="135" y="662"/>
      <point x="214" y="682"/>
      <point x="236" y="690" type="curve"/>
      <point x="241" y="687"/>
      <point x="243" y="678"/>
      <point x="243" y="672" type="curve" smooth="yes"/>
      <point x="243" y="664"/>
      <point x="235" y="620"/>
      <point x="230" y="596" type="curve" smooth="yes"/>
      <point x="136" y="119" type="line" smooth="yes"/>
      <point x="135" y="114"/>
      <point x="132" y="91"/>
      <point x="132" y="86" type="curve" smooth="yes"/>
      <point x="132" y="77"/>
      <point x="134" y="63"/>
      <point x="144" y="63" type="curve" smooth="yes"/>
      <point x="166" y="63"/>
      <point x="211" y="119"/>
      <point x="214" y="123" type="curve"/>
      <point x="219" y="123"/>
      <point x="226" y="106"/>
      <point x="226" y="100" type="curve"/>
      <point x="212" y="74"/>
      <point x="132" y="-7"/>
      <point x="82" y="-7" type="curve" smooth="yes"/>
      <point x="54" y="-7"/>
      <point x="33" y="14"/>
      <point x="33" y="54" type="curve" smooth="yes"/>
      <point x="33" y="65"/>
      <point x="38" y="97"/>
      <point x="41" y="111" type="curve"/>
    </contour>
  </outline>
</glyph>
<glyph name="m" format="1">
  <advance width="736"/>
  <unicode hex="006D"/>
  <outline>
    <contour>
      <point x="518" y="111" type="curve"/>
      <point x="523" y="133"/>
      <point x="548" y="253"/>
      <point x="548" y="253" type="curve" smooth="yes"/>
      <point x="550" y="263"/>
      <point x="558" y="308"/>
      <point x="558" y="318" type="curve" smooth="yes"/>
      <point x="558" y="336"/>
      <point x="554" y="350"/>
      <point x="540" y="350" type="curve" smooth="yes"/>
      <point x="506" y="350"/>
      <point x="410" y="226"/>
      <point x="386" y="112" type="curve"/>
      <point x="363" y="0" type="line"/>
      <point x="351" y="-2"/>
      <point x="328" y="-4"/>
      <point x="316" y="-4" type="curve" smooth="yes"/>
      <point x="304" y="-4"/>
      <point x="283" y="-2"/>
      <point x="270" y="0" type="curve"/>
      <point x="324" y="263" type="line" smooth="yes"/>
      <point x="327" y="277"/>
      <point x="332" y="310"/>
      <point x="332" y="320" type="curve" smooth="yes"/>
      <point x="332" y="338"/>
      <point x="326" y="350"/>
      <point x="314" y="350" type="curve" smooth="yes"/>
      <point x="277" y="350"/>
      <point x="184" y="218"/>
      <point x="160" y="106" type="curve" smooth="yes"/>
      <point x="138" y="0" type="line"/>
      <point x="126" y="-2"/>
      <point x="104" y="-5"/>
      <point x="92" y="-5" type="curve" smooth="yes"/>
      <point x="80" y="-5"/>
      <point x="58" y="-2"/>
      <point x="45" y="0" type="curve"/>
      <point x="108" y="316" type="line" smooth="yes"/>
      <point x="109" y="321"/>
      <point x="112" y="343"/>
      <point x="112" y="348" type="curve" smooth="yes"/>
      <point x="112" y="357"/>
      <point x="110" y="372"/>
      <point x="100" y="372" type="curve" smooth="yes"/>
      <point x="78" y="372"/>
      <point x="32" y="316"/>
      <point x="29" y="312" type="curve"/>
      <point x="24" y="312"/>
      <point x="17" y="329"/>
      <point x="17" y="335" type="curve"/>
      <point x="31" y="361"/>
      <point x="108" y="442"/>
      <point x="158" y="442" type="curve" smooth="yes"/>
      <point x="188" y="442"/>
      <point x="210" y="418"/>
      <point x="210" y="380" type="curve" smooth="yes"/>
      <point x="210" y="369"/>
      <point x="205" y="340"/>
      <point x="202" y="324" type="curve" smooth="yes"/>
      <point x="198" y="300"/>
      <point x="191" y="274"/>
      <point x="187" y="256" type="curve"/>
      <point x="220" y="322"/>
      <point x="309" y="442"/>
      <point x="360" y="442" type="curve" smooth="yes"/>
      <point x="417" y="442"/>
      <point x="430" y="401"/>
      <point x="430" y="351" type="curve" smooth="yes"/>
      <point x="430" y="331"/>
      <point x="425" y="294"/>
      <point x="420" y="274" type="curve"/>
      <point x="456" y="339"/>
      <point x="542" y="442"/>
      <point x="590" y="442" type="curve" smooth="yes"/>
      <point x="641" y="442"/>
      <point x="658" y="415"/>
      <point x="658" y="366" type="curve" smooth="yes"/>
      <point x="658" y="330"/>
      <point x="646" y="276"/>
      <point x="640" y="246" type="curve"/>
      <point x="638" y="234"/>
      <point x="614" y="133"/>
      <point x="612" y="119" type="curve"/>
      <point x="610" y="109"/>
      <point x="609" y="91"/>
      <point x="609" y="86" type="curve" smooth="yes"/>
      <point x="609" y="77"/>
      <point x="610" y="64"/>
      <point x="620" y="64" type="curve" smooth="yes"/>
      <point x="642" y="64"/>
      <point x="688" y="119"/>
      <point x="691" y="123" type="curve"/>
      <point x="696" y="123"/>
      <point x="703" y="106"/>
      <point x="703" y="100" type="curve"/>
      <point x="689" y="74"/>
      <point x="608" y="-7"/>
      <point x="558" y="-7" type="curve" smooth="yes"/>
      <point x="531" y="-7"/>
      <point x="510" y="14"/>
      <point x="510" y="54" type="curve" smooth="yes"/>
      <point x="510" y="65"/>
      <point x="515" y="97"/>
    </contour>
  </outline>
</glyph>
<glyph name="n" format="1">
  <advance width="518"/>
  <unicode hex="006E"/>
  <outline>
    <contour>
      <point x="202" y="324" type="curve"/>
      <point x="201" y="318"/>
      <point x="188" y="260"/>
      <point x="188" y="260" type="curve"/>
      <point x="210" y="306"/>
      <point x="312" y="442"/>
      <point x="370" y="442" type="curve"/>
      <point x="421" y="442"/>
      <point x="438" y="415"/>
      <point x="438" y="366" type="curve" smooth="yes"/>
      <point x="438" y="334"/>
      <point x="426" y="276"/>
      <point x="420" y="246" type="curve" smooth="yes"/>
      <point x="394" y="119" type="line" smooth="yes"/>
      <point x="392" y="112"/>
      <point x="391" y="91"/>
      <point x="391" y="86" type="curve" smooth="yes"/>
      <point x="391" y="77"/>
      <point x="392" y="63"/>
      <point x="402" y="63" type="curve" smooth="yes"/>
      <point x="424" y="63"/>
      <point x="470" y="119"/>
      <point x="473" y="123" type="curve"/>
      <point x="478" y="123"/>
      <point x="485" y="106"/>
      <point x="485" y="100" type="curve"/>
      <point x="471" y="74"/>
      <point x="390" y="-7"/>
      <point x="340" y="-7" type="curve" smooth="yes"/>
      <point x="313" y="-7"/>
      <point x="292" y="14"/>
      <point x="292" y="54" type="curve" smooth="yes"/>
      <point x="292" y="65"/>
      <point x="297" y="97"/>
      <point x="300" y="111" type="curve"/>
      <point x="328" y="253" type="line" smooth="yes"/>
      <point x="330" y="263"/>
      <point x="338" y="308"/>
      <point x="338" y="318" type="curve" smooth="yes"/>
      <point x="338" y="336"/>
      <point x="334" y="350"/>
      <point x="320" y="350" type="curve" smooth="yes"/>
      <point x="287" y="350"/>
      <point x="186" y="232"/>
      <point x="160" y="106" type="curve"/>
      <point x="156" y="82"/>
      <point x="143" y="24"/>
      <point x="138" y="0" type="curve"/>
      <point x="126" y="-2"/>
      <point x="104" y="-5"/>
      <point x="92" y="-5" type="curve" smooth="yes"/>
      <point x="80" y="-5"/>
      <point x="58" y="-2"/>
      <point x="45" y="0" type="curve"/>
      <point x="108" y="316" type="line" smooth="yes"/>
      <point x="109" y="321"/>
      <point x="112" y="343"/>
      <point x="112" y="348" type="curve" smooth="yes"/>
      <point x="112" y="357"/>
      <point x="110" y="372"/>
      <point x="100" y="372" type="curve" smooth="yes"/>
      <point x="78" y="372"/>
      <point x="32" y="316"/>
      <point x="29" y="312" type="curve"/>
      <point x="24" y="312"/>
      <point x="17" y="329"/>
      <point x="17" y="335" type="curve"/>
      <point x="31" y="361"/>
      <point x="108" y="442"/>
      <point x="158" y="442" type="curve" smooth="yes"/>
      <point x="188" y="442"/>
      <point x="210" y="418"/>
      <point x="210" y="380" type="curve" smooth="yes"/>
      <point x="210" y="369"/>
      <point x="206" y="340"/>
    </contour>
  </outline>
</glyph>
<glyph name="t" format="1">
  <advance width="303"/>
  <unicode hex="0074"/>
  <outline>
    <contour>
      <point x="116" y="419" type="line"/>
      <point x="130" y="488" type="line"/>
      <point x="141" y="502"/>
      <point x="209" y="554"/>
      <point x="217" y="554" type="curve" smooth="yes"/>
      <point x="223" y="554"/>
      <point x="230" y="551"/>
      <point x="234" y="548" type="curve"/>
      <point x="210" y="419" type="line"/>
      <point x="292" y="419" type="line" smooth="yes"/>
      <point x="296" y="419"/>
      <point x="296" y="411"/>
      <point x="296" y="406" type="curve" smooth="yes"/>
      <point x="296" y="396"/>
      <point x="291" y="385"/>
      <point x="286" y="377" type="curve"/>
      <point x="202" y="377" type="line"/>
      <point x="152" y="119" type="line" smooth="yes"/>
      <point x="150" y="111"/>
      <point x="147" y="91"/>
      <point x="147" y="86" type="curve" smooth="yes"/>
      <point x="147" y="77"/>
      <point x="150" y="63"/>
      <point x="160" y="63" type="curve" smooth="yes"/>
      <point x="182" y="63"/>
      <point x="227" y="119"/>
      <point x="230" y="123" type="curve"/>
      <point x="235" y="123"/>
      <point x="242" y="106"/>
      <point x="242" y="100" type="curve"/>
      <point x="228" y="74"/>
      <point x="147" y="-7"/>
      <point x="97" y="-7" type="curve" smooth="yes"/>
      <point x="70" y="-7"/>
      <point x="48" y="14"/>
      <point x="48" y="54" type="curve" smooth="yes"/>
      <point x="48" y="65"/>
      <point x="52" y="94"/>
      <point x="56" y="111" type="curve" smooth="yes"/>
      <point x="108" y="377" type="line"/>
      <point x="38" y="377" type="line" smooth="yes"/>
      <point x="37" y="377"/>
      <point x="36" y="378"/>
      <point x="36" y="380" type="curve" smooth="yes"/>
      <point x="36" y="390"/>
      <point x="60" y="419"/>
      <point x="83" y="419" type="curve" smooth="yes"/>
    </contour>
  </outline>
</glyph>
<glyph name="v" format="1">
  <advance width="452"/>
  <unicode hex="0076"/>
  <outline>
    <contour>
      <point x="211" y="88" type="curve"/>
      <point x="263" y="130"/>
      <point x="293" y="166"/>
      <point x="319" y="218" type="curve" smooth="yes"/>
      <point x="339" y="257"/>
      <point x="344" y="298"/>
      <point x="344" y="320" type="curve" smooth="yes"/>
      <point x="344" y="343"/>
      <point x="331" y="372"/>
      <point x="310" y="390" type="curve"/>
      <point x="313" y="417"/>
      <point x="342" y="442"/>
      <point x="366" y="442" type="curve" smooth="yes"/>
      <point x="404" y="442"/>
      <point x="433" y="413"/>
      <point x="433" y="356" type="curve" smooth="yes"/>
      <point x="433" y="230"/>
      <point x="188" y="-6"/>
      <point x="122" y="-6" type="curve"/>
      <point x="108" y="23"/>
      <point x="100" y="143"/>
      <point x="100" y="219" type="curve" smooth="yes"/>
      <point x="100" y="344" type="line" smooth="yes"/>
      <point x="100" y="353"/>
      <point x="99" y="368"/>
      <point x="89" y="368" type="curve" smooth="yes"/>
      <point x="71" y="368"/>
      <point x="28" y="316"/>
      <point x="25" y="312" type="curve"/>
      <point x="20" y="312"/>
      <point x="13" y="329"/>
      <point x="13" y="335" type="curve"/>
      <point x="27" y="361"/>
      <point x="104" y="442"/>
      <point x="154" y="442" type="curve" smooth="yes"/>
      <point x="186" y="442"/>
      <point x="198" y="417"/>
      <point x="198" y="387" type="curve" smooth="yes"/>
      <point x="198" y="387"/>
      <point x="198" y="350"/>
      <point x="198" y="344" type="curve"/>
      <point x="198" y="258" type="line" smooth="yes"/>
      <point x="198" y="182"/>
      <point x="205" y="104"/>
    </contour>
  </outline>
</glyph>
<glyph name="w" format="1">
  <advance width="677"/>
  <unicode hex="0077"/>
  <outline>
    <contour>
      <point x="422" y="390" type="curve"/>
      <point x="422" y="344"/>
      <point x="427" y="266"/>
      <point x="432" y="206" type="curve" smooth="yes"/>
      <point x="437" y="154"/>
      <point x="443" y="104"/>
      <point x="450" y="94" type="curve"/>
      <point x="490" y="124"/>
      <point x="526" y="164"/>
      <point x="550" y="218" type="curve" smooth="yes"/>
      <point x="568" y="256"/>
      <point x="568" y="295"/>
      <point x="568" y="318" type="curve" smooth="yes"/>
      <point x="568" y="343"/>
      <point x="555" y="372"/>
      <point x="534" y="390" type="curve"/>
      <point x="537" y="417"/>
      <point x="567" y="442"/>
      <point x="591" y="442" type="curve" smooth="yes"/>
      <point x="629" y="442"/>
      <point x="657" y="413"/>
      <point x="657" y="356" type="curve" smooth="yes"/>
      <point x="657" y="230"/>
      <point x="437" y="-5"/>
      <point x="365" y="-5" type="curve"/>
      <point x="355" y="9"/>
      <point x="343" y="89"/>
      <point x="339" y="126" type="curve" smooth="yes"/>
      <point x="335" y="156"/>
      <point x="332" y="191"/>
      <point x="332" y="203" type="curve"/>
      <point x="282" y="121"/>
      <point x="180" y="8"/>
      <point x="123" y="-6" type="curve"/>
      <point x="109" y="23"/>
      <point x="100" y="143"/>
      <point x="100" y="219" type="curve" smooth="yes"/>
      <point x="100" y="344" type="line" smooth="yes"/>
      <point x="100" y="353"/>
      <point x="99" y="368"/>
      <point x="89" y="368" type="curve" smooth="yes"/>
      <point x="71" y="368"/>
      <point x="28" y="316"/>
      <point x="25" y="312" type="curve"/>
      <point x="20" y="312"/>
      <point x="13" y="329"/>
      <point x="13" y="335" type="curve"/>
      <point x="27" y="361"/>
      <point x="104" y="442"/>
      <point x="154" y="442" type="curve" smooth="yes"/>
      <point x="186" y="442"/>
      <point x="198" y="417"/>
      <point x="198" y="387" type="curve" smooth="yes"/>
      <point x="198" y="387"/>
      <point x="198" y="350"/>
      <point x="198" y="344" type="curve"/>
      <point x="198" y="258" type="line" smooth="yes"/>
      <point x="198" y="182"/>
      <point x="205" y="122"/>
      <point x="211" y="106" type="curve"/>
      <point x="246" y="138"/>
      <point x="287" y="201"/>
      <point x="305" y="236" type="curve" smooth="yes"/>
      <point x="324" y="272"/>
      <point x="336" y="307"/>
      <point x="344" y="335" type="curve"/>
      <point x="352" y="357"/>
      <point x="404" y="388"/>
    </contour>
  </outline>
</glyph>
<glyph name="x" format="1">
  <advance width="496"/>
  <unicode hex="0078"/>
  <outline>
    <contour>
      <point x="181" y="442" type="curve" smooth="yes"/>
      <point x="211" y="442"/>
      <point x="230" y="407"/>
      <point x="240" y="371" type="curve" smooth="yes"/>
      <point x="266" y="282" type="line"/>
      <point x="316" y="373" type="line"/>
      <point x="336" y="410"/>
      <point x="368" y="442"/>
      <point x="404" y="442" type="curve" smooth="yes"/>
      <point x="431" y="442"/>
      <point x="457" y="431"/>
      <point x="469" y="420" type="curve"/>
      <point x="473" y="412"/>
      <point x="480" y="394"/>
      <point x="480" y="382" type="curve" smooth="yes"/>
      <point x="480" y="358"/>
      <point x="465" y="328"/>
      <point x="435" y="328" type="curve" smooth="yes"/>
      <point x="415" y="328"/>
      <point x="401" y="342"/>
      <point x="394" y="354" type="curve" smooth="yes"/>
      <point x="388" y="364"/>
      <point x="378" y="376"/>
      <point x="370" y="376" type="curve" smooth="yes"/>
      <point x="361" y="376"/>
      <point x="350" y="363"/>
      <point x="340" y="346" type="curve" smooth="yes"/>
      <point x="278" y="240" type="line"/>
      <point x="320" y="104" type="line" smooth="yes"/>
      <point x="326" y="84"/>
      <point x="337" y="64"/>
      <point x="356" y="64" type="curve" smooth="yes"/>
      <point x="376" y="64"/>
      <point x="419" y="113"/>
      <point x="426" y="123" type="curve"/>
      <point x="431" y="123"/>
      <point x="438" y="106"/>
      <point x="438" y="100" type="curve"/>
      <point x="426" y="77"/>
      <point x="345" y="-6"/>
      <point x="296" y="-6" type="curve" smooth="yes"/>
      <point x="263" y="-6"/>
      <point x="244" y="31"/>
      <point x="232" y="70" type="curve"/>
      <point x="232" y="71"/>
      <point x="215" y="129"/>
      <point x="208" y="153" type="curve"/>
      <point x="158" y="64" type="line"/>
      <point x="138" y="27"/>
      <point x="106" y="-6"/>
      <point x="70" y="-6" type="curve" smooth="yes"/>
      <point x="40" y="-6"/>
      <point x="21" y="6"/>
      <point x="7" y="16" type="curve"/>
      <point x="1" y="23"/>
      <point x="-5" y="37"/>
      <point x="-5" y="52" type="curve" smooth="yes"/>
      <point x="-5" y="76"/>
      <point x="8" y="108"/>
      <point x="38" y="108" type="curve" smooth="yes"/>
      <point x="58" y="108"/>
      <point x="73" y="94"/>
      <point x="80" y="82" type="curve" smooth="yes"/>
      <point x="86" y="72"/>
      <point x="96" y="61"/>
      <point x="104" y="61" type="curve" smooth="yes"/>
      <point x="112" y="61"/>
      <point x="123" y="70"/>
      <point x="135" y="92" type="curve" smooth="yes"/>
      <point x="194" y="195" type="line"/>
      <point x="154" y="328" type="line" smooth="yes"/>
      <point x="150" y="343"/>
      <point x="138" y="368"/>
      <point x="118" y="368" type="curve" smooth="yes"/>
      <point x="102" y="368"/>
      <point x="61" y="323"/>
      <point x="54" y="313" type="curve"/>
      <point x="49" y="313"/>
      <point x="42" y="330"/>
      <point x="42" y="336" type="curve"/>
      <point x="55" y="360"/>
      <point x="132" y="442"/>
    </contour>
  </outline>
</glyph>
<glyph name="y" format="1">
  <advance width="473"/>
  <unicode hex="0079"/>
  <outline>
    <contour>
      <point x="131" y="442" type="curve" smooth="yes"/>
      <point x="245" y="442"/>
      <point x="242" y="81"/>
      <point x="242" y="20" type="curve"/>
      <point x="278" y="64"/>
      <point x="353" y="185"/>
      <point x="353" y="294" type="curve" smooth="yes"/>
      <point x="353" y="344"/>
      <point x="333" y="372"/>
      <point x="320" y="388" type="curve"/>
      <point x="324" y="418"/>
      <point x="352" y="442"/>
      <point x="378" y="442" type="curve" smooth="yes"/>
      <point x="417" y="442"/>
      <point x="439" y="402"/>
      <point x="439" y="356" type="curve" smooth="yes"/>
      <point x="439" y="122"/>
      <point x="105" y="-226"/>
      <point x="-30" y="-226" type="curve" smooth="yes"/>
      <point x="-66" y="-226"/>
      <point x="-93" y="-206"/>
      <point x="-93" y="-174" type="curve" smooth="yes"/>
      <point x="-93" y="-157"/>
      <point x="-81" y="-135"/>
      <point x="-66" y="-127" type="curve"/>
      <point x="-51" y="-136"/>
      <point x="-7" y="-153"/>
      <point x="23" y="-153" type="curve" smooth="yes"/>
      <point x="85" y="-153"/>
      <point x="113" y="-119"/>
      <point x="131" y="-92" type="curve" smooth="yes"/>
      <point x="147" y="-60"/>
      <point x="144" y="13"/>
      <point x="144" y="56" type="curve" smooth="yes"/>
      <point x="144" y="170"/>
      <point x="128" y="368"/>
      <point x="79" y="368" type="curve" smooth="yes"/>
      <point x="56" y="368"/>
      <point x="18" y="315"/>
      <point x="15" y="312" type="curve"/>
      <point x="9" y="312"/>
      <point x="3" y="331"/>
      <point x="3" y="335" type="curve"/>
      <point x="14" y="354"/>
      <point x="84" y="442"/>
    </contour>
  </outline>
</glyph>
<glyph name="braceright" format="1">
  <advance width="230"/>
  <unicode hex="007D"/>
  <outline>
    <contour>
      <point x="140" y="740" type="curve"/>
      <point x="179" y="726"/>
      <point x="241" y="655"/>
      <point x="222" y="557" type="curve" smooth="yes"/>
      <point x="216" y="527"/>
      <point x="202" y="502"/>
      <point x="188" y="478" type="curve" smooth="yes"/>
      <point x="174" y="454"/>
      <point x="159" y="429"/>
      <point x="154" y="403" type="curve" smooth="yes"/>
      <point x="144" y="350"/>
      <point x="176" y="325"/>
      <point x="210" y="314" type="curve"/>
      <point x="211" y="312"/>
      <point x="211" y="306"/>
      <point x="210" y="302" type="curve" smooth="yes"/>
      <point x="209" y="298"/>
      <point x="208" y="294"/>
      <point x="206" y="292" type="curve"/>
      <point x="167" y="281"/>
      <point x="125" y="255"/>
      <point x="115" y="202" type="curve" smooth="yes"/>
      <point x="110" y="176"/>
      <point x="116" y="153"/>
      <point x="120" y="129" type="curve" smooth="yes"/>
      <point x="125" y="104"/>
      <point x="129" y="78"/>
      <point x="123" y="48" type="curve" smooth="yes"/>
      <point x="104" y="-50"/>
      <point x="14" y="-120"/>
      <point x="-30" y="-134" type="curve"/>
      <point x="-37" y="-134"/>
      <point x="-41" y="-122"/>
      <point x="-38" y="-114" type="curve"/>
      <point x="-10" y="-100"/>
      <point x="47" y="-52"/>
      <point x="57" y="2" type="curve" smooth="yes"/>
      <point x="64" y="40"/>
      <point x="59" y="62"/>
      <point x="53" y="88" type="curve" smooth="yes"/>
      <point x="48" y="111"/>
      <point x="43" y="137"/>
      <point x="51" y="177" type="curve" smooth="yes"/>
      <point x="65" y="247"/>
      <point x="127" y="294"/>
      <point x="155" y="302" type="curve"/>
      <point x="130" y="310"/>
      <point x="86" y="358"/>
      <point x="100" y="428" type="curve" smooth="yes"/>
      <point x="108" y="470"/>
      <point x="123" y="496"/>
      <point x="138" y="520" type="curve" smooth="yes"/>
      <point x="153" y="545"/>
      <point x="167" y="568"/>
      <point x="174" y="604" type="curve" smooth="yes"/>
      <point x="184" y="658"/>
      <point x="147" y="705"/>
      <point x="124" y="719" type="curve"/>
      <point x="124" y="727"/>
      <point x="134" y="740"/>
    </contour>
  </outline>
</glyph>
<glyph name="cent" format="1">
  <advance width="381"/>
  <unicode hex="00A2"/>
  <outline>
    <contour>
      <point x="270" y="474" type="line"/>
      <point x="277" y="474"/>
      <point x="303" y="473"/>
      <point x="302" y="466" type="curve"/>
      <point x="126" y="-45" type="line"/>
      <point x="118" y="-45"/>
      <point x="93" y="-43"/>
      <point x="94" y="-36" type="curve"/>
    </contour>
    <component base="c" xOffset="3"/>
  </outline>
</glyph>
<glyph name="sterling" format="1">
  <advance width="463"/>
  <unicode hex="00A3"/>
  <outline>
    <contour>
      <point x="201" y="259" type="curve" smooth="yes"/>
      <point x="186" y="184"/>
      <point x="143" y="131"/>
      <point x="114" y="105" type="curve"/>
      <point x="132" y="113"/>
      <point x="152" y="115"/>
      <point x="183" y="115" type="curve" smooth="yes"/>
      <point x="225" y="115"/>
      <point x="276" y="78"/>
      <point x="318" y="78" type="curve" smooth="yes"/>
      <point x="356" y="78"/>
      <point x="378" y="119"/>
      <point x="392" y="138" type="curve" smooth="yes"/>
      <point x="396" y="139"/>
      <point x="401" y="134"/>
      <point x="403" y="126" type="curve" smooth="yes"/>
      <point x="405" y="121"/>
      <point x="404" y="116"/>
      <point x="403" y="112" type="curve" smooth="yes"/>
      <point x="385" y="78"/>
      <point x="331" y="-8"/>
      <point x="262" y="-8" type="curve" smooth="yes"/>
      <point x="200" y="-8"/>
      <point x="150" y="40"/>
      <point x="92" y="40" type="curve" smooth="yes"/>
      <point x="69" y="40"/>
      <point x="31" y="8"/>
      <point x="12" y="-8" type="curve"/>
      <point x="3" y="-8"/>
      <point x="-2" y="8"/>
      <point x="0" y="16" type="curve" smooth="yes"/>
      <point x="18" y="42"/>
      <point x="49" y="68"/>
      <point x="67" y="92" type="curve"/>
      <point x="88" y="134"/>
      <point x="102" y="182"/>
      <point x="112" y="234" type="curve" smooth="yes"/>
      <point x="115.236" y="250.901"/>
      <point x="116.274" y="271.939"/>
      <point x="116.695" y="294" type="curve"/>
      <point x="55" y="294" type="line"/>
      <point x="51" y="304"/>
      <point x="68" y="329"/>
      <point x="77" y="334" type="curve"/>
      <point x="117.126" y="334" type="line"/>
      <point x="117.419" y="360.229"/>
      <point x="118.171" y="385.282"/>
      <point x="122" y="404" type="curve" smooth="yes"/>
      <point x="152" y="555"/>
      <point x="265" y="638"/>
      <point x="358" y="638" type="curve" smooth="yes"/>
      <point x="392" y="638"/>
      <point x="407" y="625"/>
      <point x="419" y="607" type="curve"/>
      <point x="424" y="584"/>
      <point x="408" y="537"/>
      <point x="376" y="537" type="curve" smooth="yes"/>
      <point x="335" y="537"/>
      <point x="340" y="589"/>
      <point x="301" y="589" type="curve" smooth="yes"/>
      <point x="251" y="589"/>
      <point x="228" y="522"/>
      <point x="215" y="454" type="curve" smooth="yes"/>
      <point x="207.975" y="415.362"/>
      <point x="207.804" y="372.955"/>
      <point x="206.864" y="334" type="curve"/>
      <point x="346" y="334" type="line"/>
      <point x="354" y="328"/>
      <point x="337" y="300"/>
      <point x="328" y="294" type="curve"/>
      <point x="205.22" y="294" type="line"/>
      <point x="204.356" y="281.482"/>
      <point x="203.06" y="269.711"/>
    </contour>
  </outline>
</glyph>
<glyph name="yen" format="1">
  <advance width="614"/>
  <unicode hex="00A5"/>
  <outline>
    <contour>
      <point x="140" y="134" type="line" smooth="yes"/>
      <point x="137" y="134"/>
      <point x="136" y="138"/>
      <point x="136" y="142" type="curve" smooth="yes"/>
      <point x="136" y="151"/>
      <point x="142" y="167"/>
      <point x="150" y="175" type="curve"/>
      <point x="232.518" y="175" type="line"/>
      <point x="240.871" y="218" type="line"/>
      <point x="156" y="218" type="line" smooth="yes"/>
      <point x="153" y="218"/>
      <point x="152" y="221"/>
      <point x="152" y="225" type="curve" smooth="yes"/>
      <point x="152" y="234"/>
      <point x="158" y="251"/>
      <point x="166" y="259" type="curve"/>
      <point x="248.835" y="259" type="line"/>
      <point x="250" y="265" type="line" smooth="yes"/>
      <point x="251" y="272"/>
      <point x="250" y="279"/>
      <point x="248" y="288" type="curve" smooth="yes"/>
      <point x="242" y="314"/>
      <point x="174" y="522"/>
      <point x="174" y="522" type="curve" smooth="yes"/>
      <point x="164" y="553"/>
      <point x="157" y="565"/>
      <point x="143" y="582" type="curve" smooth="yes"/>
      <point x="132" y="599"/>
      <point x="103" y="605"/>
      <point x="92" y="605" type="curve"/>
      <point x="88" y="609"/>
      <point x="91" y="631"/>
      <point x="97" y="637" type="curve"/>
      <point x="135" y="634"/>
      <point x="176" y="631"/>
      <point x="217" y="631" type="curve" smooth="yes"/>
      <point x="258" y="631"/>
      <point x="302" y="634"/>
      <point x="338" y="637" type="curve"/>
      <point x="340" y="631"/>
      <point x="337" y="609"/>
      <point x="331" y="605" type="curve"/>
      <point x="319" y="605"/>
      <point x="277" y="601"/>
      <point x="272" y="577" type="curve" smooth="yes"/>
      <point x="270" y="571"/>
      <point x="273" y="565"/>
      <point x="276" y="555" type="curve" smooth="yes"/>
      <point x="347" y="333" type="line"/>
      <point x="379" y="373"/>
      <point x="473" y="509"/>
      <point x="508" y="563" type="curve" smooth="yes"/>
      <point x="512" y="569"/>
      <point x="514" y="575"/>
      <point x="515" y="581" type="curve" smooth="yes"/>
      <point x="517" y="593"/>
      <point x="485" y="604"/>
      <point x="454" y="604" type="curve"/>
      <point x="451" y="609"/>
      <point x="455" y="631"/>
      <point x="459" y="636" type="curve"/>
      <point x="496" y="633"/>
      <point x="517" y="630"/>
      <point x="554" y="630" type="curve" smooth="yes"/>
      <point x="597" y="630"/>
      <point x="618" y="634"/>
      <point x="655" y="636" type="curve"/>
      <point x="657" y="632"/>
      <point x="652" y="608"/>
      <point x="648" y="604" type="curve"/>
      <point x="638" y="604"/>
      <point x="591" y="604"/>
      <point x="569" y="574" type="curve" smooth="yes"/>
      <point x="557" y="560"/>
      <point x="379" y="316"/>
      <point x="361" y="288" type="curve" smooth="yes"/>
      <point x="355" y="279"/>
      <point x="354" y="272"/>
      <point x="352" y="264" type="curve" smooth="yes"/>
      <point x="350.986" y="259" type="line"/>
      <point x="444" y="259" type="line" smooth="yes"/>
      <point x="446" y="259"/>
      <point x="447" y="256"/>
      <point x="447" y="252" type="curve" smooth="yes"/>
      <point x="447" y="244"/>
      <point x="444" y="228"/>
      <point x="434" y="218" type="curve"/>
      <point x="342.667" y="218" type="line"/>
      <point x="333.942" y="175" type="line"/>
      <point x="428" y="175" type="line" smooth="yes"/>
      <point x="430" y="175"/>
      <point x="431" y="172"/>
      <point x="431" y="168" type="curve" smooth="yes"/>
      <point x="431" y="160"/>
      <point x="428" y="144"/>
      <point x="418" y="134" type="curve"/>
      <point x="325.623" y="134" type="line"/>
      <point x="324" y="126" type="line" smooth="yes"/>
      <point x="316" y="90"/>
      <point x="312" y="61"/>
      <point x="315" y="44" type="curve" smooth="yes"/>
      <point x="317" y="32"/>
      <point x="359" y="28"/>
      <point x="371" y="28" type="curve"/>
      <point x="374" y="22"/>
      <point x="371" y="2"/>
      <point x="365" y="-4" type="curve"/>
      <point x="330" y="-1"/>
      <point x="285" y="2"/>
      <point x="249" y="2" type="curve" smooth="yes"/>
      <point x="213" y="2"/>
      <point x="168" y="-1"/>
      <point x="132" y="-4" type="curve"/>
      <point x="128" y="2"/>
      <point x="133" y="22"/>
      <point x="139" y="28" type="curve"/>
      <point x="151" y="28"/>
      <point x="195" y="32"/>
      <point x="201" y="44" type="curve" smooth="yes"/>
      <point x="211" y="61"/>
      <point x="215" y="90"/>
      <point x="223" y="126" type="curve" smooth="yes"/>
      <point x="224.554" y="134" type="line"/>
    </contour>
  </outline>
</glyph>
<glyph name="section" format="1">
  <advance width="417"/>
  <unicode hex="00A7"/>
  <outline>
    <contour>
      <point x="201.974" y="-32.0009" type="curve"/>
      <point x="164.554" y="-63.7601"/>
      <point x="114.622" y="-85"/>
      <point x="60" y="-85" type="curve" smooth="yes"/>
      <point x="47" y="-85"/>
      <point x="31" y="-80"/>
      <point x="20" y="-74" type="curve"/>
      <point x="18" y="-66"/>
      <point x="18" y="-54"/>
      <point x="19" y="-48" type="curve" smooth="yes"/>
      <point x="23" y="-30"/>
      <point x="41" y="-8"/>
      <point x="62" y="-8" type="curve" smooth="yes"/>
      <point x="79" y="-8"/>
      <point x="87" y="-19"/>
      <point x="95" y="-26" type="curve" smooth="yes"/>
      <point x="101" y="-32"/>
      <point x="111" y="-35"/>
      <point x="125" y="-35" type="curve" smooth="yes"/>
      <point x="154" y="-35"/>
      <point x="202" y="-19"/>
      <point x="209" y="19" type="curve" smooth="yes"/>
      <point x="218" y="65"/>
      <point x="160" y="141"/>
      <point x="125" y="184" type="curve" smooth="yes"/>
      <point x="82" y="238"/>
      <point x="36" y="297"/>
      <point x="54" y="386" type="curve" smooth="yes"/>
      <point x="67.0823" y="457.018"/>
      <point x="169.23" y="561.218"/>
      <point x="215.204" y="595.788" type="curve"/>
      <point x="187.616" y="570.979"/>
      <point x="167.446" y="540.367"/>
      <point x="158.126" y="508.656" type="curve"/>
      <point x="140.493" y="487.267"/>
      <point x="128.73" y="468.904"/>
      <point x="122" y="436" type="curve" smooth="yes"/>
      <point x="106" y="353"/>
      <point x="148" y="290"/>
      <point x="189" y="240" type="curve" smooth="yes"/>
      <point x="225" y="196"/>
      <point x="281" y="142"/>
      <point x="267" y="72" type="curve" smooth="yes"/>
      <point x="266.006" y="67.0312"/>
      <point x="264.739" y="62.074"/>
      <point x="263.21" y="57.1461" type="curve" smooth="yes"/>
      <point x="257.691" y="50.2506"/>
      <point x="251.625" y="43.0452"/>
      <point x="245" y="35" type="curve" smooth="yes"/>
      <point x="245" y="35"/>
      <point x="221" y="15"/>
      <point x="209" y="-3" type="curve" smooth="yes"/>
      <point x="201" y="-14"/>
      <point x="203" y="-22"/>
      <point x="199" y="-34" type="curve"/>
      <point x="199.95" y="-33.3827"/>
      <point x="200.942" y="-32.7158"/>
    </contour>
    <contour>
      <point x="201.974" y="-32.0009" type="curve"/>
      <point x="244.404" y="-2.60805"/>
      <point x="354.332" y="107.804"/>
      <point x="368" y="182" type="curve" smooth="yes"/>
      <point x="386" y="271"/>
      <point x="342" y="330"/>
      <point x="298" y="384" type="curve" smooth="yes"/>
      <point x="263" y="427"/>
      <point x="205" y="503"/>
      <point x="214" y="549" type="curve" smooth="yes"/>
      <point x="221" y="587"/>
      <point x="268" y="603"/>
      <point x="297" y="603" type="curve" smooth="yes"/>
      <point x="311" y="603"/>
      <point x="321" y="598"/>
      <point x="328" y="592" type="curve" smooth="yes"/>
      <point x="336" y="586"/>
      <point x="344" y="576"/>
      <point x="361" y="576" type="curve" smooth="yes"/>
      <point x="382" y="576"/>
      <point x="399" y="596"/>
      <point x="403" y="614" type="curve" smooth="yes"/>
      <point x="404" y="620"/>
      <point x="406" y="632"/>
      <point x="403" y="642" type="curve"/>
      <point x="391" y="648"/>
      <point x="375" y="653"/>
      <point x="362" y="653" type="curve" smooth="yes"/>
      <point x="304.997" y="653"/>
      <point x="253.101" y="629.868"/>
      <point x="215.204" y="595.788" type="curve"/>
      <point x="218.429" y="598.213"/>
      <point x="221.378" y="600.296"/>
      <point x="224" y="602" type="curve"/>
      <point x="220" y="590"/>
      <point x="222" y="582"/>
      <point x="214" y="571" type="curve" smooth="yes"/>
      <point x="202" y="553"/>
      <point x="178" y="532" type="line" smooth="yes"/>
      <point x="170.686" y="523.425"/>
      <point x="164.072" y="515.869"/>
      <point x="158.126" y="508.656" type="curve" smooth="yes"/>
      <point x="156.891" y="504.453"/>
      <point x="155.846" y="500.231"/>
      <point x="155" y="496" type="curve" smooth="yes"/>
      <point x="141" y="426"/>
      <point x="198" y="372"/>
      <point x="234" y="328" type="curve" smooth="yes"/>
      <point x="275" y="278"/>
      <point x="316" y="215"/>
      <point x="300" y="132" type="curve" smooth="yes"/>
      <point x="293.13" y="98.4115"/>
      <point x="281.015" y="79.3915"/>
      <point x="263.21" y="57.1461" type="curve"/>
      <point x="253.053" y="24.4031"/>
      <point x="231.376" y="-7.0462"/>
    </contour>
  </outline>
</glyph>
<glyph name="ordfeminine" format="1">
  <advance width="389"/>
  <unicode hex="00AA"/>
  <outline>
    <contour>
      <point x="262" y="248" type="curve" smooth="yes"/>
      <point x="242" y="248"/>
      <point x="225" y="260"/>
      <point x="225" y="286" type="curve" smooth="yes"/>
      <point x="225" y="290"/>
      <point x="226" y="302"/>
      <point x="228" y="312" type="curve" smooth="yes"/>
      <point x="230" y="321"/>
      <point x="231" y="324"/>
      <point x="232" y="328" type="curve"/>
      <point x="216" y="303"/>
      <point x="166" y="248"/>
      <point x="122" y="248" type="curve" smooth="yes"/>
      <point x="80" y="248"/>
      <point x="57" y="282"/>
      <point x="57" y="330" type="curve" smooth="yes"/>
      <point x="57" y="451"/>
      <point x="188" y="556"/>
      <point x="280" y="556" type="curve" smooth="yes"/>
      <point x="307" y="556"/>
      <point x="334" y="550"/>
      <point x="348" y="545" type="curve"/>
      <point x="303" y="338" type="line" smooth="yes"/>
      <point x="303" y="335"/>
      <point x="300" y="319"/>
      <point x="300" y="316" type="curve" smooth="yes"/>
      <point x="300" y="310"/>
      <point x="301" y="300"/>
      <point x="309" y="300" type="curve" smooth="yes"/>
      <point x="325" y="300"/>
      <point x="360" y="338"/>
      <point x="362" y="341" type="curve"/>
      <point x="366" y="339"/>
      <point x="371" y="327"/>
      <point x="370" y="321" type="curve"/>
      <point x="360" y="303"/>
      <point x="300" y="248"/>
    </contour>
    <contour>
      <point x="240" y="520" type="curve" smooth="yes"/>
      <point x="186" y="520"/>
      <point x="131" y="436"/>
      <point x="131" y="356" type="curve" smooth="yes"/>
      <point x="131" y="318"/>
      <point x="142" y="298"/>
      <point x="164" y="298" type="curve" smooth="yes"/>
      <point x="196" y="298"/>
      <point x="241" y="376"/>
      <point x="256" y="443" type="curve" smooth="yes"/>
      <point x="271" y="510" type="line"/>
      <point x="265" y="516"/>
      <point x="250" y="520"/>
    </contour>
  </outline>
</glyph>
<glyph name="macron" format="1">
  <advance width="261"/>
  <unicode hex="00AF"/>
  <outline>
    <contour>
      <point x="24" y="590" type="curve"/>
      <point x="246" y="590" type="line" smooth="yes"/>
      <point x="249" y="590"/>
      <point x="251" y="585"/>
      <point x="251" y="581" type="curve" smooth="yes"/>
      <point x="251" y="573"/>
      <point x="246" y="558"/>
      <point x="240" y="552" type="curve"/>
      <point x="20" y="552" type="line" smooth="yes"/>
      <point x="17" y="552"/>
      <point x="15" y="558"/>
      <point x="15" y="563" type="curve" smooth="yes"/>
      <point x="15" y="569"/>
      <point x="20" y="584"/>
    </contour>
  </outline>
</glyph>
<glyph name="degree" format="1">
  <advance width="274"/>
  <unicode hex="00B0"/>
  <outline>
    <contour>
      <point x="129" y="530" type="curve" smooth="yes"/>
      <point x="125" y="498"/>
      <point x="146" y="473"/>
      <point x="176" y="473" type="curve" smooth="yes"/>
      <point x="210" y="473"/>
      <point x="243" y="504"/>
      <point x="247" y="542" type="curve" smooth="yes"/>
      <point x="251" y="574"/>
      <point x="230" y="600"/>
      <point x="200" y="600" type="curve" smooth="yes"/>
      <point x="166" y="600"/>
      <point x="133" y="568"/>
    </contour>
    <contour>
      <point x="90" y="527" type="curve" smooth="yes"/>
      <point x="96" y="590"/>
      <point x="153" y="641"/>
      <point x="208" y="641" type="curve" smooth="yes"/>
      <point x="258" y="641"/>
      <point x="292" y="599"/>
      <point x="286" y="546" type="curve" smooth="yes"/>
      <point x="280" y="484"/>
      <point x="224" y="431"/>
      <point x="168" y="431" type="curve" smooth="yes"/>
      <point x="117" y="431"/>
      <point x="84" y="474"/>
    </contour>
  </outline>
</glyph>
<glyph name="uni00B3" format="1">
  <advance width="326"/>
  <unicode hex="00B3"/>
  <outline>
    <contour>
      <point x="235" y="646" type="curve" smooth="yes"/>
      <point x="266" y="646"/>
      <point x="311" y="628"/>
      <point x="311" y="574" type="curve" smooth="yes"/>
      <point x="311" y="524"/>
      <point x="255" y="492"/>
      <point x="229" y="481" type="curve"/>
      <point x="260" y="479"/>
      <point x="312" y="454"/>
      <point x="312" y="398" type="curve" smooth="yes"/>
      <point x="312" y="295"/>
      <point x="188" y="246"/>
      <point x="124" y="246" type="curve" smooth="yes"/>
      <point x="91" y="246"/>
      <point x="61" y="255"/>
      <point x="49" y="265" type="curve"/>
      <point x="47" y="270"/>
      <point x="43" y="281"/>
      <point x="44" y="289" type="curve" smooth="yes"/>
      <point x="46" y="307"/>
      <point x="63" y="330"/>
      <point x="81" y="330" type="curve" smooth="yes"/>
      <point x="100" y="330"/>
      <point x="107" y="313"/>
      <point x="115" y="298" type="curve" smooth="yes"/>
      <point x="124" y="282"/>
      <point x="139" y="277"/>
      <point x="155" y="277" type="curve" smooth="yes"/>
      <point x="190" y="277"/>
      <point x="230" y="318"/>
      <point x="230" y="379" type="curve" smooth="yes"/>
      <point x="230" y="417"/>
      <point x="211" y="449"/>
      <point x="173" y="449" type="curve" smooth="yes"/>
      <point x="165" y="449"/>
      <point x="149" y="448"/>
      <point x="141" y="446" type="curve"/>
      <point x="139" y="449"/>
      <point x="138" y="450"/>
      <point x="138" y="454" type="curve" smooth="yes"/>
      <point x="138" y="457"/>
      <point x="139" y="466"/>
      <point x="140" y="468" type="curve"/>
      <point x="180" y="474"/>
      <point x="243" y="502"/>
      <point x="243" y="556" type="curve" smooth="yes"/>
      <point x="243" y="578"/>
      <point x="230" y="601"/>
      <point x="200" y="601" type="curve" smooth="yes"/>
      <point x="164" y="601"/>
      <point x="137" y="562"/>
      <point x="131" y="558" type="curve"/>
      <point x="127" y="558"/>
      <point x="118" y="568"/>
      <point x="120" y="576" type="curve"/>
      <point x="150" y="617"/>
      <point x="190" y="646"/>
    </contour>
  </outline>
</glyph>
<glyph name="acute" format="1">
  <advance width="212"/>
  <unicode hex="00B4"/>
  <outline>
    <contour>
      <point x="224" y="686" type="curve" smooth="yes"/>
      <point x="254" y="686"/>
      <point x="260" y="670"/>
      <point x="259" y="662" type="curve" smooth="yes"/>
      <point x="255" y="624"/>
      <point x="97" y="524"/>
      <point x="88" y="524" type="curve" smooth="yes"/>
      <point x="82" y="524"/>
      <point x="76" y="537"/>
      <point x="76" y="542" type="curve" smooth="yes"/>
      <point x="76" y="550"/>
      <point x="153" y="644"/>
      <point x="183" y="674" type="curve" smooth="yes"/>
      <point x="193" y="684"/>
      <point x="208" y="686"/>
    </contour>
  </outline>
</glyph>
<glyph name="paragraph" format="1">
  <advance width="522"/>
  <unicode hex="00B6"/>
  <outline>
    <contour>
      <point x="306" y="659" type="curve" smooth="yes"/>
      <point x="361" y="659"/>
      <point x="411" y="656"/>
      <point x="447" y="656" type="curve" smooth="yes"/>
      <point x="485" y="656"/>
      <point x="522" y="659"/>
      <point x="560" y="662" type="curve"/>
      <point x="564" y="656"/>
      <point x="560" y="635"/>
      <point x="554" y="629" type="curve"/>
      <point x="542" y="629"/>
      <point x="501" y="624"/>
      <point x="495" y="612" type="curve" smooth="yes"/>
      <point x="485" y="594"/>
      <point x="479" y="565"/>
      <point x="472" y="528" type="curve"/>
      <point x="456" y="435"/>
      <point x="422" y="253"/>
      <point x="410" y="190" type="curve"/>
      <point x="378" y="26"/>
      <point x="274" y="-86"/>
      <point x="194" y="-86" type="curve" smooth="yes"/>
      <point x="162" y="-86"/>
      <point x="139" y="-74"/>
      <point x="130" y="-64" type="curve"/>
      <point x="128" y="-57"/>
      <point x="126" y="-49"/>
      <point x="126" y="-40" type="curve" smooth="yes"/>
      <point x="127" y="-17"/>
      <point x="140" y="4"/>
      <point x="160" y="4" type="curve" smooth="yes"/>
      <point x="177" y="4"/>
      <point x="189" y="-5"/>
      <point x="200" y="-19" type="curve" smooth="yes"/>
      <point x="208" y="-29"/>
      <point x="217" y="-42"/>
      <point x="233" y="-42" type="curve" smooth="yes"/>
      <point x="272" y="-42"/>
      <point x="284" y="27"/>
      <point x="315" y="186" type="curve"/>
      <point x="383" y="537" type="line" smooth="yes"/>
      <point x="389" y="567"/>
      <point x="395" y="600"/>
      <point x="393" y="612" type="curve" smooth="yes"/>
      <point x="391" y="621"/>
      <point x="382" y="622"/>
      <point x="374" y="622" type="curve" smooth="yes"/>
      <point x="330" y="622"/>
      <point x="275" y="534"/>
      <point x="275" y="448" type="curve" smooth="yes"/>
      <point x="275" y="380"/>
      <point x="291" y="343"/>
      <point x="323" y="325" type="curve"/>
      <point x="325" y="324"/>
      <point x="330" y="318"/>
      <point x="330" y="316" type="curve" smooth="yes"/>
      <point x="330" y="291"/>
      <point x="268" y="273"/>
      <point x="237" y="273" type="curve" smooth="yes"/>
      <point x="115" y="273"/>
      <point x="66" y="369"/>
      <point x="66" y="440" type="curve" smooth="yes"/>
      <point x="66" y="584"/>
      <point x="221" y="659"/>
    </contour>
  </outline>
</glyph>
<glyph name="periodcentered" format="1">
  <advance width="230"/>
  <unicode hex="00B7"/>
  <outline>
    <contour>
      <point x="51" y="251" type="curve" smooth="yes"/>
      <point x="51" y="293"/>
      <point x="89" y="330"/>
      <point x="127" y="330" type="curve"/>
      <point x="156" y="330"/>
      <point x="176" y="308"/>
      <point x="176" y="278" type="curve" smooth="yes"/>
      <point x="176" y="238"/>
      <point x="140" y="196"/>
      <point x="102" y="196" type="curve"/>
      <point x="72" y="196"/>
      <point x="51" y="221"/>
    </contour>
  </outline>
</glyph>
<glyph name="cedilla" format="1">
  <advance width="284"/>
  <unicode hex="00B8"/>
  <outline>
    <contour>
      <point x="146" y="-4" type="curve"/>
      <point x="170" y="-4" type="line"/>
      <point x="148" y="-28" type="line"/>
      <point x="168" y="-28" type="line" smooth="yes"/>
      <point x="191" y="-28"/>
      <point x="210" y="-46"/>
      <point x="210" y="-70" type="curve" smooth="yes"/>
      <point x="210" y="-114"/>
      <point x="163" y="-158"/>
      <point x="99" y="-158" type="curve" smooth="yes"/>
      <point x="87" y="-158"/>
      <point x="69" y="-152"/>
      <point x="63" y="-148" type="curve"/>
      <point x="62" y="-146"/>
      <point x="61" y="-142"/>
      <point x="61" y="-139" type="curve" smooth="yes"/>
      <point x="61" y="-123"/>
      <point x="72" y="-116"/>
      <point x="78" y="-116" type="curve" smooth="yes"/>
      <point x="93" y="-116"/>
      <point x="99" y="-134"/>
      <point x="121" y="-134" type="curve" smooth="yes"/>
      <point x="147" y="-134"/>
      <point x="166" y="-118"/>
      <point x="166" y="-94" type="curve" smooth="yes"/>
      <point x="166" y="-73"/>
      <point x="152" y="-63"/>
      <point x="140" y="-63" type="curve" smooth="yes"/>
      <point x="130" y="-63"/>
      <point x="123" y="-66"/>
      <point x="113" y="-70" type="curve" smooth="yes"/>
      <point x="111" y="-70"/>
      <point x="102" y="-63"/>
      <point x="102" y="-59" type="curve" smooth="yes"/>
      <point x="102" y="-55"/>
      <point x="121" y="-38"/>
    </contour>
  </outline>
</glyph>
<glyph name="ordmasculine" format="1">
  <advance width="350"/>
  <unicode hex="00BA"/>
  <outline>
    <contour>
      <point x="233" y="528" type="curve" smooth="yes"/>
      <point x="173" y="528"/>
      <point x="137" y="422"/>
      <point x="137" y="350" type="curve" smooth="yes"/>
      <point x="137" y="314"/>
      <point x="147" y="275"/>
      <point x="172" y="275" type="curve" smooth="yes"/>
      <point x="231" y="275"/>
      <point x="265" y="383"/>
      <point x="265" y="452" type="curve" smooth="yes"/>
      <point x="265" y="491"/>
      <point x="257" y="528"/>
    </contour>
    <contour>
      <point x="242" y="554" type="curve" smooth="yes"/>
      <point x="303" y="554"/>
      <point x="341" y="522"/>
      <point x="341" y="452" type="curve" smooth="yes"/>
      <point x="341" y="356"/>
      <point x="245" y="249"/>
      <point x="158" y="249" type="curve" smooth="yes"/>
      <point x="97" y="249"/>
      <point x="61" y="286"/>
      <point x="61" y="348" type="curve" smooth="yes"/>
      <point x="61" y="444"/>
      <point x="155" y="554"/>
    </contour>
  </outline>
</glyph>
<glyph name="onequarter" format="1">
  <advance width="669"/>
  <unicode hex="00BC"/>
  <outline>
    <contour>
      <point x="609" y="402" type="curve" smooth="yes"/>
      <point x="615" y="402"/>
      <point x="622" y="392"/>
      <point x="621" y="387" type="curve" smooth="yes"/>
      <point x="575" y="152" type="line"/>
      <point x="609" y="152" type="line" smooth="yes"/>
      <point x="613" y="152"/>
      <point x="613" y="141"/>
      <point x="612" y="132" type="curve" smooth="yes"/>
      <point x="612" y="124"/>
      <point x="606" y="112"/>
      <point x="604" y="108" type="curve"/>
      <point x="566" y="108" type="line"/>
      <point x="546" y="2" type="line"/>
      <point x="546" y="2"/>
      <point x="528" y="-2"/>
      <point x="506" y="-2" type="curve" smooth="yes"/>
      <point x="492" y="-2"/>
      <point x="472" y="0"/>
      <point x="473" y="4" type="curve" smooth="yes"/>
      <point x="493" y="108" type="line"/>
      <point x="330" y="108" type="line"/>
      <point x="326" y="110"/>
      <point x="325" y="118"/>
      <point x="326" y="122" type="curve"/>
      <point x="589" y="394" type="line" smooth="yes"/>
      <point x="595" y="400"/>
      <point x="605" y="402"/>
    </contour>
    <contour>
      <point x="530" y="298" type="line"/>
      <point x="391" y="152" type="line"/>
      <point x="501" y="152" type="line"/>
    </contour>
    <contour>
      <point x="94" y="549" type="curve"/>
      <point x="90" y="551"/>
      <point x="88" y="562"/>
      <point x="88" y="566" type="curve" smooth="yes"/>
      <point x="88" y="567"/>
      <point x="89" y="570"/>
      <point x="91" y="571" type="curve"/>
      <point x="150" y="600"/>
      <point x="228" y="639"/>
      <point x="245" y="647" type="curve"/>
      <point x="247" y="647" type="line" smooth="yes"/>
      <point x="250" y="647"/>
      <point x="252" y="636"/>
      <point x="252" y="630" type="curve"/>
      <point x="252" y="630"/>
      <point x="238" y="603"/>
      <point x="228" y="550" type="curve" smooth="yes"/>
      <point x="188" y="343" type="line" smooth="yes"/>
      <point x="184" y="323"/>
      <point x="182" y="301"/>
      <point x="182" y="291" type="curve" smooth="yes"/>
      <point x="182" y="279"/>
      <point x="227" y="277"/>
      <point x="231" y="277" type="curve" smooth="yes"/>
      <point x="233" y="277"/>
      <point x="232" y="266"/>
      <point x="231" y="262" type="curve" smooth="yes"/>
      <point x="230" y="259"/>
      <point x="230" y="255"/>
      <point x="229" y="254" type="curve"/>
      <point x="207" y="255"/>
      <point x="152" y="257"/>
      <point x="130" y="257" type="curve" smooth="yes"/>
      <point x="108" y="257"/>
      <point x="69" y="255"/>
      <point x="46" y="254" type="curve"/>
      <point x="44" y="257"/>
      <point x="47" y="277"/>
      <point x="50" y="277" type="curve" smooth="yes"/>
      <point x="57" y="277"/>
      <point x="94" y="281"/>
      <point x="99" y="289" type="curve" smooth="yes"/>
      <point x="104" y="299"/>
      <point x="106" y="311"/>
      <point x="108" y="323" type="curve" smooth="yes"/>
      <point x="145" y="510" type="line" smooth="yes"/>
      <point x="152" y="546"/>
      <point x="156" y="566"/>
      <point x="146" y="566" type="curve" smooth="yes"/>
      <point x="137" y="566"/>
      <point x="104" y="553"/>
    </contour>
    <contour>
      <point x="606" y="630" type="curve" smooth="yes"/>
      <point x="158" y="-7" type="line"/>
      <point x="158" y="-7"/>
      <point x="132" y="-7"/>
      <point x="132" y="4" type="curve" smooth="yes"/>
      <point x="132" y="6"/>
      <point x="133" y="8"/>
      <point x="134" y="10" type="curve" smooth="yes"/>
      <point x="583" y="646" type="line"/>
      <point x="583" y="646"/>
      <point x="607" y="645"/>
      <point x="607" y="634" type="curve" smooth="yes"/>
      <point x="607" y="632"/>
      <point x="607" y="631"/>
    </contour>
  </outline>
</glyph>
<glyph name="onehalf" format="1">
  <advance width="718"/>
  <unicode hex="00BD"/>
  <outline>
    <contour>
      <point x="676" y="304" type="curve" smooth="yes"/>
      <point x="676" y="249"/>
      <point x="628" y="197"/>
      <point x="585" y="158" type="curve" smooth="yes"/>
      <point x="543" y="118"/>
      <point x="489" y="79"/>
      <point x="470" y="65" type="curve"/>
      <point x="575" y="65" type="line" smooth="yes"/>
      <point x="606" y="65"/>
      <point x="621" y="91"/>
      <point x="634" y="115" type="curve" smooth="yes"/>
      <point x="636" y="118"/>
      <point x="639" y="120"/>
      <point x="643" y="120" type="curve" smooth="yes"/>
      <point x="646" y="120"/>
      <point x="656" y="116"/>
      <point x="657" y="114" type="curve"/>
      <point x="643" y="85"/>
      <point x="608" y="11"/>
      <point x="603" y="0" type="curve"/>
      <point x="603" y="0"/>
      <point x="389" y="0"/>
      <point x="387" y="0" type="curve"/>
      <point x="385" y="2"/>
      <point x="383" y="12"/>
      <point x="383" y="15" type="curve"/>
      <point x="427" y="57"/>
      <point x="485" y="112"/>
      <point x="531" y="163" type="curve" smooth="yes"/>
      <point x="572" y="209"/>
      <point x="592" y="249"/>
      <point x="592" y="286" type="curve" smooth="yes"/>
      <point x="592" y="319"/>
      <point x="570" y="341"/>
      <point x="539" y="341" type="curve" smooth="yes"/>
      <point x="496" y="341"/>
      <point x="470" y="304"/>
      <point x="462" y="295" type="curve"/>
      <point x="458" y="295"/>
      <point x="450" y="306"/>
      <point x="451" y="313" type="curve"/>
      <point x="462" y="332"/>
      <point x="512" y="391"/>
      <point x="579" y="391" type="curve" smooth="yes"/>
      <point x="634" y="391"/>
      <point x="676" y="356"/>
    </contour>
    <contour>
      <point x="94" y="549" type="curve"/>
      <point x="90" y="551"/>
      <point x="88" y="562"/>
      <point x="88" y="566" type="curve" smooth="yes"/>
      <point x="88" y="567"/>
      <point x="89" y="570"/>
      <point x="91" y="571" type="curve"/>
      <point x="150" y="600"/>
      <point x="228" y="639"/>
      <point x="245" y="647" type="curve"/>
      <point x="247" y="647" type="line" smooth="yes"/>
      <point x="250" y="647"/>
      <point x="252" y="636"/>
      <point x="252" y="630" type="curve"/>
      <point x="252" y="630"/>
      <point x="238" y="603"/>
      <point x="228" y="550" type="curve" smooth="yes"/>
      <point x="188" y="343" type="line" smooth="yes"/>
      <point x="184" y="323"/>
      <point x="182" y="301"/>
      <point x="182" y="291" type="curve" smooth="yes"/>
      <point x="182" y="279"/>
      <point x="227" y="277"/>
      <point x="231" y="277" type="curve" smooth="yes"/>
      <point x="233" y="277"/>
      <point x="232" y="266"/>
      <point x="231" y="262" type="curve" smooth="yes"/>
      <point x="230" y="259"/>
      <point x="230" y="255"/>
      <point x="229" y="254" type="curve"/>
      <point x="207" y="255"/>
      <point x="152" y="257"/>
      <point x="130" y="257" type="curve" smooth="yes"/>
      <point x="108" y="257"/>
      <point x="69" y="255"/>
      <point x="46" y="254" type="curve"/>
      <point x="44" y="257"/>
      <point x="47" y="277"/>
      <point x="50" y="277" type="curve" smooth="yes"/>
      <point x="57" y="277"/>
      <point x="94" y="281"/>
      <point x="99" y="289" type="curve" smooth="yes"/>
      <point x="104" y="299"/>
      <point x="106" y="311"/>
      <point x="108" y="323" type="curve" smooth="yes"/>
      <point x="145" y="510" type="line" smooth="yes"/>
      <point x="152" y="546"/>
      <point x="156" y="566"/>
      <point x="146" y="566" type="curve" smooth="yes"/>
      <point x="137" y="566"/>
      <point x="104" y="553"/>
    </contour>
    <contour>
      <point x="606" y="630" type="curve" smooth="yes"/>
      <point x="158" y="-7" type="line"/>
      <point x="158" y="-7"/>
      <point x="132" y="-7"/>
      <point x="132" y="4" type="curve" smooth="yes"/>
      <point x="132" y="6"/>
      <point x="133" y="8"/>
      <point x="134" y="10" type="curve" smooth="yes"/>
      <point x="583" y="646" type="line"/>
      <point x="583" y="646"/>
      <point x="607" y="645"/>
      <point x="607" y="634" type="curve" smooth="yes"/>
      <point x="607" y="632"/>
      <point x="607" y="631"/>
    </contour>
  </outline>
</glyph>
<glyph name="threequarters" format="1">
  <advance width="678"/>
  <unicode hex="00BE"/>
  <outline>
    <contour>
      <point x="619" y="402" type="curve" smooth="yes"/>
      <point x="625" y="402"/>
      <point x="632" y="392"/>
      <point x="631" y="387" type="curve" smooth="yes"/>
      <point x="585" y="152" type="line"/>
      <point x="619" y="152" type="line" smooth="yes"/>
      <point x="623" y="152"/>
      <point x="623" y="141"/>
      <point x="622" y="132" type="curve" smooth="yes"/>
      <point x="622" y="124"/>
      <point x="616" y="112"/>
      <point x="614" y="108" type="curve"/>
      <point x="577" y="108" type="line"/>
      <point x="556" y="2" type="line"/>
      <point x="556" y="2"/>
      <point x="538" y="-2"/>
      <point x="516" y="-2" type="curve" smooth="yes"/>
      <point x="502" y="-2"/>
      <point x="482" y="0"/>
      <point x="483" y="4" type="curve" smooth="yes"/>
      <point x="503" y="108" type="line"/>
      <point x="340" y="108" type="line"/>
      <point x="336" y="110"/>
      <point x="335" y="118"/>
      <point x="336" y="122" type="curve"/>
      <point x="599" y="394" type="line" smooth="yes"/>
      <point x="605" y="400"/>
      <point x="615" y="402"/>
    </contour>
    <contour>
      <point x="540" y="298" type="line"/>
      <point x="401" y="152" type="line"/>
      <point x="511" y="152" type="line"/>
    </contour>
    <contour>
      <point x="225" y="646" type="curve" smooth="yes"/>
      <point x="256" y="646"/>
      <point x="301" y="628"/>
      <point x="301" y="574" type="curve" smooth="yes"/>
      <point x="301" y="524"/>
      <point x="245" y="492"/>
      <point x="219" y="481" type="curve"/>
      <point x="250" y="479"/>
      <point x="302" y="454"/>
      <point x="302" y="398" type="curve" smooth="yes"/>
      <point x="302" y="295"/>
      <point x="178" y="246"/>
      <point x="114" y="246" type="curve" smooth="yes"/>
      <point x="81" y="246"/>
      <point x="51" y="255"/>
      <point x="39" y="265" type="curve"/>
      <point x="37" y="270"/>
      <point x="33" y="281"/>
      <point x="34" y="289" type="curve" smooth="yes"/>
      <point x="36" y="307"/>
      <point x="53" y="330"/>
      <point x="71" y="330" type="curve" smooth="yes"/>
      <point x="90" y="330"/>
      <point x="97" y="313"/>
      <point x="105" y="298" type="curve" smooth="yes"/>
      <point x="114" y="282"/>
      <point x="129" y="277"/>
      <point x="145" y="277" type="curve" smooth="yes"/>
      <point x="180" y="277"/>
      <point x="220" y="318"/>
      <point x="220" y="379" type="curve" smooth="yes"/>
      <point x="220" y="417"/>
      <point x="201" y="449"/>
      <point x="163" y="449" type="curve" smooth="yes"/>
      <point x="155" y="449"/>
      <point x="139" y="448"/>
      <point x="131" y="446" type="curve"/>
      <point x="129" y="449"/>
      <point x="128" y="450"/>
      <point x="128" y="454" type="curve" smooth="yes"/>
      <point x="128" y="457"/>
      <point x="129" y="466"/>
      <point x="130" y="468" type="curve"/>
      <point x="170" y="474"/>
      <point x="233" y="502"/>
      <point x="233" y="556" type="curve" smooth="yes"/>
      <point x="233" y="578"/>
      <point x="220" y="601"/>
      <point x="190" y="601" type="curve" smooth="yes"/>
      <point x="154" y="601"/>
      <point x="127" y="562"/>
      <point x="121" y="558" type="curve"/>
      <point x="117" y="558"/>
      <point x="108" y="568"/>
      <point x="110" y="576" type="curve"/>
      <point x="140" y="617"/>
      <point x="180" y="646"/>
    </contour>
    <contour>
      <point x="607" y="630" type="curve" smooth="yes"/>
      <point x="158" y="-7" type="line"/>
      <point x="158" y="-7"/>
      <point x="132" y="-7"/>
      <point x="132" y="4" type="curve" smooth="yes"/>
      <point x="132" y="6"/>
      <point x="133" y="8"/>
      <point x="134" y="10" type="curve" smooth="yes"/>
      <point x="584" y="646" type="line"/>
      <point x="584" y="646"/>
      <point x="608" y="645"/>
      <point x="608" y="634" type="curve" smooth="yes"/>
      <point x="608" y="632"/>
      <point x="608" y="631"/>
    </contour>
  </outline>
</glyph>
<glyph name="questiondown" format="1">
  <advance width="337"/>
  <unicode hex="00BF"/>
  <outline>
    <contour>
      <point x="284" y="384" type="curve" smooth="yes"/>
      <point x="280" y="346"/>
      <point x="248" y="316"/>
      <point x="214" y="316" type="curve"/>
      <point x="184" y="316"/>
      <point x="162" y="340"/>
      <point x="166" y="372" type="curve" smooth="yes"/>
      <point x="170" y="409"/>
      <point x="204" y="443"/>
      <point x="238" y="443" type="curve"/>
      <point x="269" y="443"/>
      <point x="288" y="416"/>
    </contour>
    <contour>
      <point x="135" y="224" type="curve"/>
      <point x="135" y="229"/>
      <point x="141" y="239"/>
      <point x="146" y="242" type="curve"/>
      <point x="170" y="242"/>
      <point x="253" y="194"/>
      <point x="253" y="138" type="curve" smooth="yes"/>
      <point x="253" y="84"/>
      <point x="214" y="59"/>
      <point x="188" y="41" type="curve" smooth="yes"/>
      <point x="151" y="15"/>
      <point x="113" y="-2"/>
      <point x="74" y="-32" type="curve" smooth="yes"/>
      <point x="54" y="-48"/>
      <point x="36" y="-66"/>
      <point x="36" y="-98" type="curve" smooth="yes"/>
      <point x="36" y="-130"/>
      <point x="52" y="-147"/>
      <point x="80" y="-147" type="curve" smooth="yes"/>
      <point x="117" y="-147"/>
      <point x="133" y="-99"/>
      <point x="167" y="-99" type="curve" smooth="yes"/>
      <point x="205" y="-99"/>
      <point x="214" y="-140"/>
      <point x="206" y="-168" type="curve"/>
      <point x="198" y="-183"/>
      <point x="163" y="-208"/>
      <point x="121" y="-208" type="curve" smooth="yes"/>
      <point x="42" y="-208"/>
      <point x="-26" y="-139"/>
      <point x="-26" y="-71" type="curve" smooth="yes"/>
      <point x="-26" y="-23"/>
      <point x="-14" y="14"/>
      <point x="40" y="52" type="curve" smooth="yes"/>
      <point x="60" y="68"/>
      <point x="96" y="85"/>
      <point x="136" y="112" type="curve" smooth="yes"/>
      <point x="160" y="128"/>
      <point x="172" y="144"/>
      <point x="172" y="166" type="curve" smooth="yes"/>
      <point x="172" y="195"/>
      <point x="145" y="218"/>
    </contour>
  </outline>
</glyph>
<glyph name="AE" format="1">
  <advance width="827"/>
  <unicode hex="00C6"/>
  <outline>
    <contour>
      <point x="485" y="656" type="curve"/>
      <point x="548" y="656"/>
      <point x="709" y="664"/>
      <point x="787" y="664" type="curve"/>
      <point x="787" y="614"/>
      <point x="786" y="567"/>
      <point x="787" y="523" type="curve"/>
      <point x="784" y="520"/>
      <point x="775" y="518"/>
      <point x="768" y="518" type="curve" smooth="yes"/>
      <point x="762" y="518"/>
      <point x="755" y="521"/>
      <point x="755" y="526" type="curve" smooth="yes"/>
      <point x="746" y="592"/>
      <point x="714" y="618"/>
      <point x="669" y="618" type="curve" smooth="yes"/>
      <point x="601" y="618" type="line" smooth="yes"/>
      <point x="571" y="618"/>
      <point x="541" y="618"/>
      <point x="536" y="606" type="curve" smooth="yes"/>
      <point x="529" y="586"/>
      <point x="527" y="560"/>
      <point x="523" y="526" type="curve" smooth="yes"/>
      <point x="507" y="353" type="line" smooth="yes"/>
      <point x="507" y="347"/>
      <point x="523" y="345"/>
      <point x="542" y="345" type="curve" smooth="yes"/>
      <point x="583" y="345" type="line" smooth="yes"/>
      <point x="653" y="345"/>
      <point x="658" y="351"/>
      <point x="684" y="415" type="curve" smooth="yes"/>
      <point x="686" y="420"/>
      <point x="691" y="422"/>
      <point x="697" y="422" type="curve" smooth="yes"/>
      <point x="704" y="422"/>
      <point x="711" y="421"/>
      <point x="713" y="418" type="curve"/>
      <point x="705" y="386"/>
      <point x="692" y="258"/>
      <point x="690" y="226" type="curve"/>
      <point x="688" y="224"/>
      <point x="681" y="222"/>
      <point x="675" y="222" type="curve" smooth="yes"/>
      <point x="669" y="222"/>
      <point x="662" y="224"/>
      <point x="662" y="229" type="curve" smooth="yes"/>
      <point x="658" y="281"/>
      <point x="648" y="287"/>
      <point x="640" y="292" type="curve" smooth="yes"/>
      <point x="630" y="298"/>
      <point x="591" y="299"/>
      <point x="556" y="299" type="curve" smooth="yes"/>
      <point x="530" y="299"/>
      <point x="502" y="297"/>
      <point x="501" y="287" type="curve" smooth="yes"/>
      <point x="487" y="148" type="line" smooth="yes"/>
      <point x="487" y="144"/>
      <point x="479" y="76"/>
      <point x="482" y="62" type="curve" smooth="yes"/>
      <point x="484" y="50"/>
      <point x="502" y="43"/>
      <point x="542" y="43" type="curve" smooth="yes"/>
      <point x="580" y="43" type="line" smooth="yes"/>
      <point x="615" y="43"/>
      <point x="655" y="50"/>
      <point x="681" y="68" type="curve" smooth="yes"/>
      <point x="702" y="84"/>
      <point x="723" y="117"/>
      <point x="746" y="166" type="curve" smooth="yes"/>
      <point x="748" y="170"/>
      <point x="753" y="172"/>
      <point x="760" y="172" type="curve" smooth="yes"/>
      <point x="769" y="172"/>
      <point x="782" y="169"/>
      <point x="784" y="166" type="curve"/>
      <point x="758" y="112"/>
      <point x="727" y="41"/>
      <point x="714" y="-3" type="curve"/>
      <point x="651" y="-3"/>
      <point x="519" y="0"/>
      <point x="414" y="-0" type="curve" smooth="yes"/>
      <point x="351" y="-0"/>
      <point x="294" y="-3"/>
      <point x="288" y="-3" type="curve"/>
      <point x="285" y="3"/>
      <point x="288" y="28"/>
      <point x="293" y="32" type="curve"/>
      <point x="305" y="32"/>
      <point x="354" y="39"/>
      <point x="360" y="50" type="curve" smooth="yes"/>
      <point x="371" y="69"/>
      <point x="376" y="109"/>
      <point x="381" y="158" type="curve"/>
      <point x="383" y="177"/>
      <point x="390" y="256"/>
      <point x="392" y="275" type="curve"/>
      <point x="392" y="278"/>
      <point x="390" y="281"/>
      <point x="387" y="281" type="curve" smooth="yes"/>
      <point x="357" y="283"/>
      <point x="325" y="282"/>
      <point x="313" y="282" type="curve"/>
      <point x="294" y="282"/>
      <point x="266" y="282"/>
      <point x="236" y="281" type="curve" smooth="yes"/>
      <point x="233" y="281"/>
      <point x="231" y="279"/>
      <point x="229" y="277" type="curve" smooth="yes"/>
      <point x="229" y="277"/>
      <point x="139" y="147"/>
      <point x="129" y="133" type="curve"/>
      <point x="103" y="95"/>
      <point x="88" y="67"/>
      <point x="87" y="58" type="curve" smooth="yes"/>
      <point x="83" y="37"/>
      <point x="136" y="28"/>
      <point x="144" y="28" type="curve"/>
      <point x="146" y="24"/>
      <point x="145" y="0"/>
      <point x="141" y="-4" type="curve"/>
      <point x="107" y="-1"/>
      <point x="79" y="3"/>
      <point x="38" y="3" type="curve" smooth="yes"/>
      <point x="-5" y="3"/>
      <point x="-23" y="-1"/>
      <point x="-61" y="-4" type="curve"/>
      <point x="-63" y="-2"/>
      <point x="-65" y="22"/>
      <point x="-59" y="28" type="curve"/>
      <point x="-48" y="28"/>
      <point x="-6" y="40"/>
      <point x="8" y="54" type="curve" smooth="yes"/>
      <point x="34" y="81"/>
      <point x="51" y="104"/>
      <point x="73" y="136" type="curve" smooth="yes"/>
      <point x="387" y="588" type="line"/>
      <point x="389" y="590"/>
      <point x="394" y="598"/>
      <point x="394" y="604" type="curve" smooth="yes"/>
      <point x="394" y="614"/>
      <point x="380" y="624"/>
      <point x="366" y="624" type="curve"/>
      <point x="363" y="628"/>
      <point x="366" y="652"/>
      <point x="369" y="658" type="curve"/>
      <point x="389" y="656"/>
      <point x="465" y="656"/>
    </contour>
    <contour>
      <point x="421" y="557" type="curve"/>
      <point x="265" y="334" type="line"/>
      <point x="265" y="334"/>
      <point x="265" y="330"/>
      <point x="267" y="330" type="curve" smooth="yes"/>
      <point x="285" y="328"/>
      <point x="307" y="328"/>
      <point x="325" y="328" type="curve" smooth="yes"/>
      <point x="349" y="328"/>
      <point x="369" y="328"/>
      <point x="393" y="330" type="curve"/>
      <point x="394" y="330"/>
      <point x="398" y="336"/>
      <point x="398" y="336" type="curve"/>
      <point x="398" y="336"/>
      <point x="421" y="549"/>
    </contour>
  </outline>
</glyph>
<glyph name="Eth" format="1">
  <advance width="701"/>
  <unicode hex="00D0"/>
  <outline>
    <contour>
      <point x="69" y="346" type="curve"/>
      <point x="97" y="346"/>
      <point x="386" y="346"/>
      <point x="399" y="346" type="curve" smooth="yes"/>
      <point x="403" y="346"/>
      <point x="405" y="342"/>
      <point x="404" y="338" type="curve" smooth="yes"/>
      <point x="403" y="333"/>
      <point x="399" y="315"/>
      <point x="394" y="308" type="curve"/>
      <point x="366" y="308"/>
      <point x="76" y="308"/>
      <point x="63" y="308" type="curve" smooth="yes"/>
      <point x="59" y="308"/>
      <point x="59" y="316"/>
      <point x="60" y="320" type="curve" smooth="yes"/>
      <point x="61" y="325"/>
      <point x="62" y="339"/>
    </contour>
    <component base="D"/>
  </outline>
</glyph>
<glyph name="Oslash" format="1">
  <advance width="707"/>
  <unicode hex="00D8"/>
  <outline>
    <contour>
      <point x="106" y="-13" type="line"/>
      <point x="98" y="-10"/>
      <point x="78" y="5"/>
      <point x="83" y="11" type="curve"/>
      <point x="599" y="668" type="line"/>
      <point x="607" y="666"/>
      <point x="628" y="651"/>
      <point x="623" y="645" type="curve"/>
    </contour>
    <component base="O"/>
  </outline>
</glyph>
<glyph name="Thorn" format="1">
  <advance width="531"/>
  <unicode hex="00DE"/>
  <outline>
    <contour>
      <point x="351" y="512" type="curve" smooth="yes"/>
      <point x="449" y="512"/>
      <point x="537" y="429"/>
      <point x="515" y="314" type="curve" smooth="yes"/>
      <point x="496" y="217"/>
      <point x="397" y="134"/>
      <point x="285" y="134" type="curve" smooth="yes"/>
      <point x="258" y="134"/>
      <point x="237" y="146"/>
      <point x="229" y="156" type="curve" smooth="yes"/>
      <point x="227" y="159"/>
      <point x="226" y="170"/>
      <point x="226" y="176" type="curve" smooth="yes"/>
      <point x="226" y="180"/>
      <point x="227" y="183"/>
      <point x="229" y="183" type="curve"/>
      <point x="240" y="177"/>
      <point x="251" y="175"/>
      <point x="271" y="175" type="curve" smooth="yes"/>
      <point x="325" y="175"/>
      <point x="385" y="222"/>
      <point x="400" y="300" type="curve" smooth="yes"/>
      <point x="417" y="389"/>
      <point x="389" y="470"/>
      <point x="319" y="470" type="curve" smooth="yes"/>
      <point x="303" y="470"/>
      <point x="280" y="467"/>
      <point x="268" y="457" type="curve" smooth="yes"/>
      <point x="258" y="449"/>
      <point x="252" y="434"/>
      <point x="247" y="408" type="curve" smooth="yes"/>
      <point x="193" y="130" type="line" smooth="yes"/>
      <point x="186" y="94"/>
      <point x="180" y="64"/>
      <point x="183" y="46" type="curve" smooth="yes"/>
      <point x="185" y="34"/>
      <point x="229" y="29"/>
      <point x="241" y="29" type="curve"/>
      <point x="244" y="23"/>
      <point x="241" y="2"/>
      <point x="235" y="-4" type="curve"/>
      <point x="199" y="-1"/>
      <point x="153" y="2"/>
      <point x="115" y="2" type="curve" smooth="yes"/>
      <point x="78" y="2"/>
      <point x="31" y="-1"/>
      <point x="-7" y="-4" type="curve"/>
      <point x="-10" y="2"/>
      <point x="-5" y="23"/>
      <point x="-0" y="29" type="curve"/>
      <point x="12" y="29"/>
      <point x="59" y="34"/>
      <point x="65" y="46" type="curve" smooth="yes"/>
      <point x="75" y="64"/>
      <point x="80" y="94"/>
      <point x="87" y="130" type="curve" smooth="yes"/>
      <point x="165" y="528" type="line" smooth="yes"/>
      <point x="172" y="564"/>
      <point x="178" y="594"/>
      <point x="175" y="612" type="curve" smooth="yes"/>
      <point x="173" y="624"/>
      <point x="128" y="628"/>
      <point x="116" y="628" type="curve"/>
      <point x="113" y="634"/>
      <point x="117" y="655"/>
      <point x="123" y="661" type="curve"/>
      <point x="163" y="659"/>
      <point x="205" y="657"/>
      <point x="243" y="657" type="curve" smooth="yes"/>
      <point x="280" y="657"/>
      <point x="326" y="660"/>
      <point x="364" y="663" type="curve"/>
      <point x="368" y="657"/>
      <point x="364" y="636"/>
      <point x="358" y="630" type="curve"/>
      <point x="346" y="630"/>
      <point x="299" y="625"/>
      <point x="293" y="613" type="curve" smooth="yes"/>
      <point x="284" y="593"/>
      <point x="275" y="555"/>
      <point x="269" y="520" type="curve" smooth="yes"/>
      <point x="268" y="516"/>
      <point x="268" y="506"/>
      <point x="268" y="504" type="curve" smooth="yes"/>
      <point x="268" y="502"/>
      <point x="269" y="502"/>
      <point x="271" y="502" type="curve" smooth="yes"/>
      <point x="290" y="508"/>
      <point x="316" y="512"/>
    </contour>
  </outline>
</glyph>
<glyph name="oslash" format="1">
  <advance width="435"/>
  <unicode hex="00F8"/>
  <outline>
    <contour>
      <point x="72" y="-10" type="line"/>
      <point x="68" y="-8"/>
      <point x="51" y="-1"/>
      <point x="54" y="3" type="curve"/>
      <point x="325" y="447" type="line"/>
      <point x="329" y="446"/>
      <point x="346" y="438"/>
      <point x="343" y="434" type="curve"/>
    </contour>
    <component base="o"/>
  </outline>
</glyph>
<glyph name="aogonek" format="1">
  <advance width="470"/>
  <unicode hex="0105"/>
  <outline>
    <contour>
      <point x="260" y="394" type="curve" smooth="yes"/>
      <point x="188" y="394"/>
      <point x="115" y="268"/>
      <point x="115" y="152" type="curve" smooth="yes"/>
      <point x="115" y="97"/>
      <point x="130" y="67"/>
      <point x="158" y="67" type="curve" smooth="yes"/>
      <point x="200" y="67"/>
      <point x="260" y="180"/>
      <point x="280" y="278" type="curve" smooth="yes"/>
      <point x="301" y="381" type="line"/>
      <point x="293" y="390"/>
      <point x="274" y="394"/>
    </contour>
    <contour>
      <point x="433" y="100" type="curve"/>
      <point x="425" y="86"/>
      <point x="395" y="55"/>
      <point x="365" y="30" type="curve" smooth="yes"/>
      <point x="316" y="-10"/>
      <point x="234" y="-77"/>
      <point x="234" y="-130" type="curve" smooth="yes"/>
      <point x="234" y="-150"/>
      <point x="243" y="-164"/>
      <point x="268" y="-164" type="curve" smooth="yes"/>
      <point x="312" y="-164"/>
      <point x="340" y="-128"/>
      <point x="346" y="-126" type="curve"/>
      <point x="354" y="-127"/>
      <point x="347" y="-151"/>
      <point x="344" y="-154" type="curve" smooth="yes"/>
      <point x="320" y="-188"/>
      <point x="274" y="-224"/>
      <point x="232" y="-224" type="curve" smooth="yes"/>
      <point x="198" y="-224"/>
      <point x="176" y="-197"/>
      <point x="176" y="-170" type="curve" smooth="yes"/>
      <point x="176" y="-112"/>
      <point x="233" y="-52"/>
      <point x="277" y="-6" type="curve"/>
      <point x="255" y="-1"/>
      <point x="240" y="20"/>
      <point x="240" y="52" type="curve" smooth="yes"/>
      <point x="240" y="58"/>
      <point x="242" y="74"/>
      <point x="244" y="88" type="curve" smooth="yes"/>
      <point x="246" y="101"/>
      <point x="248" y="107"/>
      <point x="249" y="113" type="curve"/>
      <point x="229" y="77"/>
      <point x="161" y="-6"/>
      <point x="102" y="-6" type="curve" smooth="yes"/>
      <point x="47" y="-6"/>
      <point x="15" y="45"/>
      <point x="15" y="114" type="curve" smooth="yes"/>
      <point x="15" y="290"/>
      <point x="188" y="442"/>
      <point x="312" y="442" type="curve" smooth="yes"/>
      <point x="348" y="442"/>
      <point x="384" y="433"/>
      <point x="404" y="426" type="curve"/>
      <point x="342" y="119" type="line" smooth="yes"/>
      <point x="341" y="115"/>
      <point x="338" y="91"/>
      <point x="338" y="86" type="curve" smooth="yes"/>
      <point x="338" y="77"/>
      <point x="340" y="64"/>
      <point x="350" y="64" type="curve" smooth="yes"/>
      <point x="372" y="64"/>
      <point x="418" y="119"/>
      <point x="421" y="123" type="curve"/>
      <point x="426" y="123"/>
      <point x="433" y="106"/>
    </contour>
  </outline>
</glyph>
<glyph name="dcroat" format="1">
  <advance width="464"/>
  <unicode hex="0111"/>
  <outline>
    <contour>
      <point x="230" y="560" type="curve"/>
      <point x="256" y="560"/>
      <point x="485" y="560"/>
      <point x="497" y="560" type="curve" smooth="yes"/>
      <point x="501" y="560"/>
      <point x="502" y="556"/>
      <point x="501" y="552" type="curve" smooth="yes"/>
      <point x="500" y="547"/>
      <point x="495" y="532"/>
      <point x="490" y="524" type="curve"/>
      <point x="464" y="524"/>
      <point x="234" y="524"/>
      <point x="222" y="524" type="curve" smooth="yes"/>
      <point x="218" y="524"/>
      <point x="219" y="531"/>
      <point x="220" y="535" type="curve" smooth="yes"/>
      <point x="221" y="540"/>
      <point x="223" y="552"/>
    </contour>
    <component base="d"/>
  </outline>
</glyph>
<glyph name="Eogonek" format="1">
  <advance width="565"/>
  <unicode hex="0118"/>
  <outline>
    <contour>
      <point x="215" y="-170" type="curve" smooth="yes"/>
      <point x="215" y="-114"/>
      <point x="272" y="-30"/>
      <point x="336" y="-2" type="curve"/>
      <point x="272" y="-2"/>
      <point x="191" y="-1"/>
      <point x="116" y="-1" type="curve" smooth="yes"/>
      <point x="61" y="-1"/>
      <point x="18" y="-3"/>
      <point x="-6" y="-3" type="curve"/>
      <point x="-9" y="3"/>
      <point x="-6" y="24"/>
      <point x="0" y="30" type="curve"/>
      <point x="12" y="30"/>
      <point x="60" y="34"/>
      <point x="66" y="46" type="curve" smooth="yes"/>
      <point x="76" y="64"/>
      <point x="81" y="94"/>
      <point x="88" y="130" type="curve" smooth="yes"/>
      <point x="165" y="528" type="line" smooth="yes"/>
      <point x="172" y="564"/>
      <point x="178" y="594"/>
      <point x="175" y="612" type="curve" smooth="yes"/>
      <point x="173" y="624"/>
      <point x="128" y="628"/>
      <point x="116" y="628" type="curve"/>
      <point x="113" y="634"/>
      <point x="117" y="655"/>
      <point x="123" y="661" type="curve"/>
      <point x="163" y="659"/>
      <point x="206" y="656"/>
      <point x="244" y="656" type="curve" smooth="yes"/>
      <point x="307" y="656"/>
      <point x="468" y="664"/>
      <point x="546" y="664" type="curve"/>
      <point x="543" y="614"/>
      <point x="546" y="567"/>
      <point x="546" y="522" type="curve"/>
      <point x="543" y="519"/>
      <point x="532" y="517"/>
      <point x="525" y="517" type="curve" smooth="yes"/>
      <point x="518" y="517"/>
      <point x="513" y="519"/>
      <point x="513" y="524" type="curve" smooth="yes"/>
      <point x="506" y="592"/>
      <point x="480" y="620"/>
      <point x="427" y="620" type="curve" smooth="yes"/>
      <point x="348" y="620" type="line" smooth="yes"/>
      <point x="332" y="620"/>
      <point x="297" y="619"/>
      <point x="291" y="609" type="curve" smooth="yes"/>
      <point x="283" y="595"/>
      <point x="280" y="571"/>
      <point x="274" y="543" type="curve" smooth="yes"/>
      <point x="238" y="362" type="line" smooth="yes"/>
      <point x="237" y="356"/>
      <point x="257" y="353"/>
      <point x="277" y="353" type="curve" smooth="yes"/>
      <point x="326" y="353" type="line" smooth="yes"/>
      <point x="398" y="353"/>
      <point x="404" y="362"/>
      <point x="432" y="424" type="curve" smooth="yes"/>
      <point x="434" y="429"/>
      <point x="439" y="432"/>
      <point x="446" y="432" type="curve" smooth="yes"/>
      <point x="453" y="432"/>
      <point x="459" y="429"/>
      <point x="461" y="426" type="curve"/>
      <point x="425" y="236" type="line"/>
      <point x="423" y="234"/>
      <point x="415" y="232"/>
      <point x="408" y="232" type="curve" smooth="yes"/>
      <point x="401" y="232"/>
      <point x="396" y="235"/>
      <point x="396" y="240" type="curve" smooth="yes"/>
      <point x="394" y="292"/>
      <point x="387" y="299"/>
      <point x="379" y="304" type="curve" smooth="yes"/>
      <point x="369" y="310"/>
      <point x="331" y="311"/>
      <point x="296" y="311" type="curve" smooth="yes"/>
      <point x="270" y="311"/>
      <point x="228" y="310"/>
      <point x="226" y="300" type="curve" smooth="yes"/>
      <point x="193" y="128" type="line" smooth="yes"/>
      <point x="191" y="118"/>
      <point x="181" y="66"/>
      <point x="185" y="54" type="curve" smooth="yes"/>
      <point x="191" y="42"/>
      <point x="213" y="39"/>
      <point x="245" y="39" type="curve" smooth="yes"/>
      <point x="298" y="39" type="line" smooth="yes"/>
      <point x="333" y="39"/>
      <point x="378" y="49"/>
      <point x="406" y="68" type="curve" smooth="yes"/>
      <point x="428" y="84"/>
      <point x="454" y="117"/>
      <point x="479" y="166" type="curve" smooth="yes"/>
      <point x="481" y="170"/>
      <point x="487" y="172"/>
      <point x="494" y="172" type="curve" smooth="yes"/>
      <point x="503" y="172"/>
      <point x="516" y="169"/>
      <point x="518" y="166" type="curve"/>
      <point x="490" y="112"/>
      <point x="450" y="41"/>
      <point x="435" y="-3" type="curve"/>
      <point x="353" y="-3"/>
      <point x="273" y="-78"/>
      <point x="273" y="-130" type="curve" smooth="yes"/>
      <point x="273" y="-150"/>
      <point x="281" y="-164"/>
      <point x="306" y="-164" type="curve" smooth="yes"/>
      <point x="350" y="-164"/>
      <point x="378" y="-128"/>
      <point x="384" y="-126" type="curve"/>
      <point x="392" y="-127"/>
      <point x="386" y="-151"/>
      <point x="383" y="-154" type="curve" smooth="yes"/>
      <point x="359" y="-188"/>
      <point x="312" y="-224"/>
      <point x="270" y="-224" type="curve" smooth="yes"/>
      <point x="235" y="-224"/>
      <point x="215" y="-197"/>
    </contour>
  </outline>
</glyph>
<glyph name="eogonek" format="1">
  <advance width="380"/>
  <unicode hex="0119"/>
  <outline>
    <contour>
      <point x="126" y="222" type="curve"/>
      <point x="165" y="222"/>
      <point x="264" y="290"/>
      <point x="264" y="364" type="curve" smooth="yes"/>
      <point x="264" y="391"/>
      <point x="250" y="403"/>
      <point x="230" y="403" type="curve" smooth="yes"/>
      <point x="172" y="403"/>
      <point x="131" y="273"/>
    </contour>
    <contour>
      <point x="42" y="-170" type="curve" smooth="yes"/>
      <point x="42" y="-116"/>
      <point x="112" y="-39"/>
      <point x="146" y="-5" type="curve"/>
      <point x="141" y="-6"/>
      <point x="137" y="-6"/>
      <point x="132" y="-6" type="curve" smooth="yes"/>
      <point x="61" y="-6"/>
      <point x="20" y="47"/>
      <point x="20" y="140" type="curve" smooth="yes"/>
      <point x="20" y="288"/>
      <point x="157" y="442"/>
      <point x="272" y="442" type="curve" smooth="yes"/>
      <point x="323" y="442"/>
      <point x="360" y="415"/>
      <point x="360" y="365" type="curve" smooth="yes"/>
      <point x="360" y="265"/>
      <point x="185" y="190"/>
      <point x="123" y="190" type="curve"/>
      <point x="122" y="187"/>
      <point x="121" y="167"/>
      <point x="121" y="162" type="curve" smooth="yes"/>
      <point x="121" y="113"/>
      <point x="136" y="65"/>
      <point x="186" y="65" type="curve" smooth="yes"/>
      <point x="231" y="65"/>
      <point x="285" y="129"/>
      <point x="288" y="132" type="curve"/>
      <point x="294" y="132"/>
      <point x="302" y="113"/>
      <point x="302" y="107" type="curve"/>
      <point x="296" y="97"/>
      <point x="277" y="78"/>
      <point x="250" y="54" type="curve" smooth="yes"/>
      <point x="189" y="1"/>
      <point x="99" y="-82"/>
      <point x="99" y="-130" type="curve" smooth="yes"/>
      <point x="99" y="-150"/>
      <point x="107" y="-164"/>
      <point x="132" y="-164" type="curve" smooth="yes"/>
      <point x="176" y="-164"/>
      <point x="204" y="-128"/>
      <point x="210" y="-126" type="curve"/>
      <point x="218" y="-127"/>
      <point x="212" y="-151"/>
      <point x="209" y="-154" type="curve" smooth="yes"/>
      <point x="185" y="-188"/>
      <point x="138" y="-224"/>
      <point x="96" y="-224" type="curve" smooth="yes"/>
      <point x="62" y="-224"/>
      <point x="42" y="-197"/>
    </contour>
  </outline>
</glyph>
<glyph name="Hbar" format="1">
  <advance width="696"/>
  <unicode hex="0126"/>
  <outline>
    <contour>
      <point x="106" y="510" type="curve"/>
      <point x="131" y="510"/>
      <point x="665" y="510"/>
      <point x="677" y="510" type="curve" smooth="yes"/>
      <point x="680" y="510"/>
      <point x="681" y="507"/>
      <point x="680" y="503" type="curve" smooth="yes"/>
      <point x="679" y="498"/>
      <point x="674" y="482"/>
      <point x="669" y="474" type="curve"/>
      <point x="644" y="474"/>
      <point x="108" y="474"/>
      <point x="96" y="474" type="curve" smooth="yes"/>
      <point x="93" y="474"/>
      <point x="93" y="482"/>
      <point x="94" y="486" type="curve" smooth="yes"/>
      <point x="95" y="491"/>
      <point x="99" y="502"/>
    </contour>
    <component base="H" xOffset="1"/>
  </outline>
</glyph>
<glyph name="Iogonek" format="1">
  <advance width="333"/>
  <unicode hex="012E"/>
  <outline>
    <contour>
      <point x="241" y="29" type="curve"/>
      <point x="243" y="23"/>
      <point x="239" y="1"/>
      <point x="235" y="-4" type="curve"/>
      <point x="223" y="-4"/>
      <point x="199" y="-4"/>
      <point x="179" y="-8" type="curve" smooth="yes"/>
      <point x="117" y="-22"/>
      <point x="57" y="-82"/>
      <point x="57" y="-130" type="curve" smooth="yes"/>
      <point x="57" y="-150"/>
      <point x="65" y="-164"/>
      <point x="90" y="-164" type="curve" smooth="yes"/>
      <point x="134" y="-164"/>
      <point x="163" y="-128"/>
      <point x="169" y="-126" type="curve"/>
      <point x="177" y="-127"/>
      <point x="170" y="-151"/>
      <point x="167" y="-154" type="curve" smooth="yes"/>
      <point x="143" y="-188"/>
      <point x="97" y="-224"/>
      <point x="55" y="-224" type="curve" smooth="yes"/>
      <point x="21" y="-224"/>
      <point x="0" y="-197"/>
      <point x="-0" y="-170" type="curve" smooth="yes"/>
      <point x="0" y="-100"/>
      <point x="72" y="-20"/>
      <point x="119" y="3" type="curve"/>
      <point x="82" y="3"/>
      <point x="30" y="-1"/>
      <point x="-7" y="-4" type="curve"/>
      <point x="-10" y="2"/>
      <point x="-5" y="23"/>
      <point x="-0" y="29" type="curve"/>
      <point x="12" y="29"/>
      <point x="59" y="34"/>
      <point x="65" y="46" type="curve" smooth="yes"/>
      <point x="75" y="64"/>
      <point x="80" y="94"/>
      <point x="87" y="130" type="curve" smooth="yes"/>
      <point x="165" y="528" type="line" smooth="yes"/>
      <point x="172" y="564"/>
      <point x="178" y="594"/>
      <point x="175" y="612" type="curve" smooth="yes"/>
      <point x="173" y="624"/>
      <point x="128" y="629"/>
      <point x="116" y="629" type="curve"/>
      <point x="113" y="635"/>
      <point x="117" y="656"/>
      <point x="123" y="662" type="curve"/>
      <point x="160" y="659"/>
      <point x="205" y="656"/>
      <point x="243" y="656" type="curve" smooth="yes"/>
      <point x="280" y="656"/>
      <point x="326" y="659"/>
      <point x="364" y="662" type="curve"/>
      <point x="368" y="656"/>
      <point x="364" y="635"/>
      <point x="358" y="629" type="curve"/>
      <point x="346" y="629"/>
      <point x="299" y="624"/>
      <point x="293" y="612" type="curve" smooth="yes"/>
      <point x="283" y="594"/>
      <point x="277" y="564"/>
      <point x="270" y="528" type="curve" smooth="yes"/>
      <point x="193" y="130" type="line" smooth="yes"/>
      <point x="186" y="94"/>
      <point x="180" y="64"/>
      <point x="183" y="46" type="curve" smooth="yes"/>
      <point x="185" y="34"/>
      <point x="229" y="29"/>
    </contour>
  </outline>
</glyph>
<glyph name="iogonek" format="1">
  <advance width="287"/>
  <unicode hex="012F"/>
  <outline>
    <contour>
      <point x="250" y="100" type="curve"/>
      <point x="242" y="86"/>
      <point x="212" y="56"/>
      <point x="184" y="32" type="curve" smooth="yes"/>
      <point x="130" y="-16"/>
      <point x="70" y="-78"/>
      <point x="70" y="-130" type="curve" smooth="yes"/>
      <point x="70" y="-150"/>
      <point x="78" y="-164"/>
      <point x="103" y="-164" type="curve" smooth="yes"/>
      <point x="147" y="-164"/>
      <point x="176" y="-128"/>
      <point x="182" y="-126" type="curve"/>
      <point x="190" y="-127"/>
      <point x="183" y="-151"/>
      <point x="180" y="-154" type="curve" smooth="yes"/>
      <point x="156" y="-188"/>
      <point x="110" y="-224"/>
      <point x="68" y="-224" type="curve" smooth="yes"/>
      <point x="34" y="-224"/>
      <point x="12" y="-197"/>
      <point x="12" y="-170" type="curve" smooth="yes"/>
      <point x="12" y="-114"/>
      <point x="68" y="-48"/>
      <point x="105" y="-7" type="curve"/>
      <point x="78" y="-7"/>
      <point x="56" y="14"/>
      <point x="56" y="54" type="curve" smooth="yes"/>
      <point x="56" y="65"/>
      <point x="61" y="97"/>
      <point x="64" y="111" type="curve"/>
      <point x="108" y="316" type="line" smooth="yes"/>
      <point x="109" y="321"/>
      <point x="113" y="343"/>
      <point x="113" y="348" type="curve" smooth="yes"/>
      <point x="113" y="357"/>
      <point x="110" y="372"/>
      <point x="100" y="372" type="curve" smooth="yes"/>
      <point x="78" y="372"/>
      <point x="33" y="316"/>
      <point x="30" y="312" type="curve"/>
      <point x="25" y="312"/>
      <point x="18" y="329"/>
      <point x="18" y="335" type="curve"/>
      <point x="32" y="361"/>
      <point x="108" y="442"/>
      <point x="158" y="442" type="curve" smooth="yes"/>
      <point x="188" y="442"/>
      <point x="211" y="418"/>
      <point x="211" y="380" type="curve" smooth="yes"/>
      <point x="211" y="369"/>
      <point x="207" y="340"/>
      <point x="204" y="324" type="curve"/>
      <point x="160" y="119" type="line" smooth="yes"/>
      <point x="158" y="112"/>
      <point x="155" y="91"/>
      <point x="156" y="86" type="curve" smooth="yes"/>
      <point x="156" y="77"/>
      <point x="158" y="64"/>
      <point x="168" y="64" type="curve" smooth="yes"/>
      <point x="190" y="64"/>
      <point x="235" y="119"/>
      <point x="238" y="123" type="curve"/>
      <point x="243" y="123"/>
      <point x="250" y="106"/>
    </contour>
    <contour>
      <point x="190" y="667" type="curve" smooth="yes"/>
      <point x="218" y="667"/>
      <point x="238" y="644"/>
      <point x="238" y="616" type="curve" smooth="yes"/>
      <point x="238" y="578"/>
      <point x="208" y="543"/>
      <point x="172" y="543" type="curve" smooth="yes"/>
      <point x="144" y="543"/>
      <point x="126" y="568"/>
      <point x="126" y="596" type="curve" smooth="yes"/>
      <point x="126" y="633"/>
      <point x="154" y="667"/>
    </contour>
  </outline>
</glyph>
<glyph name="Lslash" format="1">
  <advance width="539"/>
  <unicode hex="0141"/>
  <outline>
    <contour>
      <point x="22" y="207" type="line" smooth="yes"/>
      <point x="17" y="203"/>
      <point x="27" y="247"/>
      <point x="32" y="252" type="curve" smooth="yes"/>
      <point x="167" y="325.637" type="line"/>
      <point x="198" y="334.546" type="line"/>
      <point x="417" y="454" type="line" smooth="yes"/>
      <point x="423" y="458"/>
      <point x="412" y="413"/>
      <point x="407" y="409" type="curve" smooth="yes"/>
      <point x="193" y="289.272" type="line"/>
      <point x="161" y="280.818" type="line"/>
    </contour>
    <component base="L" xOffset="1"/>
  </outline>
</glyph>
<glyph name="Eng" format="1">
  <advance width="724"/>
  <unicode hex="014A"/>
  <outline>
    <contour>
      <point x="288" y="-204" type="curve"/>
      <point x="338" y="-187"/>
      <point x="459" y="-66"/>
      <point x="494" y="56" type="curve"/>
      <point x="226" y="544" type="line"/>
      <point x="147" y="136" type="line" smooth="yes"/>
      <point x="140" y="100"/>
      <point x="136" y="68"/>
      <point x="140" y="53" type="curve" smooth="yes"/>
      <point x="144" y="39"/>
      <point x="199" y="30"/>
      <point x="210" y="30" type="curve"/>
      <point x="214" y="22"/>
      <point x="208" y="2"/>
      <point x="205" y="-4" type="curve"/>
      <point x="168" y="-2"/>
      <point x="135" y="3"/>
      <point x="94" y="3" type="curve" smooth="yes"/>
      <point x="51" y="3"/>
      <point x="28" y="-2"/>
      <point x="-15" y="-4" type="curve"/>
      <point x="-17" y="3"/>
      <point x="-12" y="23"/>
      <point x="-8" y="29" type="curve"/>
      <point x="3" y="29"/>
      <point x="59" y="37"/>
      <point x="69" y="52" type="curve" smooth="yes"/>
      <point x="79" y="67"/>
      <point x="89" y="99"/>
      <point x="96" y="137" type="curve"/>
      <point x="108" y="203"/>
      <point x="161" y="465"/>
      <point x="173" y="531" type="curve"/>
      <point x="179" y="564"/>
      <point x="181" y="593"/>
      <point x="175" y="610" type="curve" smooth="yes"/>
      <point x="170" y="622"/>
      <point x="123" y="630"/>
      <point x="112" y="630" type="curve"/>
      <point x="108" y="636"/>
      <point x="112" y="658"/>
      <point x="117" y="663" type="curve"/>
      <point x="152" y="661"/>
      <point x="180" y="658"/>
      <point x="217" y="658" type="curve" smooth="yes"/>
      <point x="247" y="658"/>
      <point x="282" y="660"/>
      <point x="304" y="662" type="curve"/>
      <point x="330" y="583"/>
      <point x="467" y="361"/>
      <point x="547" y="207" type="curve"/>
      <point x="549" y="211"/>
      <point x="552" y="232"/>
      <point x="554" y="239" type="curve"/>
      <point x="607" y="510" type="line"/>
      <point x="614" y="547"/>
      <point x="622" y="593"/>
      <point x="617" y="609" type="curve" smooth="yes"/>
      <point x="613" y="623"/>
      <point x="561" y="630"/>
      <point x="548" y="630" type="curve"/>
      <point x="546" y="634"/>
      <point x="549" y="655"/>
      <point x="553" y="663" type="curve"/>
      <point x="593" y="661"/>
      <point x="620" y="656"/>
      <point x="662" y="656" type="curve" smooth="yes"/>
      <point x="704" y="656"/>
      <point x="733" y="661"/>
      <point x="773" y="663" type="curve"/>
      <point x="775" y="657"/>
      <point x="773" y="640"/>
      <point x="765" y="630" type="curve"/>
      <point x="756" y="630"/>
      <point x="696" y="624"/>
      <point x="686" y="608" type="curve" smooth="yes"/>
      <point x="677" y="594"/>
      <point x="665" y="548"/>
      <point x="658" y="512" type="curve" smooth="yes"/>
      <point x="658" y="512"/>
      <point x="614" y="280"/>
      <point x="584" y="130" type="curve" smooth="yes"/>
      <point x="535" y="-116"/>
      <point x="365" y="-217"/>
      <point x="295" y="-226" type="curve"/>
      <point x="291" y="-223"/>
      <point x="287" y="-212"/>
    </contour>
  </outline>
</glyph>
<glyph name="OE" format="1">
  <advance width="992"/>
  <unicode hex="0152"/>
  <outline>
    <contour>
      <point x="415" y="628" type="curve" smooth="yes"/>
      <point x="269" y="628"/>
      <point x="173" y="423"/>
      <point x="173" y="255" type="curve"/>
      <point x="173" y="133"/>
      <point x="217" y="32"/>
      <point x="320" y="32" type="curve"/>
      <point x="414" y="32"/>
      <point x="460" y="58"/>
      <point x="495" y="114" type="curve" smooth="yes"/>
      <point x="516" y="133"/>
      <point x="552" y="322"/>
      <point x="571" y="422" type="curve" smooth="yes"/>
      <point x="581" y="475"/>
      <point x="586" y="544"/>
      <point x="561" y="578" type="curve" smooth="yes"/>
      <point x="533" y="619"/>
      <point x="459" y="628"/>
    </contour>
    <contour>
      <point x="552" y="0" type="curve" smooth="yes"/>
      <point x="532" y="0"/>
      <point x="487" y="1"/>
      <point x="437" y="-2" type="curve" smooth="yes"/>
      <point x="389" y="-5"/>
      <point x="338" y="-10"/>
      <point x="295" y="-10" type="curve"/>
      <point x="153" y="-10"/>
      <point x="53" y="112"/>
      <point x="53" y="260" type="curve"/>
      <point x="53" y="492"/>
      <point x="237" y="668"/>
      <point x="436" y="668" type="curve"/>
      <point x="522" y="668"/>
      <point x="592" y="656"/>
      <point x="658" y="656" type="curve" smooth="yes"/>
      <point x="720" y="656"/>
      <point x="894" y="664"/>
      <point x="972" y="664" type="curve"/>
      <point x="971" y="648"/>
      <point x="971" y="634"/>
      <point x="971" y="618" type="curve" smooth="yes"/>
      <point x="971" y="585"/>
      <point x="972" y="553"/>
      <point x="972" y="522" type="curve"/>
      <point x="969" y="519"/>
      <point x="959" y="517"/>
      <point x="952" y="517" type="curve" smooth="yes"/>
      <point x="946" y="517"/>
      <point x="940" y="519"/>
      <point x="940" y="524" type="curve" smooth="yes"/>
      <point x="932" y="592"/>
      <point x="906" y="620"/>
      <point x="844" y="620" type="curve" smooth="yes"/>
      <point x="779" y="620" type="line"/>
      <point x="751" y="620"/>
      <point x="724" y="620"/>
      <point x="718" y="608" type="curve" smooth="yes"/>
      <point x="710" y="588"/>
      <point x="706" y="570"/>
      <point x="700" y="542" type="curve" smooth="yes"/>
      <point x="666" y="362" type="line" smooth="yes"/>
      <point x="665" y="356"/>
      <point x="683" y="353"/>
      <point x="703" y="353" type="curve" smooth="yes"/>
      <point x="750" y="353" type="line" smooth="yes"/>
      <point x="822" y="353"/>
      <point x="831" y="360"/>
      <point x="859" y="424" type="curve" smooth="yes"/>
      <point x="861" y="429"/>
      <point x="866" y="432"/>
      <point x="872" y="432" type="curve" smooth="yes"/>
      <point x="878" y="432"/>
      <point x="886" y="429"/>
      <point x="888" y="426" type="curve"/>
      <point x="851" y="236" type="line"/>
      <point x="849" y="234"/>
      <point x="842" y="232"/>
      <point x="836" y="232" type="curve" smooth="yes"/>
      <point x="829" y="232"/>
      <point x="822" y="234"/>
      <point x="822" y="240" type="curve" smooth="yes"/>
      <point x="820" y="292"/>
      <point x="814" y="299"/>
      <point x="806" y="304" type="curve" smooth="yes"/>
      <point x="796" y="310"/>
      <point x="757" y="311"/>
      <point x="722" y="311" type="curve" smooth="yes"/>
      <point x="696" y="311"/>
      <point x="655" y="310"/>
      <point x="653" y="300" type="curve" smooth="yes"/>
      <point x="623" y="146" type="line" smooth="yes"/>
      <point x="619" y="126"/>
      <point x="610" y="80"/>
      <point x="612" y="58" type="curve" smooth="yes"/>
      <point x="614" y="44"/>
      <point x="636" y="39"/>
      <point x="672" y="39" type="curve"/>
      <point x="726" y="39" type="line" smooth="yes"/>
      <point x="761" y="39"/>
      <point x="804" y="49"/>
      <point x="832" y="68" type="curve" smooth="yes"/>
      <point x="854" y="84"/>
      <point x="880" y="117"/>
      <point x="906" y="166" type="curve" smooth="yes"/>
      <point x="908" y="170"/>
      <point x="913" y="172"/>
      <point x="920" y="172" type="curve" smooth="yes"/>
      <point x="929" y="172"/>
      <point x="942" y="169"/>
      <point x="944" y="166" type="curve"/>
      <point x="916" y="112"/>
      <point x="877" y="41"/>
      <point x="862" y="-3" type="curve"/>
      <point x="800" y="-3"/>
      <point x="657" y="0"/>
    </contour>
  </outline>
</glyph>
<glyph name="oe" format="1">
  <advance width="635"/>
  <unicode hex="0153"/>
  <outline>
    <contour>
      <point x="382" y="222" type="curve"/>
      <point x="424" y="223"/>
      <point x="520" y="291"/>
      <point x="520" y="364" type="curve" smooth="yes"/>
      <point x="520" y="386"/>
      <point x="506" y="403"/>
      <point x="486" y="403" type="curve" smooth="yes"/>
      <point x="432" y="403"/>
      <point x="389" y="284"/>
    </contour>
    <contour>
      <point x="250" y="406" type="curve" smooth="yes"/>
      <point x="170" y="406"/>
      <point x="122" y="247"/>
      <point x="122" y="142" type="curve" smooth="yes"/>
      <point x="122" y="90"/>
      <point x="132" y="30"/>
      <point x="167" y="30" type="curve" smooth="yes"/>
      <point x="237" y="30"/>
      <point x="294" y="172"/>
      <point x="294" y="292" type="curve" smooth="yes"/>
      <point x="294" y="348"/>
      <point x="285" y="406"/>
    </contour>
    <contour>
      <point x="528" y="442" type="curve" smooth="yes"/>
      <point x="579" y="442"/>
      <point x="616" y="415"/>
      <point x="616" y="365" type="curve" smooth="yes"/>
      <point x="616" y="265"/>
      <point x="441" y="190"/>
      <point x="379" y="190" type="curve"/>
      <point x="378" y="187"/>
      <point x="378" y="167"/>
      <point x="378" y="162" type="curve" smooth="yes"/>
      <point x="378" y="113"/>
      <point x="392" y="65"/>
      <point x="442" y="65" type="curve" smooth="yes"/>
      <point x="487" y="65"/>
      <point x="541" y="129"/>
      <point x="544" y="132" type="curve"/>
      <point x="550" y="132"/>
      <point x="558" y="113"/>
      <point x="558" y="107" type="curve"/>
      <point x="545" y="85"/>
      <point x="451" y="-6"/>
      <point x="388" y="-6" type="curve" smooth="yes"/>
      <point x="340" y="-6"/>
      <point x="306" y="18"/>
      <point x="289" y="62" type="curve"/>
      <point x="247" y="21"/>
      <point x="198" y="-6"/>
      <point x="150" y="-6" type="curve" smooth="yes"/>
      <point x="68" y="-6"/>
      <point x="20" y="49"/>
      <point x="20" y="140" type="curve" smooth="yes"/>
      <point x="20" y="282"/>
      <point x="144" y="442"/>
      <point x="262" y="442" type="curve" smooth="yes"/>
      <point x="319" y="442"/>
      <point x="361" y="418"/>
      <point x="381" y="370" type="curve"/>
      <point x="425" y="414"/>
      <point x="479" y="442"/>
    </contour>
  </outline>
</glyph>
<glyph name="uogonek" format="1">
  <advance width="512"/>
  <unicode hex="0173"/>
  <outline>
    <contour>
      <point x="220" y="-170" type="curve" smooth="yes"/>
      <point x="220" y="-112"/>
      <point x="276" y="-52"/>
      <point x="320" y="-6" type="curve"/>
      <point x="298" y="-1"/>
      <point x="282" y="20"/>
      <point x="282" y="52" type="curve" smooth="yes"/>
      <point x="282" y="60"/>
      <point x="286" y="84"/>
      <point x="290" y="106" type="curve" smooth="yes"/>
      <point x="295" y="134"/>
      <point x="300" y="154"/>
      <point x="305" y="176" type="curve"/>
      <point x="273" y="108"/>
      <point x="171" y="-7"/>
      <point x="117" y="-7" type="curve"/>
      <point x="72" y="-7"/>
      <point x="60" y="22"/>
      <point x="60" y="72" type="curve" smooth="yes"/>
      <point x="60" y="102"/>
      <point x="71" y="158"/>
      <point x="77" y="186" type="curve"/>
      <point x="81" y="206"/>
      <point x="101" y="296"/>
      <point x="104" y="316" type="curve" smooth="yes"/>
      <point x="105" y="321"/>
      <point x="108" y="343"/>
      <point x="108" y="348" type="curve" smooth="yes"/>
      <point x="108" y="357"/>
      <point x="106" y="372"/>
      <point x="96" y="372" type="curve" smooth="yes"/>
      <point x="74" y="372"/>
      <point x="28" y="316"/>
      <point x="25" y="312" type="curve"/>
      <point x="20" y="312"/>
      <point x="13" y="329"/>
      <point x="13" y="335" type="curve"/>
      <point x="27" y="361"/>
      <point x="104" y="442"/>
      <point x="154" y="442" type="curve" smooth="yes"/>
      <point x="184" y="442"/>
      <point x="206" y="418"/>
      <point x="206" y="380" type="curve" smooth="yes"/>
      <point x="206" y="369"/>
      <point x="201" y="340"/>
      <point x="198" y="324" type="curve"/>
      <point x="197" y="318"/>
      <point x="170" y="182"/>
      <point x="170" y="182" type="curve" smooth="yes"/>
      <point x="168" y="172"/>
      <point x="160" y="127"/>
      <point x="160" y="117" type="curve" smooth="yes"/>
      <point x="160" y="101"/>
      <point x="164" y="85"/>
      <point x="178" y="85" type="curve" smooth="yes"/>
      <point x="210" y="85"/>
      <point x="312" y="222"/>
      <point x="336" y="346" type="curve"/>
      <point x="340" y="368"/>
      <point x="350" y="413"/>
      <point x="354" y="435" type="curve"/>
      <point x="364" y="438"/>
      <point x="387" y="440"/>
      <point x="397" y="440" type="curve" smooth="yes"/>
      <point x="407" y="440"/>
      <point x="434" y="438"/>
      <point x="446" y="435" type="curve"/>
      <point x="386" y="119" type="line" smooth="yes"/>
      <point x="384" y="111"/>
      <point x="382" y="91"/>
      <point x="382" y="86" type="curve" smooth="yes"/>
      <point x="382" y="77"/>
      <point x="384" y="64"/>
      <point x="394" y="64" type="curve" smooth="yes"/>
      <point x="416" y="64"/>
      <point x="461" y="119"/>
      <point x="464" y="123" type="curve"/>
      <point x="469" y="123"/>
      <point x="476" y="106"/>
      <point x="476" y="100" type="curve"/>
      <point x="468" y="86"/>
      <point x="438" y="55"/>
      <point x="408" y="30" type="curve" smooth="yes"/>
      <point x="359" y="-10"/>
      <point x="278" y="-77"/>
      <point x="278" y="-130" type="curve" smooth="yes"/>
      <point x="278" y="-150"/>
      <point x="285" y="-164"/>
      <point x="310" y="-164" type="curve" smooth="yes"/>
      <point x="354" y="-164"/>
      <point x="383" y="-128"/>
      <point x="389" y="-126" type="curve"/>
      <point x="397" y="-127"/>
      <point x="391" y="-151"/>
      <point x="388" y="-154" type="curve" smooth="yes"/>
      <point x="364" y="-188"/>
      <point x="317" y="-224"/>
      <point x="275" y="-224" type="curve" smooth="yes"/>
      <point x="241" y="-224"/>
      <point x="220" y="-197"/>
    </contour>
  </outline>
</glyph>
<glyph name="uni0302" format="1">
  <advance width="369"/>
  <unicode hex="0302"/>
  <outline>
    <contour>
      <point x="313" y="750" type="curve" smooth="yes"/>
      <point x="317" y="750"/>
      <point x="320" y="746"/>
      <point x="323" y="740" type="curve" smooth="yes"/>
      <point x="351" y="686"/>
      <point x="376" y="645"/>
      <point x="394" y="615" type="curve"/>
      <point x="392" y="607"/>
      <point x="387" y="599"/>
      <point x="382" y="598" type="curve"/>
      <point x="358" y="617"/>
      <point x="310" y="658"/>
      <point x="299" y="670" type="curve"/>
      <point x="283" y="658"/>
      <point x="218" y="616"/>
      <point x="188" y="598" type="curve"/>
      <point x="184" y="599"/>
      <point x="179" y="607"/>
      <point x="181" y="615" type="curve"/>
      <point x="210" y="643"/>
      <point x="256" y="690"/>
      <point x="301" y="740" type="curve" smooth="yes"/>
      <point x="306" y="745"/>
      <point x="309" y="750"/>
    </contour>
  </outline>
</glyph>
<glyph name="uni0305" format="1">
  <advance width="526"/>
  <unicode hex="0305"/>
  <outline>
    <contour>
      <point x="130" y="746" type="curve" smooth="yes"/>
      <point x="130" y="748"/>
      <point x="144" y="804"/>
      <point x="154" y="804" type="curve" smooth="yes"/>
      <point x="696" y="804" type="line" smooth="yes"/>
      <point x="698" y="804"/>
      <point x="701" y="803"/>
      <point x="699" y="795" type="curve" smooth="yes"/>
      <point x="696" y="777"/>
      <point x="684" y="748"/>
      <point x="682" y="744" type="curve" smooth="yes"/>
      <point x="679" y="738"/>
      <point x="673" y="736"/>
      <point x="673" y="736" type="curve"/>
      <point x="134" y="736" type="line"/>
      <point x="134" y="736"/>
      <point x="128" y="736"/>
    </contour>
  </outline>
</glyph>
<glyph name="uni0308" format="1">
  <advance width="324"/>
  <unicode hex="0308"/>
  <outline>
    <contour>
      <point x="360" y="584" type="curve"/>
      <point x="390" y="584"/>
      <point x="408" y="558"/>
      <point x="402" y="526" type="curve" smooth="yes"/>
      <point x="396" y="494"/>
      <point x="367" y="468"/>
      <point x="337" y="468" type="curve"/>
      <point x="307" y="468"/>
      <point x="288" y="494"/>
      <point x="294" y="526" type="curve" smooth="yes"/>
      <point x="300" y="558"/>
      <point x="330" y="584"/>
    </contour>
    <contour>
      <point x="187" y="584" type="curve"/>
      <point x="217" y="584"/>
      <point x="235" y="558"/>
      <point x="229" y="526" type="curve" smooth="yes"/>
      <point x="223" y="494"/>
      <point x="194" y="468"/>
      <point x="164" y="468" type="curve"/>
      <point x="134" y="468"/>
      <point x="115" y="494"/>
      <point x="121" y="526" type="curve" smooth="yes"/>
      <point x="127" y="558"/>
      <point x="157" y="584"/>
    </contour>
  </outline>
</glyph>
<glyph name="uni030A" format="1">
  <advance width="324"/>
  <unicode hex="030A"/>
  <outline>
    <contour>
      <point x="224" y="600" type="curve" smooth="yes"/>
      <point x="218" y="570"/>
      <point x="235" y="546"/>
      <point x="263" y="546" type="curve" smooth="yes"/>
      <point x="291" y="546"/>
      <point x="318" y="570"/>
      <point x="324" y="600" type="curve" smooth="yes"/>
      <point x="330" y="630"/>
      <point x="313" y="655"/>
      <point x="285" y="655" type="curve" smooth="yes"/>
      <point x="257" y="655"/>
      <point x="230" y="630"/>
    </contour>
    <contour>
      <point x="187" y="600" type="curve" smooth="yes"/>
      <point x="197" y="652"/>
      <point x="246" y="694"/>
      <point x="293" y="694" type="curve" smooth="yes"/>
      <point x="341" y="694"/>
      <point x="371" y="652"/>
      <point x="361" y="600" type="curve" smooth="yes"/>
      <point x="351" y="548"/>
      <point x="303" y="506"/>
      <point x="256" y="506" type="curve" smooth="yes"/>
      <point x="208" y="506"/>
      <point x="177" y="548"/>
    </contour>
  </outline>
</glyph>
<glyph name="uni030C" format="1">
  <advance width="371"/>
  <unicode hex="030C"/>
  <outline>
    <contour>
      <point x="249" y="496" type="curve" smooth="yes"/>
      <point x="245" y="496"/>
      <point x="242" y="500"/>
      <point x="239" y="506" type="curve" smooth="yes"/>
      <point x="211" y="560"/>
      <point x="186" y="601"/>
      <point x="168" y="631" type="curve"/>
      <point x="170" y="639"/>
      <point x="175" y="647"/>
      <point x="180" y="648" type="curve"/>
      <point x="204" y="628"/>
      <point x="252" y="588"/>
      <point x="263" y="576" type="curve"/>
      <point x="279" y="588"/>
      <point x="344" y="630"/>
      <point x="374" y="648" type="curve"/>
      <point x="378" y="647"/>
      <point x="383" y="639"/>
      <point x="381" y="631" type="curve"/>
      <point x="352" y="603"/>
      <point x="307" y="556"/>
      <point x="262" y="506" type="curve" smooth="yes"/>
      <point x="257" y="501"/>
      <point x="253" y="496"/>
    </contour>
  </outline>
</glyph>
<glyph name="uni0312" format="1">
  <advance width="139"/>
  <unicode hex="0312"/>
  <outline>
    <contour>
      <point x="214" y="636" type="curve"/>
      <point x="215" y="636"/>
      <point x="235" y="632"/>
      <point x="235" y="627" type="curve"/>
      <point x="230" y="624"/>
      <point x="194" y="602"/>
      <point x="190" y="569" type="curve" smooth="yes"/>
      <point x="187" y="543"/>
      <point x="216" y="536"/>
      <point x="216" y="510" type="curve" smooth="yes"/>
      <point x="216" y="476"/>
      <point x="156" y="456"/>
      <point x="120" y="466" type="curve"/>
      <point x="114" y="472"/>
      <point x="110" y="482"/>
      <point x="110" y="497" type="curve" smooth="yes"/>
      <point x="110" y="549"/>
      <point x="176" y="622"/>
    </contour>
  </outline>
</glyph>
<glyph name="uni0315" format="1">
  <advance width="131"/>
  <unicode hex="0315"/>
  <outline>
    <contour>
      <point x="109" y="472" type="curve"/>
      <point x="109" y="478"/>
      <point x="165" y="519"/>
      <point x="165" y="559" type="curve" smooth="yes"/>
      <point x="165" y="580"/>
      <point x="144" y="587"/>
      <point x="144" y="616" type="curve" smooth="yes"/>
      <point x="144" y="675"/>
      <point x="191" y="681"/>
      <point x="229" y="681" type="curve"/>
      <point x="231" y="675"/>
      <point x="234" y="660"/>
      <point x="234" y="649" type="curve" smooth="yes"/>
      <point x="234" y="636"/>
      <point x="233" y="625"/>
      <point x="230" y="610" type="curve" smooth="yes"/>
      <point x="218" y="546"/>
      <point x="164" y="480"/>
      <point x="123" y="456" type="curve"/>
      <point x="121" y="456" type="line" smooth="yes"/>
      <point x="117" y="456"/>
      <point x="109" y="465"/>
    </contour>
  </outline>
</glyph>
<glyph name="dotbelowcomb" format="1">
  <advance width="258"/>
  <unicode hex="0323"/>
  <outline>
    <contour>
      <point x="57" y="-100" type="curve" smooth="yes"/>
      <point x="63" y="-66"/>
      <point x="95" y="-38"/>
      <point x="127" y="-38" type="curve" smooth="yes"/>
      <point x="159" y="-38"/>
      <point x="179" y="-66"/>
      <point x="173" y="-100" type="curve" smooth="yes"/>
      <point x="167" y="-134"/>
      <point x="135" y="-162"/>
      <point x="103" y="-162" type="curve" smooth="yes"/>
      <point x="71" y="-162"/>
      <point x="51" y="-134"/>
    </contour>
  </outline>
</glyph>
<glyph name="uni0327" format="1">
  <advance width="402"/>
  <unicode hex="0327"/>
  <outline>
    <contour>
      <point x="198" y="-28" type="line"/>
      <point x="198" y="-28"/>
      <point x="215" y="-27"/>
      <point x="219" y="-27" type="curve"/>
      <point x="245" y="-27"/>
      <point x="260" y="-51"/>
      <point x="255" y="-77" type="curve" smooth="yes"/>
      <point x="246" y="-124"/>
      <point x="203" y="-154"/>
      <point x="151" y="-154" type="curve" smooth="yes"/>
      <point x="135" y="-154"/>
      <point x="120" y="-148"/>
      <point x="115" y="-142" type="curve"/>
      <point x="115" y="-138"/>
      <point x="115" y="-131"/>
      <point x="116" y="-126" type="curve" smooth="yes"/>
      <point x="117" y="-119"/>
      <point x="124" y="-112"/>
      <point x="128" y="-112" type="curve" smooth="yes"/>
      <point x="136" y="-112"/>
      <point x="148" y="-126"/>
      <point x="166" y="-126" type="curve" smooth="yes"/>
      <point x="192" y="-126"/>
      <point x="207" y="-111"/>
      <point x="210" y="-95" type="curve" smooth="yes"/>
      <point x="214" y="-76"/>
      <point x="205" y="-64"/>
      <point x="191" y="-64" type="curve" smooth="yes"/>
      <point x="183" y="-64"/>
      <point x="173" y="-66"/>
      <point x="163" y="-70" type="curve" smooth="yes"/>
      <point x="161" y="-70"/>
      <point x="152" y="-60"/>
      <point x="155" y="-56" type="curve" smooth="yes"/>
      <point x="166" y="-41"/>
      <point x="183" y="-17"/>
      <point x="193" y="-3" type="curve"/>
      <point x="218" y="-3" type="line"/>
    </contour>
  </outline>
</glyph>
